<svg xmlns="http://www.w3.org/2000/svg" width="34" height="34" viewBox="0 0 34 34">
    <g fill="#006089" fill-rule="evenodd">
        <path d="M14.802 23.856L8.907 18l5.895-5.856a.666.666 0 0 0 0-.947.678.678 0 0 0-.953 0L7 18l6.849 6.805c.263.261.69.261.953 0a.667.667 0 0 0 0-.948M8 17.5h19"/>
        <path d="M8 18h19v-1H8z"/>
        <path d="M33.505 17h-.495a15.96 15.96 0 0 1-4.69 11.32A15.956 15.956 0 0 1 17 33.01c-4.422 0-8.422-1.79-11.32-4.69A15.952 15.952 0 0 1 .99 17c0-4.422 1.79-8.421 4.69-11.32A15.96 15.96 0 0 1 17 .99a15.964 15.964 0 0 1 11.32 4.69A15.964 15.964 0 0 1 33.01 17H34C33.999 7.611 26.389.001 17 0 7.61.001 0 7.611 0 17c0 9.39 7.61 17 17 17C26.39 34 34 26.39 34 17h-.495"/>
    </g>
</svg>
