<svg width="91" height="91" viewBox="0 0 91 91" xmlns="http://www.w3.org/2000/svg">
    <g fill="none" fill-rule="evenodd">
        <g stroke="#00609C" transform="translate(.92 1)">
            <path stroke-width="2" d="m81.84 66.223 7.666-4.675"/>
            <path stroke-width="2" stroke-linecap="square" d="M89.029 60.349V.5h-2"/>
            <path stroke-width="2" d="M89.029 61.297v1.049"/>
            <path d="M87.029.5H58.425m-11.45 0h-18.85 0" stroke-width="2" stroke-linecap="square"/>
            <path stroke-width="2.021" d="M0 17.218 26.34 1.156l1.308-.788"/>
            <path stroke-width="2" d="M60.793 17.643 89.45 1.106M89.029 61.351v1.05"/>
            <path d="M20.217 17.356H.475h0v60.905h41.397m19.505-32.898V17.356H32.494" stroke-width="2" stroke-linecap="square"/>
            <path stroke-width="2" d="M21.122 16.924 48.095.494h10.721L31.71 16.922v22.52l-5.37-6.07-5.218 6.07z"/>
            <circle stroke-width="2" stroke-linecap="round" stroke-linejoin="round" cx="60.848" cy="67.53" r="21.04"/>
        </g>
        <path d="M51.645 58.123a.418.418 0 0 0-.085.47l9.862 21.527a.42.42 0 0 0 .38.245h.004a.418.418 0 0 0 .38-.251l2.357-5.374 4.493 4.492c.496.497 1.157.77 1.86.77.702 0 1.362-.273 1.859-.77a2.633 2.633 0 0 0 0-3.718l-4.493-4.493 5.374-2.356a.42.42 0 0 0 .006-.765l-21.527-9.862a.419.419 0 0 0-.47.085zm20.798 10.15-5.08 2.227a.418.418 0 0 0-.128.68l4.927 4.926c.338.339.524.789.524 1.267 0 .478-.186.928-.524 1.266a1.78 1.78 0 0 1-1.267.525c-.478 0-.928-.186-1.266-.525l-4.927-4.926a.42.42 0 0 0-.68.128l-2.227 5.08-9.002-19.651 19.65 9.003z" fill="#00609C" fill-rule="nonzero"/>
    </g>
</svg>
