<svg xmlns="http://www.w3.org/2000/svg" xmlns:xlink="http://www.w3.org/1999/xlink" width="250" height="45" viewBox="0 0 250 45">
    <defs>
        <path id="a" d="M.692.727h21.907v25.479H.692z"/>
        <path id="c" d="M.421.369h6.975v11.187H.421z"/>
        <path id="e" d="M.453.439h10.76v5.29H.452z"/>
    </defs>
    <g fill="none" fill-rule="evenodd">
        <path fill="#231F20" d="M3.516 4.398h1.54l5.005 19.223L21.316 4.398h1.6l-3.347 21.178h-1.067l3.14-19.904L9.973 25.576h-.415L4.315 5.672l-3.14 19.904H.168L3.516 4.398M29.46 24.333l-3.88-14.248h1.007l3.583 13.123 7.257-13.123h1.096l-11.7 20.882h-1.095l3.732-6.634"/>
        <path fill="#00609C" d="M39.202 15.121v-.237c0-6.427 4.503-10.81 10.515-10.81 5.096 0 8.887 2.487 9.389 7.699h-4.917c-.354-2.547-1.776-3.909-4.441-3.909-3.348 0-5.479 2.607-5.479 6.99v.238c0 4.384 2.014 6.93 5.509 6.93 2.635 0 4.473-1.332 4.857-4.058h4.71c-.533 5.244-4.295 7.939-9.509 7.939-6.93 0-10.634-4.266-10.634-10.782M62.187 25.576h4.263V10.085h-4.263v15.491zM61.86 5.642c0-1.331 1.067-2.339 2.43-2.339 1.391 0 2.457 1.007 2.457 2.339 0 1.334-1.066 2.341-2.457 2.341-1.363 0-2.43-1.007-2.43-2.341zM81.408 17.935v-.208c0-2.962-1.393-4.738-3.792-4.738-2.37 0-3.791 1.718-3.791 4.679v.237c0 2.962 1.362 4.739 3.791 4.739 2.399 0 3.792-1.777 3.792-4.709zm-11.967.059v-.237c0-4.858 3.525-8.027 8.175-8.027 4.652 0 8.145 3.11 8.145 7.938v.237c0 4.887-3.524 7.998-8.175 7.998-4.62 0-8.145-3.081-8.145-7.909zM88.632 10.085h4.296v2.459c.771-1.541 2.459-2.814 5.035-2.814 3.05 0 5.213 1.836 5.213 5.983v9.863h-4.295v-9.241c0-2.103-.829-3.109-2.724-3.109-1.837 0-3.229 1.124-3.229 3.406v8.944h-4.296V10.085M117.244 16.157c-.148-2.339-1.333-3.465-3.376-3.465-1.926 0-3.23 1.274-3.554 3.465h6.93zm-11.345 1.866v-.235c0-4.889 3.466-8.058 7.969-8.058 3.997 0 7.552 2.34 7.552 7.879v1.185h-11.167c.119 2.577 1.511 4.058 3.852 4.058 1.984 0 2.962-.859 3.229-2.162h4.057c-.503 3.346-3.169 5.213-7.405 5.213-4.68 0-8.087-2.933-8.087-7.88z"/>
        <path fill="#231F20" d="M186.756 17.817v-.238c0-4.383-2.902-6.96-6.308-6.96-3.466 0-6.397 2.666-6.397 6.99v.237c0 4.236 2.872 6.96 6.368 6.96 3.466 0 6.337-2.665 6.337-6.989zm-13.743.029v-.237c0-4.651 3.407-7.85 7.435-7.85 4.029 0 7.345 3.081 7.345 7.82v.238c0 4.68-3.346 7.878-7.403 7.878-4.06 0-7.377-3.288-7.377-7.849zM191.436 9.967h1.006v3.377c.711-1.866 2.903-3.614 5.777-3.614 3.346 0 5.538 1.836 5.538 6.161v9.567h-1.007v-9.596c0-3.643-1.748-5.243-4.68-5.243-2.756 0-5.628 1.897-5.628 5.45v9.389h-1.006V9.967M208.465 25.459h1.037V2.563h-1.037zM214.419 25.458h1.005V9.967h-1.005v15.491zm-.297-19.667c0-.415.356-.77.799-.77.444 0 .771.355.771.77 0 .414-.327.799-.771.799a.816.816 0 0 1-.799-.799zM220.28 9.967h1.009v3.377c.711-1.866 2.901-3.614 5.776-3.614 3.345 0 5.539 1.836 5.539 6.161v9.567h-1.007v-9.596c0-3.643-1.747-5.243-4.682-5.243-2.752 0-5.626 1.897-5.626 5.45v9.389h-1.009V9.967M248.745 16.78c-.118-4.088-2.341-6.161-5.628-6.161-3.288 0-5.717 2.429-5.953 6.161h11.581zm-12.646 1.066v-.237c0-4.621 2.961-7.879 7.018-7.879 3.822 0 6.635 2.607 6.635 7.465v.443h-12.619c.031 4.503 2.223 7.168 6.191 7.168 2.667 0 4.681-1.185 5.303-3.613h1.007c-.711 2.873-3.11 4.502-6.31 4.502-4.502 0-7.225-3.258-7.225-7.849z"/>
        <g transform="translate(146.231 18)">
            <mask id="b" fill="#fff">
                <use xlink:href="#a"/>
            </mask>
            <path fill="#00609C" d="M21.005 22.305l-5.49-7.032 6.498-2.806a.458.458 0 0 0 .03-.827L1.643 1.086a.439.439 0 0 0-.629.491l5.305 22.348c.087.377.573.48.808.173l4.297-5.63 5.493 7.032c.353.449 1 .53 1.449.177l2.463-1.922a1.033 1.033 0 0 0 .176-1.45" mask="url(#b)"/>
            <path fill="#006089" d="M21.005 22.305l.244-.191-5.244-6.715 6.131-2.648-.001.001a.765.765 0 0 0 .465-.707.763.763 0 0 0-.414-.68L1.785.812a.748.748 0 0 0-1.093.659l.022.179 5.304 22.346-.001-.002a.765.765 0 0 0 1.356.292l4.054-5.312 5.246 6.716v.001a1.343 1.343 0 0 0 1.884.229l.006-.005 2.456-1.916.001-.001a1.342 1.342 0 0 0 .229-1.884l-.244.191-.243.191a.727.727 0 0 1-.125 1.016l.001-.001-2.463 1.922a.725.725 0 0 1-1.016-.124l-5.738-7.347-4.546 5.957.007-.009-.117.059-.145-.114L1.314 1.501l.001.003-.004-.033.129-.126.061.016 20.4 10.553.08.131-.09.138-6.866 2.965 5.744 7.356-.007-.008.243-.191" mask="url(#b)"/>
        </g>
        <path fill="#1F2222" d="M143.714 32.174a2.598 2.598 0 0 0-.754 5.141l.125.019a2.6 2.6 0 0 0 .754-5.141l-.125-.019"/>
        <path fill="#393C3B" d="M137.185 29.612a2.504 2.504 0 0 0-.728 4.954l.118.018a2.506 2.506 0 0 0 2.774-2.062 2.506 2.506 0 0 0-2.045-2.892l-.119-.018"/>
        <g transform="translate(127.231 18)">
            <mask id="d" fill="#fff">
                <use xlink:href="#c"/>
            </mask>
            <path fill="#4D504E" d="M5.278 6.755a2.41 2.41 0 0 0-.7 4.766l.117.017a2.412 2.412 0 0 0 2.667-1.985 2.41 2.41 0 0 0-1.969-2.781l-.115-.017" mask="url(#d)"/>
            <path fill="#606462" d="M3.016.386a2.315 2.315 0 0 0-.67 4.58l.11.015a2.311 2.311 0 0 0 2.56-1.905A2.311 2.311 0 0 0 3.126.403l-.11-.017" mask="url(#d)"/>
        </g>
        <path fill="#737874" d="M130.933 11.376a2.22 2.22 0 0 0-.645 4.394l.108.015a2.22 2.22 0 0 0 2.455-1.83 2.22 2.22 0 0 0-1.812-2.564l-.106-.015"/>
        <path fill="#878A86" d="M134.43 5.507a2.13 2.13 0 0 0-2.355 1.752 2.13 2.13 0 0 0 1.737 2.455l.103.014a2.126 2.126 0 0 0 .615-4.206l-.1-.015"/>
        <g transform="translate(137.231)">
            <mask id="f" fill="#fff">
                <use xlink:href="#e"/>
            </mask>
            <path fill="#959895" d="M2.731 1.68a2.031 2.031 0 0 0-.59 4.018l.098.016a2.032 2.032 0 0 0 .59-4.02l-.098-.014" mask="url(#f)"/>
            <path fill="#A9ABA7" d="M9.509.453a1.937 1.937 0 0 0-.561 3.832l.094.012a1.936 1.936 0 0 0 .56-3.831L9.509.453" mask="url(#f)"/>
        </g>
        <path fill="#BCBEBA" d="M153.661 2.254a1.844 1.844 0 0 0-.538 3.646l.091.013a1.842 1.842 0 0 0 .534-3.645l-.087-.014"/>
        <path fill="#D0D1CB" d="M158.993 6.624a1.746 1.746 0 0 0-1.936 1.439 1.75 1.75 0 0 0 1.43 2.018l.082.011a1.744 1.744 0 0 0 1.934-1.439 1.746 1.746 0 0 0-1.428-2.018l-.082-.011"/>
        <path fill="#E7E7E1" d="M162.097 12.764a1.651 1.651 0 0 0-1.83 1.361c-.153.9.452 1.755 1.351 1.909l.078.011a1.65 1.65 0 0 0 1.83-1.361 1.65 1.65 0 0 0-1.349-1.908l-.08-.012"/>
        <path fill="#FAF9F6" d="M162.417 19.889c-.82-.1-1.583.46-1.726 1.284a1.56 1.56 0 0 0 1.275 1.8l.076.011a1.56 1.56 0 0 0 .451-3.083l-.076-.012"/>
    </g>
</svg>
