<svg xmlns="http://www.w3.org/2000/svg" xmlns:xlink="http://www.w3.org/1999/xlink" width="271" height="85" viewBox="0 0 271 85">
    <defs>
        <path id="a" d="M.938.065h35.347v36.398H.938z"/>
    </defs>
    <g fill="none" fill-rule="evenodd">
        <path fill="#000" d="M118.758 84.688c8.327 0 13.544-6.622 13.544-15.099 0-6.421-4.214-11.839-11.287-11.839-8.377 0-13.694 7.023-13.694 15.099 0 6.572 4.564 11.839 11.437 11.839zm.05-1.456c-6.07 0-9.733-4.713-9.733-10.383 0-7.374 4.366-13.644 11.89-13.644 6.17 0 9.581 4.765 9.581 10.384 0 7.675-4.465 13.643-11.738 13.643zm17.356 1.105h1.706l2.508-15.752c.953-6.069 5.77-9.38 10.534-9.38 4.818 0 7.575 3.009 6.572 9.279l-2.508 15.853h1.756l2.459-15.601c1.153-7.424-2.309-11.036-8.028-11.036-4.816 0-8.377 2.809-10.133 6.17.351-2.258.502-4.415.552-5.769h-1.655c-.101 1.655-.2 3.511-.753 6.973l-3.01 19.263zm28.542 0h1.757l6.121-38.777h-1.757l-6.121 38.777zm16.104-31.955c.752 0 1.354-.652 1.354-1.354 0-.703-.553-1.304-1.303-1.304-.754 0-1.356.601-1.356 1.304 0 .752.552 1.354 1.305 1.354zm-6.021 31.955h1.706l4.164-26.236h-1.756l-4.114 26.236zm9.933 0h1.705l2.51-15.752c.953-6.069 5.768-9.38 10.534-9.38 4.815 0 7.574 3.009 6.571 9.279l-2.509 15.853h1.757l2.457-15.601c1.154-7.424-2.307-11.036-8.025-11.036-4.817 0-8.378 2.809-10.134 6.17.351-2.258.502-4.415.552-5.769h-1.655c-.1 1.655-.201 3.511-.753 6.973l-3.01 19.263zm30.198-10.886c0-.802.051-1.605.101-2.357h21.019l.1-.702c1.154-7.375-2.258-12.642-9.782-12.642-8.127 0-13.243 7.273-13.243 15.651 0 6.923 3.762 11.336 10.935 11.336 5.268 0 9.381-2.557 11.086-7.624h-1.705c-1.606 4.063-4.866 6.119-9.33 6.119-6.071 0-9.181-3.561-9.181-9.781zm11.388-14.246c6.52 0 8.979 4.314 8.227 10.434h-19.314c1.154-6.07 5.117-10.434 11.087-10.434z"/>
        <path fill="#00609C" d="M83.595 38.872c8.829 0 15.199-4.565 16.103-13.444h-7.976c-.652 4.615-3.762 6.872-8.228 6.872-5.919 0-9.329-4.314-9.329-11.738v-.401c0-7.425 3.612-11.839 9.28-11.839 4.515 0 6.922 2.307 7.525 6.621h8.327c-.853-8.829-7.274-13.042-15.903-13.042-10.183 0-17.807 7.424-17.807 18.309v.402c0 11.036 6.27 18.26 18.008 18.26zm20.918-.552h7.224V12.084h-7.224V38.32zm3.562-29.798c2.358 0 4.162-1.705 4.162-3.962 0-2.258-1.804-3.963-4.162-3.963-2.308 0-4.114 1.705-4.114 3.963 0 2.257 1.806 3.962 4.114 3.962zm22.573 24.832c-4.114 0-6.421-3.01-6.421-8.027v-.401c0-5.016 2.408-7.925 6.421-7.925 4.063 0 6.422 3.01 6.422 8.025v.351c0 4.967-2.359 7.977-6.422 7.977zm-.049 5.518c7.875 0 13.845-5.267 13.845-13.545v-.401c0-8.177-5.92-13.445-13.796-13.445-7.875 0-13.845 5.369-13.845 13.596v.401c0 8.176 5.97 13.394 13.796 13.394zm18.71-.552h7.273V23.17c0-3.862 2.359-5.769 5.469-5.769 3.211 0 4.614 1.706 4.614 5.267V38.32h7.276V21.615c0-7.023-3.663-10.134-8.83-10.134-4.364 0-7.224 2.158-8.529 4.767v-4.164h-7.273V38.32zm42.94.552c7.174 0 11.689-3.16 12.542-8.829h-6.873c-.452 2.207-2.107 3.662-5.469 3.662-3.962 0-6.32-2.508-6.52-6.872h18.911v-2.007c0-9.381-6.02-13.345-12.792-13.345-7.624 0-13.494 5.369-13.494 13.646v.401c0 8.378 5.768 13.344 13.695 13.344zm-6.221-16.505c.553-3.711 2.76-5.868 6.02-5.868 3.462 0 5.469 1.906 5.721 5.868h-11.741z"/>
        <path fill="#231F20" d="M31.073 2.452L17.178 35.01 3.532 2.452H.874V38.32h1.705V4.609L16.778 38.32h.702L31.927 4.609V38.32h1.805V2.452zM51.39 34.356l-9.531-22.272h-1.806l10.434 24.229-4.615 11.137h1.756l14.649-35.366H60.47z"/>
        <g transform="translate(234.132 26.292)">
            <mask id="b" fill="#fff">
                <use xlink:href="#a"/>
            </mask>
            <path fill="#00609C" d="M35.828 30.266l-9.795-10.143 9.753-5.484a.724.724 0 0 0-.09-1.306L1.886.115a.693.693 0 0 0-.907.876l12.031 34.25a.724.724 0 0 0 1.302.137l5.82-9.557 9.794 10.143a1.633 1.633 0 0 0 2.31.04l3.552-3.43c.648-.625.665-1.66.04-2.308" mask="url(#b)"/>
        </g>
        <path fill="#1F2222" d="M234.194 42.099a3.083 3.083 0 0 0-.251 6.16l.149.007a3.085 3.085 0 0 0 .251-6.161l-.149-.006"/>
        <path fill="#393C3B" d="M226.167 39.885a2.97 2.97 0 0 0-3.014 2.778 2.97 2.97 0 0 0 2.771 3.159l.144.006a2.972 2.972 0 0 0 .243-5.937l-.144-.006"/>
        <path fill="#4D504E" d="M220.047 34.73a2.859 2.859 0 0 0-.233 5.713l.137.006a2.86 2.86 0 0 0 .234-5.713l-.138-.006"/>
        <path fill="#606462" d="M216.587 27.494a2.747 2.747 0 0 0-.224 5.489l.133.005a2.746 2.746 0 0 0 2.786-2.569 2.745 2.745 0 0 0-2.562-2.92l-.133-.005"/>
        <path fill="#737874" d="M216.527 19.133a2.636 2.636 0 0 0-.216 5.265l.129.005a2.633 2.633 0 0 0 2.672-2.463 2.633 2.633 0 0 0-2.459-2.8l-.126-.007"/>
        <path fill="#878A86" d="M219.926 11.772a2.524 2.524 0 0 0-.205 5.041l.121.005a2.523 2.523 0 0 0 .207-5.041l-.123-.005"/>
        <path fill="#959895" d="M225.981 6.569a2.41 2.41 0 0 0-.198 4.818l.118.004a2.41 2.41 0 0 0 .197-4.817l-.117-.005"/>
        <path fill="#A9ABA7" d="M233.83 4.279a2.3 2.3 0 0 0-.186 4.592l.11.005a2.298 2.298 0 0 0 .189-4.593l-.113-.004"/>
        <path fill="#BCBEBA" d="M242.221 5.549a2.187 2.187 0 0 0-.178 4.368l.106.004a2.187 2.187 0 0 0 .178-4.368l-.106-.004"/>
        <path fill="#D0D1CB" d="M249.058 10.042a2.076 2.076 0 0 0-.17 4.146l.1.004a2.074 2.074 0 0 0 .169-4.145l-.099-.005"/>
        <path fill="#E7E7E1" d="M253.485 16.905a1.963 1.963 0 0 0-.162 3.92l.096.004a1.962 1.962 0 0 0 .159-3.921l-.093-.003"/>
        <path fill="#FAF9F6" d="M254.746 25.276a1.851 1.851 0 0 0-.15 3.697l.089.004a1.85 1.85 0 0 0 .152-3.697l-.091-.004"/>
    </g>
</svg>
