<!-- Generated by IcoMoon.io -->
<svg version="1.1" xmlns="http://www.w3.org/2000/svg" width="960" height="960" viewBox="0 0 960 960">
<title></title>
<g id="icomoon-ignore">
</g>
<path fill="#000" d="M792 576c-14.4 0-24 9.6-24 24v134.4l-158.4-158.4c-9.6-9.6-24-9.6-33.6 0s-9.6 24 0 33.6l158.4 158.4h-134.4c-14.4 0-24 9.6-24 24s9.6 24 24 24h192c14.4 0 24-9.6 24-24v-192c0-14.4-9.6-24-24-24z"></path>
<path fill="#000" d="M168 384c14.4 0 24-9.6 24-24v-134.4l158.4 158.4c9.6 9.6 24 9.6 33.6 0s9.6-24 0-33.6l-158.4-158.4h134.4c14.4 0 24-9.6 24-24s-9.6-24-24-24h-192c-14.4 0-24 9.6-24 24v192c0 14.4 9.6 24 24 24z"></path>
<path fill="#000" d="M792 144h-192c-14.4 0-24 9.6-24 24s9.6 24 24 24h134.4l-158.4 158.4c-9.6 9.6-9.6 24 0 33.6s24 9.6 33.6 0l158.4-158.4v134.4c0 14.4 9.6 24 24 24s24-9.6 24-24v-192c0-14.4-9.6-24-24-24z"></path>
<path fill="#000" d="M350.4 576l-158.4 158.4v-134.4c0-14.4-9.6-24-24-24s-24 9.6-24 24v192c0 14.4 9.6 24 24 24h192c14.4 0 24-9.6 24-24s-9.6-24-24-24h-134.4l158.4-158.4c9.6-9.6 9.6-24 0-33.6s-24-9.6-33.6 0z"></path>
</svg>
