<svg xmlns="http://www.w3.org/2000/svg" width="26" height="17" viewBox="0 0 26 17">
    <g fill="none" fill-rule="evenodd">
        <g fill="#00609C" fill-rule="nonzero">
            <g>
                <g>
                    <path d="M23.423 4.763c-.67.136-1.962-.284-2.364.182v6.642c-.14.363 2.33.09 2.41.17.082.08.234-.057.234-.238V4.99c0-.153-.094-.227-.28-.227M1.62 15.107c.914-.125 4.797.238 6.457-.13 1.013-2.226 2.946-4.741 3.493-6.899-6.474-2.702-3.424-1.424-2.428-6.59-.093.141-8.087-.301-7.755.232.192.21-.39 13.483.215 13.387M13.91 7.573c-5.537 10.594-6.02 6.87 5.374 7.522.862-.096.082-12.864.338-13.33-2.3-.71-6.09-.255-8.652-.141-.355 1.232-1.298 2.611-1.368 3.803 1.298.79 3.406 1.136 4.291 2.169m11.26-3.843v9.1c-.646.954-2.823.142-3.97.397-.583.755.483 2.839-.524 3.31H.373c-.187 0-.373-.125-.373-.431V.392C0 .119.122 0 .408 0h20.284c1.02.471-.18 2.702.583 3.304.302.165 4.174-.431 3.912.426" transform="translate(-41 -400) translate(-2) translate(43 400)"/>
                </g>
            </g>
        </g>
    </g>
</svg>
