<svg xmlns="http://www.w3.org/2000/svg" width="22" height="25" viewBox="0 0 22 25">
    <g fill="none" fill-rule="evenodd">
        <g>
            <g>
                <g>
                    <path fill="#00609C" fill-rule="nonzero" d="M19.053 8.86c-.113.583-.684.965-1.276.854-.592-.11-.981-.671-.87-1.253.112-.582.682-.965 1.275-.856.592.112.98.673.87 1.256m1.07.2c.187-.968-.321-1.936-1.232-2.346.233-2.056-.619-4.085-2.259-5.381C14.991.038 12.792-.344 10.8.321l.343.605c.095.102.176.215.244.337 1.608-.446 3.337-.084 4.62.968 1.283 1.053 1.956 2.66 1.797 4.295-1.122.094-1.987 1.012-1.994 2.12-.007 1.106.845 2.036 1.966 2.144 1.12.108 2.14-.642 2.351-1.73" transform="translate(-42 -311) translate(-2) translate(45 312)"/>
                    <path stroke="#00609C" stroke-width="1.613" d="M10.602 1.648l-.444-.665s-.17-.71-2.12.205C6.312 2 1.521 3.684.16 10.348c-.853 4.175 1.577 12.057 10.05 11.971 2.302 0 .952-3.048.543-4.083-.409-1.035-3.103-5.595-3.08-9.462 0-4.658 2.484-5.05 3.074-5.63.59-.58-.146-1.496-.146-1.496z" transform="translate(-42 -311) translate(-2) translate(45 312)"/>
                </g>
            </g>
        </g>
    </g>
</svg>
