<svg xmlns="http://www.w3.org/2000/svg" width="44" height="45" viewBox="0 0 44 45">
    <g fill="#FFFFFE" fill-rule="evenodd">
        <path d="M21.944 44.598C9.841 44.598 0 34.595 0 22.298 0 10.003 9.84 0 21.944 0c12.097 0 21.944 10.003 21.944 22.298 0 12.297-9.847 22.3-21.944 22.3m0-43.038C10.7 1.56 1.55 10.863 1.55 22.298c0 11.436 9.15 20.738 20.394 20.738 11.245 0 20.394-9.302 20.394-20.738 0-11.435-9.15-20.738-20.394-20.738"/>
        <path d="M12.313 29.132c-3.709 0-6.733-3.065-6.733-6.834 0-3.768 3.024-6.833 6.733-6.833 3.716 0 6.733 3.065 6.733 6.833 0 3.769-3.017 6.834-6.733 6.834m0-12.107c-2.856 0-5.182 2.368-5.182 5.273 0 2.908 2.326 5.272 5.182 5.272 2.857 0 5.182-2.364 5.182-5.272 0-2.905-2.325-5.273-5.182-5.273M31.017 29.132c-3.71 0-6.726-3.065-6.726-6.834 0-3.768 3.017-6.833 6.726-6.833 3.708 0 6.732 3.065 6.732 6.833 0 3.769-3.024 6.834-6.732 6.834m0-12.107c-2.857 0-5.183 2.368-5.183 5.273 0 2.908 2.326 5.272 5.183 5.272 2.856 0 5.182-2.364 5.182-5.272 0-2.905-2.326-5.273-5.182-5.273"/>
        <path d="M25.66 19.166c-.014-.02-1.663-2.141-4.121-2.141s-3.995 1.926-4.009 1.945l-1.222-.956c.077-.105 1.99-2.549 5.231-2.549 3.234 0 5.266 2.643 5.357 2.759l-1.236.942"/>
    </g>
</svg>
