<svg xmlns="http://www.w3.org/2000/svg" width="17" height="17" viewBox="0 0 17 17">
    <g fill="none" fill-rule="evenodd">
        <g fill="#FFF" fill-rule="nonzero">
            <g>
                <path d="M413.848 93.486l6.885-6.885c.321-.374.3-.933-.05-1.282-.348-.349-.907-.37-1.281-.05l-6.885 6.886-6.885-6.895c-.375-.32-.934-.3-1.283.05-.348.348-.37.907-.05 1.282l6.886 6.894-6.895 6.885c-.27.231-.386.593-.303.938.082.345.352.615.697.698.345.083.707-.035.938-.304l6.895-6.885 6.885 6.885c.374.32.933.3 1.282-.05.349-.348.37-.907.05-1.282l-6.886-6.885z" transform="translate(-1376 -204) translate(972 119)"/>
            </g>
        </g>
    </g>
</svg>
