<svg xmlns="http://www.w3.org/2000/svg" width="26" height="22" viewBox="0 0 26 22">
    <g fill="none" fill-rule="evenodd">
        <g stroke="#00609C" stroke-width="1.411">
            <g>
                <g>
                    <path d="M1.049 5.035h4.165M0 10.514h5.723M3.638 8.026h6.778m11.452 6.97H11.192c-1.414.238-1.993-4.788-2.491-5.474m-.47-1.496L5.956.768C5.723-.536 1.9.263 1.05.054m20.854 17.928c0 1.944-3.157 1.944-3.128 0 .029-1.943 3.128-1.943 3.1 0h.028zm-9.894 0c.029 1.944-3.163 1.944-3.134 0 .029-1.943 3.134-1.943 3.105 0h.029zM7.815 2.048c.272.357 17.529-.816 16.631.64-4.026 12.416-.614 8.087-15.067 8.823" transform="translate(-41 -441) translate(-2) translate(43 442)"/>
                </g>
            </g>
        </g>
    </g>
</svg>
