<?xml version="1.0" encoding="UTF-8"?>
<svg width="31px" height="31px" viewBox="0 0 31 31" version="1.1" xmlns="http://www.w3.org/2000/svg" xmlns:xlink="http://www.w3.org/1999/xlink">
    <title>ph:file-arrow-down-light</title>
    <g id="B2B-Taller" stroke="none" stroke-width="1" fill="none" fill-rule="evenodd">
        <g id="D-Taller" transform="translate(-455.000000, -366.000000)">
            <g id="ph:file-arrow-down-light" transform="translate(455.000000, 366.000000)">
                <rect id="ViewBox" x="0" y="0" width="31" height="31"></rect>
                <path d="M25.6960937,10.1476562 L18.9148437,3.36640625 C18.7840148,3.22474203 18.5990613,3.14547621 18.40625,3.1483574 L6.78125,3.1483574 C5.84495476,3.1483574 5.0859375,3.90745476 5.0859375,4.84375 L5.0859375,26.15625 C5.0859375,27.0925452 5.84495476,27.8515625 6.78125,27.8515625 L24.21875,27.8515625 C24.6683748,27.8515625 25.0995842,27.6729497 25.417517,27.355017 C25.7354497,27.0370842 25.9141426,26.6058748 25.9141426,26.15625 L25.9141426,10.65625 C25.9170238,10.4634387 25.837758,10.2784852 25.6960937,10.1476562 L25.6960937,10.1476562 Z M19.1328125,5.63085937 L23.4316406,9.9296875 L19.1328125,9.9296875 L19.1328125,5.63085937 Z M24.21875,26.3984375 L6.78125,26.3984375 C6.64749354,26.3984375 6.5390625,26.2900065 6.5390625,26.15625 L6.5390625,4.84375 C6.5390625,4.70999354 6.64749354,4.6015625 6.78125,4.6015625 L17.6796875,4.6015625 L17.6796875,10.65625 C17.6796875,11.0575194 18.0049806,11.3828125 18.40625,11.3828125 L24.4609375,11.3828125 L24.4609375,26.15625 C24.4609375,26.2900065 24.3525065,26.3984375 24.21875,26.3984375 Z M19.3992187,18.3820312 C19.5384091,18.5145935 19.6171875,18.6984097 19.6171875,18.890625 C19.6171875,19.0828403 19.5384091,19.2666565 19.3992187,19.3992187 L16.0085937,22.7898437 C15.8760315,22.9290341 15.6922153,23.0078125 15.5,23.0078125 C15.3077847,23.0078125 15.1239685,22.9290341 14.9914062,22.7898437 L11.6007812,19.3992187 C11.3198927,19.1183302 11.3198927,18.6629198 11.6007813,18.3820313 C11.8816698,18.1011427 12.3370802,18.1011427 12.6179687,18.3820312 L14.7734375,20.5253906 L14.7734375,14.53125 C14.7734375,14.1299806 15.0987306,13.8046875 15.5,13.8046875 C15.9012694,13.8046875 16.2265625,14.1299806 16.2265625,14.53125 L16.2265625,20.5253906 L18.3820312,18.3820312 C18.5145935,18.2428409 18.6984097,18.1640625 18.890625,18.1640625 C19.0828403,18.1640625 19.2666565,18.2428409 19.3992187,18.3820312 L19.3992187,18.3820312 Z" id="Shape" fill="#00609C" fill-rule="nonzero"></path>
            </g>
        </g>
    </g>
</svg>