<svg xmlns="http://www.w3.org/2000/svg" width="44" height="44" viewBox="0 0 44 44">
    <g fill="#FFFFFE" fill-rule="evenodd">
        <path d="M21.72 43.843C9.744 43.843 0 34.008 0 21.919 0 9.834 9.743 0 21.72 0c11.978 0 21.721 9.834 21.721 21.919 0 12.089-9.743 21.924-21.72 21.924m0-42.31c-11.133 0-20.184 9.146-20.184 20.386 0 11.242 9.05 20.388 20.184 20.388 11.125 0 20.184-9.146 20.184-20.388 0-11.24-9.059-20.386-20.184-20.386"/>
        <path d="M16.825 22.462c-.384-.131-.81-.23-1.278-.299l-.05-.007h-4.12l-.042.006c-.056.01-.985.129-1.97.745-.488.31-.991.752-1.375 1.375s-.629 1.42-.629 2.378c0 .344.028.71.098 1.097l.056.344.314.152c.063.031 2.116 1.01 5.546 1.01 1.718 0 3.771-.245 6.083-.974l.377-.119.084-.383c.007-.034.084-.388.084-.92 0-.09-.007-.186-.007-.284l-1.355.068c.007.077.007.15.007.217 0 .2-.014.367-.028.48l-.021.125v.028l.656.144-.202-.645c-2.172.686-4.093.912-5.678.912-1.586 0-2.836-.227-3.688-.45a9.555 9.555 0 0 1-.97-.303 6.525 6.525 0 0 1-.238-.095l-.056-.024-.007-.004-.028.062.028-.062-.028.062.028-.062-.293.609.663-.114a5.813 5.813 0 0 1-.077-.871c0-.733.182-1.257.433-1.67.377-.615.964-.995 1.474-1.217a4.179 4.179 0 0 1 .845-.263l.042-.008h.007l-.028-.202.028.202-.028-.202.028.202-.091-.67v.675h4.03v-.675l-.098.668c.398.058.74.14 1.04.242l.434-1.28zm2.165-4.23c.09-.432.133-.88.133-1.34 0-1.697-.615-3.245-1.635-4.376-1.012-1.13-2.444-1.85-4.037-1.848-1.585-.001-3.017.718-4.03 1.848-1.02 1.131-1.634 2.678-1.634 4.376 0 1.697.615 3.245 1.635 4.376 1.012 1.13 2.444 1.85 4.03 1.85 1.375 0 2.632-.538 3.603-1.415l-.908-1.003c-.747.674-1.676 1.065-2.696 1.066-1.166 0-2.234-.524-3.024-1.402-.789-.878-1.292-2.105-1.292-3.472 0-1.368.503-2.595 1.292-3.472.79-.877 1.858-1.4 3.024-1.401 1.174 0 2.242.524 3.032 1.401.789.877 1.292 2.104 1.292 3.472 0 .371-.042.732-.105 1.077l1.32.263zm4.484 8.82c.014.428.07.705.076.735l.084.383.37.119c2.32.729 4.373.974 6.09.974 3.43 0 5.476-.979 5.546-1.01l.314-.152.056-.344c.07-.388.098-.753.098-1.098 0-.957-.245-1.755-.629-2.377-.58-.936-1.417-1.459-2.095-1.75-.677-.292-1.208-.364-1.25-.37l-.042-.006h-4.12l-.05.007c-.188.028-.446.072-.705.121-.258.05-.503.102-.698.16l.384 1.294c.098-.03.335-.082.566-.127.237-.045.488-.087.65-.11l-.099-.67v.676h4.023v-.675l-.084.67.007-.05-.007.05.007-.05-.007.05c.042.004.804.133 1.488.591.342.228.663.53.908.935.237.407.398.922.405 1.631 0 .263-.028.554-.077.872l.664.114-.294-.61.035.069-.035-.068.035.068-.035-.068c-.056.024-1.892.876-4.958.876-1.586 0-3.506-.226-5.678-.912l-.203.645.656-.144-.027.007.027-.006-.027.006.027-.006a2.774 2.774 0 0 1-.048-.496l-1.348.046zm2.884-5.4c.978.907 2.256 1.466 3.653 1.465 1.592.001 3.024-.718 4.037-1.849 1.02-1.131 1.634-2.679 1.634-4.376 0-1.698-.615-3.245-1.634-4.376-1.013-1.13-2.445-1.85-4.037-1.848-1.586-.001-3.017.718-4.03 1.848-1.02 1.131-1.634 2.678-1.634 4.376 0 .32.042.802.076 1.081l1.341-.171c-.027-.212-.07-.72-.07-.91 0-1.368.503-2.595 1.293-3.472.789-.877 1.857-1.4 3.024-1.401 1.173 0 2.242.524 3.03 1.401.79.877 1.293 2.104 1.293 3.472 0 1.367-.503 2.594-1.292 3.472-.79.878-1.858 1.401-3.031 1.402-1.034 0-1.977-.407-2.731-1.105l-.922.991zm-2.647 6.28v-.676H19.64l-.042.007c-.055.01-.984.128-1.97.745-.488.31-.99.753-1.375 1.376-.384.621-.629 1.42-.629 2.376 0 .345.028.71.098 1.098l.056.344.314.151c.063.032 2.124 1.01 5.553 1.011 1.71 0 3.764-.245 6.076-.974l.377-.118.084-.385c.007-.034.084-.388.084-.916-.007-.699-.133-1.724-.782-2.68-.643-.96-1.83-1.772-3.681-2.028l-.042-.007h-.049v.676l-.098.669c1.565.232 2.32.822 2.76 1.452.432.632.537 1.383.537 1.918 0 .2-.014.367-.028.48l-.014.126-.007.027.656.142-.202-.645c-2.172.686-4.086.912-5.671.912-1.586 0-2.843-.227-3.695-.45a10.17 10.17 0 0 1-.97-.303c-.105-.04-.182-.074-.238-.095l-.049-.025-.014-.005-.035.07.035-.069-.035.069.035-.069-.293.608.663-.112a5.813 5.813 0 0 1-.077-.872c.007-.732.182-1.257.433-1.67.378-.615.964-.995 1.474-1.217a4.432 4.432 0 0 1 .845-.263l.042-.007.014-.002-.035-.2.028.201h.007l-.035-.201.028.201-.084-.67v.676h4.023v-.676l-.098.669.098-.669zm-1.99-11.488v-.676c-1.593 0-3.024.719-4.037 1.849-1.02 1.131-1.634 2.678-1.634 4.376 0 1.696.614 3.243 1.634 4.375 1.013 1.13 2.444 1.85 4.037 1.85 1.585 0 3.017-.72 4.03-1.85 1.02-1.132 1.634-2.679 1.634-4.375 0-1.698-.615-3.245-1.635-4.376-1.012-1.13-2.444-1.85-4.03-1.849v1.351c1.167.002 2.236.524 3.025 1.402.789.877 1.292 2.105 1.292 3.472 0 1.366-.503 2.593-1.292 3.471-.79.878-1.858 1.402-3.024 1.403-1.174-.001-2.242-.525-3.031-1.403-.79-.878-1.293-2.105-1.293-3.471 0-1.367.503-2.595 1.293-3.472.789-.878 1.857-1.4 3.03-1.402v-.675z"/>
    </g>
</svg>
