<?xml version="1.0" encoding="UTF-8"?>
<svg width="30px" height="30px" viewBox="0 0 30 30" version="1.1" xmlns="http://www.w3.org/2000/svg" xmlns:xlink="http://www.w3.org/1999/xlink">
    <title>simple-line-icons:size-fullscreen</title>
    <g id="B2B-Audiología-Configurador" stroke="none" stroke-width="1" fill="none" fill-rule="evenodd">
        <g id="D-Audífonos-Configurador2" transform="translate(-796.000000, -417.000000)">
            <g id="simple-line-icons:size-fullscreen" transform="translate(796.000000, 417.000000)">
                <rect id="ViewBox" x="0" y="0" width="30" height="29.0909091"></rect>
                <path d="M19.9431818,10.8806818 L27.7556818,3.125 L27.7272727,7.52840909 C27.7272727,7.69886364 27.7935606,7.85511364 27.9261364,7.99715909 C28.0587121,8.13920455 28.2102273,8.21022727 28.3806818,8.21022727 L28.8636364,8.21022727 C29.0530303,8.19128788 29.2092803,8.12973485 29.3323864,8.02556818 C29.4554924,7.92140152 29.5265152,7.78409091 29.5454545,7.61363636 L29.5454545,1.05113636 L29.53125,1.03693182 L29.5170455,1.02272727 L29.5738636,0.681818182 C29.5738636,0.492424242 29.5170455,0.340909091 29.4034091,0.227272727 C29.2708333,0.0946969697 29.1193182,0.0284090909 28.9488636,0.0284090909 L28.6079545,0.0568181818 L28.5795455,0.0568181818 L22.0738636,0.0284090909 C21.9791667,0.0284090909 21.8892045,0.0473484848 21.8039773,0.0852272727 C21.71875,0.123106061 21.6477273,0.170454545 21.5909091,0.227272727 C21.5340909,0.284090909 21.4867424,0.355113636 21.4488636,0.440340909 C21.4109848,0.525568182 21.3920455,0.615530303 21.3920455,0.710227273 L21.3920455,1.16477273 C21.4109848,1.37310606 21.4962121,1.53882576 21.6477273,1.66193182 C21.7992424,1.78503788 21.969697,1.84659091 22.1590909,1.84659091 L26.4488636,1.84659091 L18.6647727,9.60227273 C18.4753788,9.77272727 18.3806818,9.98579545 18.3806818,10.2414773 C18.3806818,10.4971591 18.4753788,10.7102273 18.6647727,10.8806818 C18.9867424,11.2215909 19.3560606,11.2689394 19.7727273,11.0227273 C19.8295455,10.9659091 19.8863636,10.9185606 19.9431818,10.8806818 Z M10.0852273,18.2102273 L2.27272727,25.9659091 L2.30113636,21.5625 C2.30113636,21.3920455 2.23484848,21.2357955 2.10227273,21.09375 C1.96969697,20.9517045 1.81818182,20.8806818 1.64772727,20.8806818 L1.13636364,20.8806818 C1.06060606,20.8996212 0.980113636,20.9232955 0.894886364,20.9517045 C0.809659091,20.9801136 0.733901515,21.0179924 0.667613636,21.0653409 C0.601325758,21.1126894 0.553977273,21.1742424 0.525568182,21.25 C0.497159091,21.3257576 0.473484848,21.4015152 0.454545455,21.4772727 L0.454545455,28.0397727 L0.46875,28.0539773 L0.482954545,28.0681818 L0.426136364,28.4090909 C0.426136364,28.5037879 0.440340909,28.5890152 0.46875,28.6647727 C0.497159091,28.7405303 0.539772727,28.8068182 0.596590909,28.8636364 C0.729166667,28.9962121 0.880681818,29.0625 1.05113636,29.0625 L1.39204545,29.0340909 L1.42045455,29.0340909 L7.95454545,29.0625 C8.14393939,29.0625 8.30492424,28.9962121 8.4375,28.8636364 C8.57007576,28.7310606 8.63636364,28.5700758 8.63636364,28.3806818 L8.63636364,27.9261364 C8.61742424,27.717803 8.53219697,27.5520833 8.38068182,27.4289773 C8.22916667,27.3058712 8.05871212,27.2443182 7.86931818,27.2443182 L3.57954545,27.2443182 L11.3636364,19.4886364 C11.4583333,19.3939394 11.5293561,19.2945076 11.5767045,19.1903409 C11.624053,19.0861742 11.6477273,18.9725379 11.6477273,18.8494318 C11.6477273,18.7263258 11.624053,18.6079545 11.5767045,18.4943182 C11.5293561,18.3806818 11.4583333,18.2859848 11.3636364,18.2102273 C11.25,18.0965909 11.1174242,18.0160985 10.9659091,17.96875 C10.8143939,17.9214015 10.6581439,17.9214015 10.4971591,17.96875 C10.3361742,18.0160985 10.1988636,18.0965909 10.0852273,18.2102273 Z M29.5454545,28.0397727 L29.5454545,21.4772727 C29.5265152,21.3068182 29.4554924,21.1695076 29.3323864,21.0653409 C29.2092803,20.9611742 29.0530303,20.8996212 28.8636364,20.8806818 L28.3806818,20.8806818 C28.2102273,20.8806818 28.0587121,20.9469697 27.9261364,21.0795455 C27.7935606,21.2121212 27.7272727,21.3731061 27.7272727,21.5625 L27.7556818,25.9659091 L19.9431818,18.2102273 C19.8295455,18.0965909 19.6922348,18.0160985 19.53125,17.96875 C19.3702652,17.9214015 19.2140152,17.9214015 19.0625,17.96875 C18.9109848,18.0160985 18.7784091,18.0965909 18.6647727,18.2102273 C18.4753788,18.3806818 18.3806818,18.59375 18.3806818,18.8494318 C18.3806818,19.1051136 18.4753788,19.3181818 18.6647727,19.4886364 L26.4488636,27.2443182 L22.1590909,27.2443182 C22.0265152,27.2443182 21.9081439,27.2679924 21.8039773,27.3153409 C21.6998106,27.3626894 21.6098485,27.4431818 21.5340909,27.5568182 C21.4583333,27.6704545 21.4109848,27.7935606 21.3920455,27.9261364 L21.3920455,28.3806818 C21.3920455,28.5132576 21.4251894,28.6316288 21.4914773,28.7357955 C21.5577652,28.8399621 21.6382576,28.9204545 21.7329545,28.9772727 C21.8276515,29.0340909 21.9412879,29.0625 22.0738636,29.0625 L28.5795455,29.0340909 L28.6079545,29.0340909 L28.9488636,29.0625 C29.1193182,29.0625 29.2708333,28.9962121 29.4034091,28.8636364 C29.5170455,28.75 29.5738636,28.5984848 29.5738636,28.4090909 L29.5170455,28.0681818 L29.5454545,28.0681818 L29.5454545,28.0397727 Z M3.57954545,1.84659091 L7.86931818,1.84659091 C8.05871212,1.84659091 8.22916667,1.78503788 8.38068182,1.66193182 C8.53219697,1.53882576 8.61742424,1.37310606 8.63636364,1.16477273 L8.63636364,0.710227273 C8.63636364,0.520833333 8.57007576,0.359848485 8.4375,0.227272727 C8.30492424,0.0946969697 8.14393939,0.0284090909 7.95454545,0.0284090909 L1.42045455,0.0568181818 L1.39204545,0.0568181818 L1.05113636,0.0284090909 C0.880681818,0.0284090909 0.729166667,0.0946969697 0.596590909,0.227272727 C0.539772727,0.284090909 0.497159091,0.350378788 0.46875,0.426136364 C0.440340909,0.501893939 0.426136364,0.587121212 0.426136364,0.681818182 L0.482954545,1.02272727 L0.46875,1.02272727 L0.454545455,1.05113636 L0.454545455,7.61363636 C0.473484848,7.78409091 0.544507576,7.92140152 0.667613636,8.02556818 C0.790719697,8.12973485 0.946969697,8.19128788 1.13636364,8.21022727 L1.64772727,8.21022727 C1.76136364,8.21022727 1.87026515,8.17708333 1.97443182,8.11079545 C2.07859848,8.04450758 2.15909091,7.9592803 2.21590909,7.85511364 C2.27272727,7.75094697 2.30113636,7.64204545 2.30113636,7.52840909 L2.27272727,3.125 L10.0852273,10.8806818 C10.2556818,11.0700758 10.46875,11.1647727 10.7244318,11.1647727 C10.9801136,11.1647727 11.1979167,11.0748106 11.3778409,10.8948864 C11.5577652,10.7149621 11.6477273,10.4971591 11.6477273,10.2414773 C11.6477273,9.98579545 11.5530303,9.77272727 11.3636364,9.60227273 L3.57954545,1.84659091 Z" id="Shape" fill="#00609C" fill-rule="nonzero"></path>
            </g>
        </g>
    </g>
</svg>