<svg width="59" height="39" viewBox="0 0 59 39" xmlns="http://www.w3.org/2000/svg">
    <g fill="none" fill-rule="evenodd">
        <path d="M7.712 38.03.029 30.346l7.683-7.683 7.683 7.683z"/>
        <path fill="#000" fill-rule="nonzero" d="M9.953 31.76v-.905H7.204v-2.749H6.3v3.654z"/>
        <path d="M58.854 30.347 51.17 38.03l-7.683-7.683 7.683-7.683z"/>
        <path fill="#000" fill-rule="nonzero" d="M52.584 28.106h-.905v2.749H48.93v.905h3.654z"/>
        <path d="M.03 7.712 7.711.029l7.683 7.683-7.683 7.683z"/>
        <path fill="#000" fill-rule="nonzero" d="M6.299 9.953h.905V7.204h2.749V6.3H6.299z"/>
        <g>
            <path d="m51.171.03 7.683 7.682-7.683 7.683-7.683-7.683z"/>
            <path fill="#000" fill-rule="nonzero" d="M48.93 6.299v.905h2.749v2.749h.905V6.299z"/>
        </g>
        <g fill="#000" fill-rule="nonzero">
            <path d="M51.821 12.372a1.856 1.856 0 0 0-2.08.421l-7.151 7.278c-.567-3.116-3.252-5.484-6.474-5.484-3.074 0-5.655 2.156-6.38 5.057a4.66 4.66 0 0 0-3.384-1.459 4.651 4.651 0 0 0-3.382 1.463c-.627-2.516-2.648-4.467-5.18-4.944l3.288-3.345a.787.787 0 0 1 .892-.181.81.81 0 0 1 .506.77.55.55 0 0 0 .545.555.55.55 0 0 0 .545-.555c0-.8-.452-1.49-1.178-1.795a1.857 1.857 0 0 0-2.08.42L16.351 14.6C12.829 14.73 10 17.677 10 21.293 10 24.991 12.956 28 16.59 28c3.633 0 6.588-3.008 6.588-6.707 0-.052-.006-.104-.007-.157.039-.034.078-.068.107-.114a3.601 3.601 0 0 1 3.074-1.728c1.333 0 2.537.734 3.178 1.918 0 .027-.004.053-.004.08 0 3.699 2.956 6.708 6.59 6.708 3.553 0 6.45-2.88 6.577-6.465l7.818-7.957a.786.786 0 0 1 .893-.181.811.811 0 0 1 .505.77.55.55 0 0 0 .546.555.55.55 0 0 0 .545-.555c0-.8-.451-1.488-1.178-1.795zM16.59 15.697c.797 0 1.553.177 2.237.489l-7.255 7.384a5.639 5.639 0 0 1-.48-2.277c-.001-3.086 2.466-5.596 5.498-5.596zm-4.756 8.391 7.503-7.636a5.578 5.578 0 0 1 1.658 1.504l-7.684 7.82a5.587 5.587 0 0 1-1.477-1.687zm4.756 2.802a5.39 5.39 0 0 1-2.817-.799l7.53-7.665c.496.84.786 1.818.786 2.867 0 3.086-2.466 5.597-5.499 5.597zm19.526-11.194c.835 0 1.624.196 2.334.537l-7.306 7.435a5.64 5.64 0 0 1-.527-2.375c0-3.086 2.468-5.597 5.5-5.597zm-4.702 8.482 7.538-7.671a5.57 5.57 0 0 1 1.63 1.533l-7.662 7.798a5.587 5.587 0 0 1-1.506-1.66zm4.702 2.712a5.384 5.384 0 0 1-2.728-.745l7.496-7.63c.462.82.73 1.767.73 2.778.001 3.086-2.465 5.597-5.498 5.597z"/>
        </g>
    </g>
</svg>
