<svg xmlns="http://www.w3.org/2000/svg" width="24" height="24" viewBox="0 0 24 24">
    <g fill="none" fill-rule="evenodd">
        <g fill="#00609C" fill-rule="nonzero">
            <g>
                <g>
                    <path d="M21.958 10.726c-.286-2.53-1.525-4.857-3.465-6.506-1.537-1.355-3.459-2.198-5.497-2.413-.08 0-.248.034-.248.185V7.06c.031.32-.133.627-.416.78-.322.177-.719.153-1.016-.064-.236-.175-.363-.46-.335-.75V2.002c0-.162-.173-.208-.26-.196-4.704.55-8.405 4.276-8.922 8.982-.006.054.01.108.045.15.035.041.086.067.14.07h5.134c.138 0 .274.032.398.092.355.209.52.634.399 1.027-.087.382-.435.648-.826.63H1.984c-.055-.003-.108.02-.144.061-.036.042-.051.098-.04.152.526 4.735 4.27 8.471 9.008 8.988.063 0 .19 0 .19-.202v-5.04c-.015-.3.125-.587.371-.76.246-.174.564-.209.842-.094.371.111.613.469.577.855v5.068c-.004.055.02.108.062.142.042.035.1.046.152.031 2.817-.306 5.375-1.786 7.045-4.075 1.06-1.416 1.719-3.09 1.905-4.85 0-.092 0-.282-.185-.282h-5.07c-.364.03-.702-.194-.814-.543-.118-.273-.089-.589.078-.836.168-.247.45-.39.748-.382h5.07c.22 0 .19-.19.179-.283M12.245 0l.78.063c1.381.129 2.728.502 3.978 1.103 3.9 1.855 6.481 5.683 6.74 9.993.061 1.141-.04 2.286-.301 3.4-.762 3.313-2.909 6.14-5.896 7.764-1.306.717-2.74 1.174-4.22 1.345-2.12.267-4.272-.049-6.226-.912-1.405-.61-2.676-1.492-3.736-2.598-1.62-1.652-2.716-3.747-3.147-6.02-.163-.849-.235-1.712-.213-2.575C.119 7.36 2.444 3.53 6.119 1.489 7.479.721 8.983.236 10.536.063c.306-.028.612-.04.918-.063.035.005.07.005.104 0h.687z" transform="translate(-42 -230) translate(-2) translate(44 230)"/>
                </g>
            </g>
        </g>
    </g>
</svg>
