<svg xmlns="http://www.w3.org/2000/svg" width="27" height="21" viewBox="0 0 27 21">
    <g fill="none" fill-rule="evenodd">
        <g fill="#00609C" fill-rule="nonzero">
            <g>
                <g>
                    <path d="M12.897 9.613v.772c.053 1.104.258 2.195.609 3.245.275.915.74 1.763 1.368 2.491 1.046 1.127 2.034.845 2.299.705.173-.091.335-.2.482-.327.507-.451.9-1.01 1.15-1.634.498-1.185.766-2.45.793-3.73.053-1.195-.06-2.392-.333-3.557-.244-1.052-.685-2.051-1.3-2.947-.308-.496-.739-.909-1.252-1.2-.25-.159-.55-.226-.845-.192-.48.07-.921.296-1.253.643-.465.514-.826 1.11-1.063 1.758-.476 1.271-.702 2.62-.667 3.973m.07 6.153c-.879-1.72-1.354-3.61-1.392-5.533-.112-1.902.212-3.805.949-5.568 0-.068.063-.186-.127-.135-.574.175-1.178.372-1.764.563-2.966.924-6.178 1.871-9.144 2.818-.184.056-.184.056-.167.253.04.564.08 1.297.121 1.843.069.936.132 2.063.201 2.998 0 .287 0 .287.31.355 3.328.795 6.897 1.572 10.236 2.367.224.056.449.095.69.163.241.068.115-.056.086-.101M.494 6.897c.753-.282 1.535-.48 2.3-.716l11.78-3.691c.265-.079.518-.203.783-.26.882-.192 1.807.015 2.517.564.706.536 1.28 1.222 1.678 2.006.515.968.876 2.008 1.069 3.083.165.832.25 1.677.253 2.524.056 1.69-.27 3.372-.954 4.925-.335.785-.855 1.48-1.517 2.029-.575.44-1.29.665-2.018.637-.726-.112-1.444-.27-2.15-.474l-6.792-1.617c-1.857-.445-5.282-1.274-6.506-1.56-.35-.08-.454-.204-.489-.632-.063-.823-.224-2.975-.304-4.057C.109 9.19 0 8.362 0 7.77c0-.592.155-.744.494-.873M23.137 0c.185.052.351.166.475.327.106.13.159.305.146.48-.013.176-.09.338-.213.448-.489.49-.984.971-1.487 1.445-.19.17-.442.224-.675.143-.232-.08-.413-.285-.481-.544-.065-.258.019-.533.211-.694L22.4.361c.146-.16.322-.284.516-.361h.222zM24.806 9.36h1.058c.257-.01.501.11.646.313.145.205.17.466.067.692-.088.264-.346.44-.634.435h-2.19c-.362.01-.669-.256-.696-.603-.082-.356.142-.71.51-.804.174-.016.35-.016.526 0h.713M21.65 17.293c.1.034.195.081.284.14.516.424.996.848 1.49 1.283.255.179.383.52.32.853-.056.25-.217.453-.43.543-.214.089-.452.053-.637-.096-.444-.424-.96-.818-1.408-1.235-.08-.063-.152-.136-.217-.218-.183-.222-.224-.552-.103-.823.137-.295.41-.473.701-.46" transform="translate(-40 -356) translate(-2) translate(42 356)"/>
                </g>
            </g>
        </g>
    </g>
</svg>
