<?xml version="1.0" encoding="utf-8"?>
<!-- Generator: Adobe Illustrator 16.0.0, SVG Export Plug-In . SVG Version: 6.00 Build 0)  -->
<!DOCTYPE svg PUBLIC "-//W3C//DTD SVG 1.1//EN" "http://www.w3.org/Graphics/SVG/1.1/DTD/svg11.dtd">
<svg version="1.1" id="Capa_1" xmlns="http://www.w3.org/2000/svg" xmlns:xlink="http://www.w3.org/1999/xlink" x="0px" y="0px"
	 width="44px" height="44px" viewBox="0 0 44 44" enable-background="new 0 0 44 44" xml:space="preserve">
<g id="XMLID_7_">
	<g id="XMLID_11_">
		<path id="XMLID_16_" fill="#FFFFFF" d="M14.147,10.37c0,0-0.876-0.976-2.381-0.07l-2.173,1.773c0,0-1.21,0.853-1.029,2.438
			c0,0,2.118,8.623,7.936,13.214s13.265,6.191,13.265,6.191s1.308,0.326,2.841-0.703l2.172-1.771c0,0,1.042-0.862,0.062-2.062
			l-4.623-4.246c0,0-0.89-0.955-2.38-0.069l-2.172,1.771c0,0-0.227,0.373-1.017,0.057c0,0-6.021-3.472-8.267-7.512
			c0,0-0.258-0.595,0.154-0.932l2.173-1.772c0,0,1.121-0.731,0.06-2.062L14.147,10.37z"/>
		<path id="XMLID_15_" opacity="0.05" fill="#FFFFFF" d="M19.457,23.065c-1.201-1.1-2.342-2.36-3.076-3.684
			c0,0-0.258-0.595,0.154-0.932l2.173-1.772c0,0,1.121-0.731,0.06-2.062l-4.62-4.246c0,0-0.876-0.976-2.381-0.07l-2.173,1.773
			c0,0-1.21,0.853-1.029,2.438c0,0,0.834,3.398,2.895,7.064c1.878,1.017,4.027,1.596,6.312,1.596
			C18.341,23.172,18.903,23.135,19.457,23.065z"/>
	</g>
	<path id="XMLID_18_" opacity="0.05" fill="#FFFFFF" d="M21.902,0.212c-9.171,0-17.032,5.712-20.216,13.763
		c0.535,0.901,1.142,1.752,1.814,2.549C5.845,8.577,13.207,2.76,21.902,2.76c5.577,0,10.607,2.395,14.114,6.208
		c0.25-1.001,0.42-2.033,0.502-3.091C32.656,2.36,27.524,0.212,21.902,0.212z"/>
	<path id="XMLID_46_" fill="#FFFFFF" d="M21.902,0.212C9.921,0.212,0.174,9.959,0.174,21.94c0,3.934,1.054,7.626,2.889,10.813
		l-2.885,10.77l10.701-2.868c3.233,1.913,7.002,3.013,11.023,3.013c11.979,0.001,21.729-9.746,21.729-21.728
		C43.631,9.959,33.882,0.212,21.902,0.212z M21.902,41.121c-3.569,0-6.913-0.979-9.78-2.686l0.018,0.017
		c-0.373-0.222-0.738-0.453-1.096-0.698l-6.962,1.865l1.879-7.01c-0.201-0.298-0.392-0.602-0.574-0.91l0.021,0.02
		c-1.706-2.865-2.686-6.209-2.686-9.778c0-10.576,8.604-19.181,19.181-19.181s19.181,8.604,19.181,19.181
		C41.083,32.518,32.479,41.121,21.902,41.121z"/>
</g>
</svg>
