<svg xmlns="http://www.w3.org/2000/svg" width="61" height="78" viewBox="0 0 61 78">
    <g fill="#00609C" fill-rule="evenodd">
        <path d="M54.716 75.815v-1.613H5.646a2.423 2.423 0 0 1-2.42-2.419V22.138c0-.642.254-1.257.71-1.713l16.49-16.489a2.425 2.425 0 0 1 1.711-.71h32.579a2.423 2.423 0 0 1 2.419 2.421v66.136a2.423 2.423 0 0 1-2.419 2.419v3.227a5.647 5.647 0 0 0 5.645-5.646V5.647A5.646 5.646 0 0 0 54.716 0H22.137a5.648 5.648 0 0 0-3.991 1.654L1.654 18.145A5.644 5.644 0 0 0 0 22.138v49.645a5.647 5.647 0 0 0 5.646 5.646h49.07v-1.614"/>
        <path d="M19.342 9.585v6.85a2.423 2.423 0 0 1-2.419 2.419h-6.849a1.613 1.613 0 1 0 0 3.226h6.849a5.647 5.647 0 0 0 5.646-5.645v-6.85a1.614 1.614 0 0 0-3.227 0M43.712 31.09H16.649a1.613 1.613 0 1 0 0 3.226h27.063a1.613 1.613 0 1 0 0-3.226M43.712 40.923H16.649a1.613 1.613 0 1 0 0 3.226h27.063a1.613 1.613 0 1 0 0-3.226M36.947 50.754H23.415a1.613 1.613 0 1 0 0 3.226h13.532a1.613 1.613 0 1 0 0-3.226"/>
    </g>
</svg>
