<?xml version="1.0" encoding="UTF-8"?>
<svg width="51px" height="64px" viewBox="0 0 51 64" version="1.1" xmlns="http://www.w3.org/2000/svg" xmlns:xlink="http://www.w3.org/1999/xlink">
    <!-- Generator: sketchtool 58 (101010) - https://sketch.com -->
    <title>EB805756-BB42-4955-8FAE-5DF4711A9CAE</title>
    <desc>Created with sketchtool.</desc>
    <g id="Page-1" stroke="none" stroke-width="1" fill="none" fill-rule="evenodd">
        <g id="D-Com-Actualidad-4" transform="translate(-1693.000000, -832.000000)" fill="#00609C">
            <g id="Group-20" transform="translate(1693.000000, 832.000000)">
                <path d="M48.91,46.763 C48.91,47.214 48.55,47.583 48.1,47.583 L16.36,47.583 C15.91,47.583 15.54,47.215 15.54,46.763 L15.54,2.546 C15.54,2.093 15.91,1.726 16.36,1.726 L36.54,1.726 L36.54,13.708 L48.91,13.708 L48.91,46.763 Z M42.01,53.67 C42.01,54.121 41.64,54.488 41.19,54.488 L9.45,54.488 C9,54.488 8.63,54.121 8.63,53.67 L8.63,9.45 C8.63,9 9,8.631 9.45,8.631 L13.81,8.631 L13.81,46.763 C13.81,48.168 14.95,49.308 16.36,49.308 L42.01,49.308 L42.01,53.67 Z M35.1,60.575 C35.1,61.025 34.74,61.393 34.29,61.393 L2.55,61.393 C2.09,61.393 1.73,61.025 1.73,60.575 L1.73,16.355 C1.73,15.905 2.09,15.538 2.55,15.538 L6.91,15.538 L6.91,53.67 C6.91,55.073 8.05,56.214 9.45,56.214 L35.1,56.214 L35.1,60.575 Z M38.27,2.947 L47.3,11.981 L38.27,11.981 L38.27,2.947 Z M37.76,-5.32907052e-14 L16.36,0.001 C14.95,0.001 13.81,1.141 13.81,2.546 L13.81,6.906 L9.45,6.906 C8.05,6.906 6.91,8.047 6.91,9.45 L6.91,13.811 L2.55,13.811 C1.14,13.811 -3.41060513e-13,14.953 -3.41060513e-13,16.355 L-3.41060513e-13,60.575 C-3.41060513e-13,61.979 1.14,63.12 2.55,63.12 L34.29,63.12 C35.69,63.12 36.83,61.978 36.83,60.575 L36.83,56.214 L41.19,56.214 C42.59,56.214 43.73,55.073 43.73,53.67 L43.73,49.308 L48.1,49.308 C49.5,49.308 50.64,48.168 50.64,46.763 L50.64,12.877 L37.76,-5.32907052e-14 L37.76,-5.32907052e-14 Z" id="Fill-161"></path>
                <path d="M43.13,18.037 L21.32,18.037 C20.84,18.037 20.46,18.424 20.46,18.9 C20.46,19.377 20.84,19.764 21.32,19.764 L43.13,19.763 C43.61,19.763 44,19.377 44,18.9 C44,18.424 43.61,18.037 43.13,18.037" id="Fill-162"></path>
                <path d="M43.13,23.878 L21.32,23.878 C20.84,23.878 20.46,24.264 20.46,24.741 C20.46,25.217 20.84,25.604 21.32,25.604 L43.13,25.604 C43.61,25.604 44,25.217 44,24.74 C44,24.264 43.61,23.878 43.13,23.878" id="Fill-163"></path>
                <path d="M43.13,29.717 L21.32,29.717 C20.84,29.717 20.46,30.104 20.46,30.581 C20.46,31.057 20.84,31.444 21.32,31.444 L43.13,31.444 C43.61,31.444 44,31.057 44,30.581 C44,30.104 43.61,29.717 43.13,29.717" id="Fill-164"></path>
                <path d="M43.01,35.56 L21.32,35.56 C20.84,35.56 20.46,35.946 20.46,36.423 C20.46,36.899 20.84,37.286 21.32,37.286 L43.01,37.286 C43.49,37.286 43.88,36.899 43.88,36.423 C43.88,35.946 43.49,35.56 43.01,35.56" id="Fill-165"></path>
                <path d="M43.01,41.401 L21.32,41.401 C20.84,41.401 20.46,41.787 20.46,42.263 C20.46,42.74 20.84,43.127 21.32,43.127 L43.01,43.127 C43.49,43.127 43.88,42.74 43.88,42.263 C43.88,41.787 43.49,41.401 43.01,41.401" id="Fill-166"></path>
            </g>
        </g>
    </g>
</svg>