<svg xmlns="http://www.w3.org/2000/svg" width="98" height="68" viewBox="0 0 98 68">
    <g fill="#00609C" fill-rule="evenodd">
        <path d="M68.89 32.155h14.76V29l-4.63-5.561H68.89v8.716zm16.3 3.084H67.35c-.85 0-1.54-.691-1.54-1.542v-11.8c0-.852.69-1.542 1.54-1.542h12.39c.46 0 .9.203 1.19.555l5.44 6.547c.23.277.36.625.36.987v5.253c0 .851-.69 1.542-1.54 1.542zM54.14 35.239H8.15a1.55 1.55 0 0 1-1.55-1.542c0-.852.7-1.542 1.55-1.542h45.99a1.541 1.541 0 0 1 0 3.084M27.55 57.412a2.728 2.728 0 0 1-2.73 2.729 2.729 2.729 0 1 1 2.73-2.729M82.41 57.412a2.726 2.726 0 0 1-5.45 0c0-1.507 1.22-2.73 2.72-2.73 1.51 0 2.73 1.223 2.73 2.73"/>
        <path d="M24.82 50.069c-4.05 0-7.35 3.295-7.35 7.343 0 4.049 3.3 7.343 7.35 7.343s7.34-3.294 7.34-7.343c0-4.048-3.29-7.343-7.34-7.343zm0 17.769c-5.75 0-10.43-4.676-10.43-10.426s4.68-10.426 10.43-10.426 10.42 4.676 10.42 10.426-4.67 10.426-10.42 10.426z"/>
        <path d="M58.29 0H3.85A3.86 3.86 0 0 0 0 3.855v48.478a3.86 3.86 0 0 0 3.85 3.855h10.62c.13-1.089.43-2.124.86-3.084H3.85a.774.774 0 0 1-.77-.771V3.855c0-.425.35-.772.77-.772h54.44c.43 0 .78.347.78.772v48.478c0 .425-.35.771-.78.771H34.3c.44.96.74 1.995.87 3.084h23.12c2.13 0 3.86-1.731 3.86-3.855V3.855A3.861 3.861 0 0 0 58.29 0M79.68 50.069c-4.05 0-7.34 3.295-7.34 7.343 0 4.049 3.29 7.343 7.34 7.343s7.35-3.294 7.35-7.343c0-4.048-3.3-7.343-7.35-7.343zm0 17.769c-5.75 0-10.42-4.676-10.42-10.426s4.67-10.426 10.42-10.426 10.43 4.676 10.43 10.426-4.68 10.426-10.43 10.426z"/>
        <path d="M70.2 53.104h-8.13a3.858 3.858 0 0 1-3.78 3.084h11.04c.13-1.089.43-2.124.87-3.084M95.37 28.597l-9.83-12.571a6.32 6.32 0 0 0-4.95-2.413H62.15v3.083h18.44c.98 0 1.92.46 2.52 1.229l9.83 12.57c.71.906 1.1 2.037 1.1 3.186v18.652c0 .425-.35.771-.77.771h-4.1c.44.96.74 1.995.86 3.084h3.24a3.86 3.86 0 0 0 3.85-3.855V33.681c0-1.834-.62-3.641-1.75-5.084"/>
    </g>
</svg>
