<svg xmlns="http://www.w3.org/2000/svg" width="61" height="80" viewBox="0 0 61 80">
    <g fill="#00609C" fill-rule="evenodd">
        <path d="M37.215 7.895h8.168a1.655 1.655 0 0 0 0-3.311h-8.168a1.656 1.656 0 0 0 0 3.311M21.955 7.895h8.393a1.655 1.655 0 0 0 0-3.311h-8.393a1.656 1.656 0 0 0 0 3.311"/>
        <path d="M52.086 7.895h3.067c1.233.002 2.231 1 2.233 2.233V73.91a2.236 2.236 0 0 1-2.233 2.233H5.544a2.237 2.237 0 0 1-2.233-2.233V10.128a2.237 2.237 0 0 1 2.233-2.233h9.769a1.655 1.655 0 0 0 0-3.31l-9.769-.001A5.546 5.546 0 0 0 0 10.128V73.91a5.546 5.546 0 0 0 5.544 5.544h49.609a5.544 5.544 0 0 0 5.544-5.544V10.128a5.545 5.545 0 0 0-5.544-5.544h-3.067a1.656 1.656 0 0 0 0 3.311"/>
        <path d="M13.658 1.656v10.285a1.655 1.655 0 0 0 3.31 0V1.656a1.656 1.656 0 1 0-3.31 0M28.693 1.656v10.285a1.655 1.655 0 0 0 3.31 0V1.656a1.656 1.656 0 1 0-3.31 0M43.728 1.656v10.285a1.655 1.655 0 0 0 3.31 0V1.656a1.656 1.656 0 1 0-3.31 0M15.313 35.028H45.02a1.655 1.655 0 0 0 0-3.311H15.313a1.655 1.655 0 0 0 0 3.311M15.313 45.332H45.02a1.656 1.656 0 0 0 0-3.311H15.313a1.655 1.655 0 0 0 0 3.311M15.313 55.634h19.375a1.655 1.655 0 0 0 0-3.31H15.313a1.655 1.655 0 0 0 0 3.31"/>
    </g>
</svg>
