<svg xmlns="http://www.w3.org/2000/svg" width="100" height="81" viewBox="0 0 100 81">
    <g fill="#00609C" fill-rule="evenodd">
        <path d="M44.735 28.405c-.25 0-.5-.064-.73-.197l-10.88-6.283a1.467 1.467 0 0 1-.69-.895c-.1-.378-.04-.781.16-1.118l3.38-5.742a1.464 1.464 0 0 1 2.52 1.488l-2.63 4.468 8.35 4.82 2.64-4.492a1.47 1.47 0 0 1 2.01-.52c.7.412.93 1.309.52 2.007l-3.38 5.742c-.28.464-.77.722-1.27.722M35.335 52.19a1.785 1.785 0 0 1-2.44.655 1.792 1.792 0 0 1-.66-2.445 1.796 1.796 0 0 1 2.45-.656 1.79 1.79 0 0 1 .65 2.447M41.375 55.677a1.785 1.785 0 0 1-2.44.656 1.793 1.793 0 0 1-.66-2.446 1.789 1.789 0 1 1 3.1 1.79M26.195 46.91c-.49.857-.2 1.953.65 2.447.86.494 1.96.2 2.45-.656.5-.857.2-1.951-.66-2.445a1.788 1.788 0 0 0-2.44.655M45.865 64.035c-3.85 0-6.99 3.135-6.99 6.988 0 3.853 3.14 6.989 6.99 6.989 1.87 0 3.62-.727 4.94-2.047a6.946 6.946 0 0 0 2.05-4.942c0-3.853-3.14-6.988-6.99-6.988zm0 16.907c-5.47-.003-9.92-4.452-9.92-9.92s4.45-9.916 9.92-9.916 9.92 4.448 9.92 9.917c0 2.648-1.04 5.14-2.91 7.013a9.841 9.841 0 0 1-7.01 2.906z"/>
        <path d="M67.655 25.567c-.1-.375-.34-.696-.68-.89L24.575.197a1.46 1.46 0 0 0-2 .536L.195 39.489c-.19.337-.25.736-.14 1.11.1.376.34.696.68.89l34.19 19.743c.69-.77 1.46-1.457 2.29-2.062L3.465 39.685l20.91-36.22 39.87 23.017-17.27 29.9c1.04.08 2.06.274 3.06.568l17.48-30.271c.19-.338.24-.736.14-1.112M32.265 65.52L6.045 50.383a1.466 1.466 0 0 0-2 .536 1.47 1.47 0 0 0 .54 2l26.84 15.5c.18-.98.46-1.95.84-2.897M45.875 64.03c-2.5 0-4.82 1.34-6.07 3.499a6.927 6.927 0 0 0-.69 5.304 6.943 6.943 0 0 0 3.25 4.244c1.07.614 2.27.938 3.49.938 2.49 0 4.82-1.34 6.06-3.497 1.93-3.338.78-7.622-2.56-9.55a6.944 6.944 0 0 0-3.48-.937zm-.02 16.914c-1.73 0-3.44-.46-4.95-1.331a9.807 9.807 0 0 1-4.62-6.021 9.815 9.815 0 0 1 .99-7.528 9.946 9.946 0 0 1 8.6-4.962c1.73 0 3.44.46 4.95 1.33 4.74 2.735 6.36 8.813 3.63 13.55a9.958 9.958 0 0 1-8.6 4.962zM84.235 19.9l.97 3.617 11.14-2.984-.97-3.617-11.14 2.984zm.56 6.676c-1.06 0-2-.72-2.27-1.748l-1.27-4.725a2.362 2.362 0 0 1 1.67-2.883l12.25-3.282a2.353 2.353 0 0 1 2.88 1.665l1.27 4.727c.16.609.08 1.246-.24 1.79s-.82.932-1.43 1.093l-12.25 3.28c-.2.056-.4.083-.61.083z"/>
        <path d="M81.505 21.034l-4.49 1.204a1.49 1.49 0 0 0-.89.68l-21.14 36.62c.8.637 1.53 1.346 2.16 2.116l21.22-36.745 3.9-1.046-.76-2.83"/>
    </g>
</svg>
