<?xml version="1.0" encoding="UTF-8"?>
<svg width="54px" height="47px" viewBox="0 0 54 47" version="1.1" xmlns="http://www.w3.org/2000/svg" xmlns:xlink="http://www.w3.org/1999/xlink">
    <!-- Generator: sketchtool 58 (101010) - https://sketch.com -->
    <title>F986F7B6-31CD-45FC-A98F-F13011BF4323</title>
    <desc>Created with sketchtool.</desc>
    <g id="Page-1" stroke="none" stroke-width="1" fill="none" fill-rule="evenodd">
        <g id="D-Com-Actualidad-4" transform="translate(-1619.000000, -661.000000)" fill="#00609C">
            <g id="Group-15" transform="translate(1619.000000, 661.000000)">
                <path d="M51.96,31.176 L50.8,31.176 C50.8,34.687 49.38,37.855 47.08,40.157 C44.78,42.457 41.61,43.877 38.1,43.877 C34.59,43.877 31.42,42.457 29.12,40.157 C26.82,37.855 25.4,34.687 25.4,31.176 C25.4,27.666 26.82,24.497 29.12,22.195 C31.42,19.895 34.59,18.475 38.1,18.475 C41.61,18.475 44.78,19.895 47.08,22.195 C49.38,24.497 50.8,27.666 50.8,31.176 L53.11,31.176 C53.11,22.886 46.39,16.166 38.1,16.165 C29.81,16.166 23.09,22.886 23.09,31.176 C23.09,39.467 29.81,46.186 38.1,46.187 C46.39,46.186 53.11,39.467 53.11,31.176 L51.96,31.176" id="Fill-131"></path>
                <polygon id="Fill-132" points="36.95 17.32 39.26 17.32 39.26 12.702 36.95 12.702"></polygon>
                <polygon id="Fill-133" points="33.48 13.857 42.72 13.857 42.72 11.547 33.48 11.547"></polygon>
                <polyline id="Fill-134" points="28.53 21.123 25.64 18.236 24.01 19.869 26.89 22.756"></polyline>
                <polyline id="Fill-135" points="23.91 21.6 27.37 18.137 25.74 16.504 22.27 19.967"></polyline>
                <polyline id="Fill-136" points="49.31 22.756 52.2 19.869 50.56 18.236 47.68 21.123"></polyline>
                <polyline id="Fill-137" points="53.93 19.967 50.46 16.504 48.83 18.137 52.29 21.6"></polyline>
                <polygon id="Fill-138" points="36.95 33.486 39.26 33.486 39.26 20.784 36.95 20.784"></polygon>
                <polyline id="Fill-139" points="26.55 43.877 2.31 43.877 2.31 2.31 45.03 2.31 45.03 15.011 47.34 15.011 47.34 2.27373675e-13 -1.70530257e-12 2.27373675e-13 -1.70530257e-12 46.187 26.55 46.187 26.55 43.877"></polyline>
                <polyline id="Fill-140" points="17.32 1.155 16.16 1.155 16.16 8.083 31.17 8.083 31.17 0 16.16 0 16.16 1.155 17.32 1.155 17.32 2.31 28.86 2.31 28.86 5.774 18.47 5.774 18.47 1.155 17.32 1.155 17.32 2.31 17.32 1.155"></polyline>
                <polygon id="Fill-141" points="5.77 41.568 8.08 41.568 8.08 39.259 5.77 39.259"></polygon>
                <polygon id="Fill-142" points="10.39 41.568 12.7 41.568 12.7 39.259 10.39 39.259"></polygon>
            </g>
        </g>
    </g>
</svg>