<?xml version="1.0" encoding="UTF-8"?>
<svg width="46px" height="46px" viewBox="0 0 46 46" version="1.1" xmlns="http://www.w3.org/2000/svg" xmlns:xlink="http://www.w3.org/1999/xlink">
    <!-- Generator: sketchtool 58 (101010) - https://sketch.com -->
    <title>154D5DFA-3B10-4D90-8ED4-792BD4A008BD</title>
    <desc>Created with sketchtool.</desc>
    <g id="Page-1" stroke="none" stroke-width="1" fill="none" fill-rule="evenodd">
        <g id="D-Com-Actualidad-4" transform="translate(-1456.000000, -661.000000)" fill="#00609C">
            <g id="Group-14" transform="translate(1456.000000, 661.000000)">
                <path d="M27.99,42.976 L2.35,42.976 L2.16,42.892 L2.07,42.697 L2.07,11.741 C2.07,11.59 2.21,11.46 2.35,11.46 L42.59,11.46 L42.79,11.544 L42.87,11.741 L42.87,25.202 C42.87,25.775 43.34,26.239 43.91,26.239 C44.48,26.239 44.95,25.775 44.95,25.202 L44.95,11.741 C44.94,10.437 43.89,9.391 42.59,9.386 L2.35,9.386 C1.05,9.389 -1.36424205e-12,10.443 -1.36424205e-12,11.741 L-1.36424205e-12,42.697 C0.01,44.004 1.06,45.044 2.35,45.05 L27.99,45.05 C28.57,45.05 29.03,44.585 29.03,44.013 C29.03,43.44 28.57,42.976 27.99,42.976" id="Fill-121"></path>
                <path d="M2.1,11.016 L7.39,2.698 L7.24,2.603 L7.38,2.718 L7.39,2.697 L7.24,2.603 L7.38,2.718 C7.38,2.712 7.46,2.631 7.59,2.552 C7.79,2.429 8.08,2.295 8.35,2.205 C8.62,2.113 8.89,2.07 8.95,2.074 L35.99,2.074 C36.03,2.072 36.19,2.09 36.36,2.138 C36.63,2.208 36.96,2.338 37.21,2.474 C37.33,2.542 37.44,2.611 37.5,2.662 L37.57,2.717 L37.57,2.721 L37.71,2.596 L37.55,2.696 L37.57,2.721 L37.71,2.596 L37.55,2.696 L37.55,2.698 L42.84,11.016 C43.15,11.5 43.79,11.642 44.27,11.335 C44.76,11.028 44.9,10.387 44.59,9.904 L39.31,1.585 L39.31,1.587 C39.09,1.258 38.85,1.07 38.59,0.891 C38.21,0.631 37.78,0.428 37.34,0.271 C36.89,0.117 36.46,0.005 35.99,-2.66453526e-15 L8.95,-2.66453526e-15 C8.64,0.002 8.35,0.055 8.05,0.131 C7.61,0.247 7.17,0.422 6.75,0.644 C6.55,0.756 6.35,0.879 6.16,1.025 C5.98,1.173 5.8,1.339 5.64,1.586 L0.35,9.903 C0.04,10.387 0.19,11.028 0.67,11.335 C1.15,11.642 1.79,11.5 2.1,11.016" id="Fill-122"></path>
                <path d="M24.57,1.204 L26.08,10.465 L26.08,15.751 L18.86,15.751 L18.86,10.465 L20.37,1.204 C20.47,0.639 20.08,0.106 19.52,0.014 C18.95,-0.079 18.42,0.305 18.33,0.87 L16.8,10.214 L16.79,10.381 L16.79,16.788 C16.79,17.061 16.9,17.328 17.09,17.521 C17.28,17.714 17.55,17.825 17.82,17.825 L27.12,17.825 C27.39,17.825 27.66,17.714 27.85,17.521 C28.04,17.328 28.16,17.061 28.16,16.788 L28.16,10.381 L28.14,10.214 L26.62,0.87 C26.52,0.305 25.99,-0.079 25.43,0.014 C24.86,0.106 24.48,0.639 24.57,1.204" id="Fill-123"></path>
                <path d="M31.8,37.765 L36.84,43.599 C37.05,43.845 37.37,43.977 37.69,43.956 C38.02,43.934 38.31,43.761 38.49,43.489 L45.61,32.606 C45.92,32.126 45.79,31.484 45.31,31.17 C44.83,30.857 44.19,30.991 43.88,31.47 L37.51,41.201 L33.37,36.409 C33,35.976 32.34,35.928 31.91,36.302 C31.47,36.676 31.43,37.331 31.8,37.765" id="Fill-124"></path>
            </g>
        </g>
    </g>
</svg>