<?xml version="1.0" encoding="UTF-8"?>
<svg width="52px" height="52px" viewBox="0 0 52 52" version="1.1" xmlns="http://www.w3.org/2000/svg" xmlns:xlink="http://www.w3.org/1999/xlink">
    <!-- Generator: sketchtool 58 (101010) - https://sketch.com -->
    <title>9CCB35CC-081B-4DDC-8BDF-F63C9A1C2377</title>
    <desc>Created with sketchtool.</desc>
    <g id="Page-1" stroke="none" stroke-width="1" fill="none" fill-rule="evenodd">
        <g id="D-Com-Actualidad-4" transform="translate(-1773.000000, -660.000000)" fill="#00609C">
            <g id="Group-16" transform="translate(1773.000000, 660.000000)">
                <path d="M7.48,31.013 L7.48,20.319 C7.48,15.295 9.51,10.757 12.81,7.463 C16.1,4.172 20.64,2.139 25.66,2.138 C30.69,2.139 35.22,4.172 38.52,7.463 C41.81,10.757 43.84,15.295 43.84,20.319 L43.84,31.013 L45.98,31.013 L45.98,20.319 C45.98,9.096 36.88,0 25.66,0 C14.44,0 5.34,9.096 5.34,20.319 L5.34,31.013 L7.48,31.013" id="Fill-155"></path>
                <path d="M44.91,32.083 L44.91,33.152 L48.12,33.152 C49.89,33.151 51.33,31.715 51.33,29.944 L51.33,23.527 C51.33,21.756 49.89,20.32 48.12,20.319 L43.84,20.319 L43.84,33.152 L44.91,33.152 L44.91,32.083 L45.98,32.083 L45.98,22.458 L48.12,22.458 C48.71,22.459 49.19,22.937 49.19,23.527 L49.19,29.944 C49.19,30.534 48.71,31.012 48.12,31.013 L44.91,31.013 L44.91,32.083 L45.98,32.083 L44.91,32.083" id="Fill-156"></path>
                <path d="M6.41,32.083 L6.41,31.013 L3.2,31.013 C2.61,31.012 2.14,30.533 2.13,29.944 L2.13,23.527 C2.14,22.938 2.61,22.459 3.2,22.458 L5.34,22.458 L5.34,32.083 L6.41,32.083 L6.41,31.013 L6.41,32.083 L7.48,32.083 L7.48,20.319 L3.2,20.319 C1.43,20.32 1.59161573e-12,21.755 1.59161573e-12,23.527 L1.59161573e-12,29.944 C1.59161573e-12,31.716 1.43,33.151 3.2,33.152 L7.48,33.152 L7.48,32.083 L6.41,32.083" id="Fill-157"></path>
                <path d="M31.01,13.902 L29.94,13.902 C29.94,16.564 28.86,18.963 27.12,20.708 C25.38,22.451 22.98,23.526 20.31,23.527 L9.62,23.527 L9.62,35.291 C9.62,44.151 16.8,51.331 25.66,51.332 C34.52,51.331 41.7,44.151 41.7,35.291 L41.7,23.574 L40.74,23.478 C35.88,22.996 32.08,18.893 32.08,13.902 L29.94,13.902 L31.01,13.902 L29.94,13.902 C29.94,20.003 34.58,25.015 40.53,25.607 L40.63,24.543 L39.56,24.543 L39.56,35.291 C39.56,39.134 38.01,42.602 35.49,45.121 C32.97,47.639 29.5,49.192 25.66,49.193 C21.82,49.192 18.35,47.639 15.83,45.121 C13.31,42.602 11.76,39.134 11.76,35.291 L11.76,25.666 L20.31,25.666 C26.81,25.665 32.08,20.4 32.08,13.902 L29.94,13.902 L31.01,13.902" id="Fill-158"></path>
                <path d="M28.87,42.776 L37.43,42.776 C42.15,42.775 45.98,38.947 45.98,34.221 L45.98,32.083 L43.84,32.083 L43.84,34.221 C43.84,35.997 43.13,37.594 41.96,38.758 C40.8,39.921 39.2,40.637 37.43,40.637 L28.87,40.637 L28.87,42.776" id="Fill-159"></path>
                <path d="M28.87,41.707 L29.94,41.707 C29.94,39.344 28.02,37.431 25.66,37.429 C23.3,37.43 21.38,39.344 21.38,41.707 C21.38,44.07 23.3,45.984 25.66,45.985 C28.02,45.984 29.94,44.07 29.94,41.707 L27.8,41.707 C27.8,42.887 26.84,43.844 25.66,43.846 C24.48,43.844 23.52,42.887 23.52,41.707 C23.52,40.528 24.48,39.57 25.66,39.568 C26.84,39.57 27.8,40.528 27.8,41.707 L28.87,41.707" id="Fill-160"></path>
            </g>
        </g>
    </g>
</svg>