<?xml version="1.0" encoding="UTF-8"?>
<svg width="66px" height="54px" viewBox="0 0 66 54" version="1.1" xmlns="http://www.w3.org/2000/svg" xmlns:xlink="http://www.w3.org/1999/xlink">
    <!-- Generator: sketchtool 58 (101010) - https://sketch.com -->
    <title>54E832D4-26B7-4555-A224-FB19AFCA334D</title>
    <desc>Created with sketchtool.</desc>
    <g id="Page-1" stroke="none" stroke-width="1" fill="none" fill-rule="evenodd">
        <g id="D-Com-Actualidad-4" transform="translate(-1526.000000, -837.000000)" fill="#00609C">
            <g id="Group-19" transform="translate(1526.000000, 837.000000)">
                <path d="M29.5996396,18.7965416 C29.4396396,18.7965416 29.2696396,18.7545416 29.1196396,18.6665416 L21.9196396,14.5085416 C21.6896396,14.3795416 21.5296396,14.1665416 21.4596396,13.9165416 C21.3996396,13.6655416 21.4396396,13.3995416 21.5696396,13.1765416 L23.8096396,9.3775416 C24.0796396,8.9165416 24.6696396,8.7615416 25.1296396,9.0335416 C25.5896396,9.3045416 25.7496396,9.8985416 25.4796396,10.3605416 L23.7296396,13.3185416 L29.2596396,16.5065416 L31.0096396,13.5355416 C31.2796396,13.0735416 31.8696396,12.9205416 32.3296396,13.1915416 C32.7996396,13.4635416 32.9496396,14.0575416 32.6796396,14.5195416 L30.4396396,18.3185416 C30.2596396,18.6255416 29.9396396,18.7965416 29.5996396,18.7965416" id="Fill-97"></path>
                <path d="M23.3796396,34.5375416 C23.0596396,35.1025416 22.3296396,35.2965416 21.7696396,34.9705416 C21.1996396,34.6415416 21.0096396,33.9175416 21.3296396,33.3515416 C21.6596396,32.7835416 22.3796396,32.5915416 22.9496396,32.9185416 C23.5196396,33.2445416 23.7096396,33.9685416 23.3796396,34.5375416" id="Fill-98"></path>
                <path d="M27.3796396,36.8435416 C27.0596396,37.4105416 26.3296396,37.6055416 25.7596396,37.2785416 C25.1996396,36.9505416 24.9996396,36.2255416 25.3296396,35.6585416 C25.6596396,35.0915416 26.3796396,34.8985416 26.9496396,35.2255416 C27.5096396,35.5525416 27.7096396,36.2775416 27.3796396,36.8435416" id="Fill-99"></path>
                <path d="M17.3296396,31.0435416 C17.0096396,31.6095416 17.1996396,32.3345416 17.7696396,32.6615416 C18.3296396,32.9885416 19.0596396,32.7955416 19.3896396,32.2275416 C19.7096396,31.6605416 19.5196396,30.9375416 18.9496396,30.6095416 C18.3896396,30.2825416 17.6596396,30.4765416 17.3296396,31.0435416" id="Fill-100"></path>
                <path d="M30.3496396,42.3755416 C27.7996396,42.3755416 25.7296396,44.4485416 25.7296396,46.9995416 C25.7296396,49.5485416 27.7996396,51.6245416 30.3496396,51.6245416 C31.5896396,51.6245416 32.7496396,51.1435416 33.6196396,50.2685416 C34.4896396,49.3945416 34.9796396,48.2335416 34.9796396,46.9995416 C34.9796396,44.4485416 32.8996396,42.3755416 30.3496396,42.3755416 Z M30.3496396,53.5615416 L30.3496396,53.5615416 C26.7296396,53.5605416 23.7896396,50.6155416 23.7896396,46.9995416 C23.7896396,43.3795416 26.7296396,40.4355416 30.3496396,40.4355416 C33.9696396,40.4355416 36.9096396,43.3795416 36.9096396,46.9995416 C36.9096396,48.7525416 36.2296396,50.4005416 34.9896396,51.6395416 C33.7496396,52.8795416 32.0996396,53.5615416 30.3496396,53.5615416 L30.3496396,53.5615416 Z" id="Fill-101"></path>
                <path d="M44.7696396,16.9195416 C44.7096396,16.6705416 44.5396396,16.4585416 44.3196396,16.3305416 L16.2596396,0.1295416 C15.7896396,-0.1374584 15.1996396,0.0215415997 14.9396396,0.4845416 L0.129639552,26.1295416 C-1.02318154e-12,26.3545416 -0.0303604476,26.6185416 0.0296395524,26.8665416 C0.0996395524,27.1145416 0.259639552,27.3275416 0.479639552,27.4555416 L23.1096396,40.5195416 C23.5696396,40.0095416 24.0796396,39.5545416 24.6296396,39.1565416 L2.28963955,26.2605416 L16.1296396,2.2935416 L42.5096396,17.5235416 L31.0896396,37.3105416 C31.7696396,37.3635416 32.4496396,37.4915416 33.1096396,37.6855416 L44.6696396,17.6545416 C44.7996396,17.4305416 44.8396396,17.1675416 44.7696396,16.9195416" id="Fill-102"></path>
                <path d="M21.3496396,43.3585416 L3.99963955,33.3395416 C3.53963955,33.0725416 2.94963955,33.2325416 2.67963955,33.6955416 C2.40963955,34.1595416 2.56963955,34.7505416 3.02963955,35.0195416 L20.7996396,45.2755416 C20.9196396,44.6265416 21.0996396,43.9845416 21.3496396,43.3585416" id="Fill-103"></path>
                <path d="M30.3596396,42.3725416 C28.6996396,42.3725416 27.1696396,43.2585416 26.3396396,44.6865416 C25.7296396,45.7555416 25.5596396,47.0045416 25.8796396,48.1975416 C26.1996396,49.3895416 26.9696396,50.3875416 28.0396396,51.0055416 C28.7396396,51.4115416 29.5396396,51.6265416 30.3496396,51.6265416 C31.9896396,51.6265416 33.5296396,50.7405416 34.3596396,49.3115416 C35.6296396,47.1025416 34.8696396,44.2685416 32.6596396,42.9935416 C31.9596396,42.5875416 31.1596396,42.3725416 30.3596396,42.3725416 Z M30.3496396,53.5635416 C29.1996396,53.5635416 28.0596396,53.2605416 27.0696396,52.6825416 C25.5496396,51.8075416 24.4596396,50.3925416 24.0096396,48.6985416 C23.5596396,47.0045416 23.7896396,45.2355416 24.6596396,43.7165416 C25.8296396,41.6925416 28.0196396,40.4335416 30.3596396,40.4335416 C31.4996396,40.4335416 32.6396396,40.7375416 33.6296396,41.3135416 C36.7696396,43.1235416 37.8496396,47.1465416 36.0396396,50.2815416 C34.8696396,52.3055416 32.6896396,53.5635416 30.3496396,53.5635416 L30.3496396,53.5635416 Z" id="Fill-104"></path>
                <path d="M55.7396396,13.1685416 L56.3896396,15.5625416 L63.7596396,13.5875416 L63.1096396,11.1945416 L55.7396396,13.1685416 Z M56.1196396,17.5865416 C55.4096396,17.5865416 54.7896396,17.1095416 54.6096396,16.4295416 L53.7696396,13.3025416 C53.5496396,12.4745416 54.0396396,11.6185416 54.8696396,11.3945416 L62.9796396,9.2235416 C63.1096396,9.1875416 63.2496396,9.1695416 63.3796396,9.1695416 C64.0896396,9.1695416 64.7096396,9.6445416 64.8896396,10.3245416 L65.7296396,13.4535416 C65.8296396,13.8565416 65.7796396,14.2775416 65.5696396,14.6375416 C65.3596396,14.9995416 65.0196396,15.2545416 64.6196396,15.3615416 L56.5196396,17.5335416 C56.3896396,17.5685416 56.2496396,17.5865416 56.1196396,17.5865416 L56.1196396,17.5865416 Z" id="Fill-105"></path>
                <path d="M53.9396396,13.9195416 L50.9696396,14.7145416 C50.7196396,14.7815416 50.5096396,14.9435416 50.3796396,15.1665416 L36.3896396,39.3985416 C36.9196396,39.8215416 37.3996396,40.2895416 37.8196396,40.7985416 L51.8596396,16.4835416 L54.4396396,15.7905416 L53.9396396,13.9195416" id="Fill-106"></path>
            </g>
        </g>
    </g>
</svg>