<svg xmlns="http://www.w3.org/2000/svg" width="70" height="69" viewBox="0 0 70 69">
    <g fill="#00609C" fill-rule="evenodd">
        <path d="M42.303 64.945H3.556a.416.416 0 0 1-.296-.126.415.415 0 0 1-.126-.296v-46.78a.423.423 0 0 1 .422-.423h60.807c.113 0 .211.043.296.125a.423.423 0 0 1 .126.299v20.34a1.567 1.567 0 1 0 3.134 0v-20.34a3.563 3.563 0 0 0-3.556-3.56H3.556A3.56 3.56 0 0 0 0 17.745v46.779a3.562 3.562 0 0 0 3.556 3.556h38.747a1.566 1.566 0 1 0 0-3.134"/>
        <path d="M3.175 16.648l7.992-12.571-.224-.142.201.174.023-.032-.224-.142.201.174c.003-.01.136-.132.333-.251a5.755 5.755 0 0 1 1.146-.525c.403-.14.807-.204.907-.198h40.859c.063-.003.296.025.561.097.403.106.901.302 1.279.508a3.3 3.3 0 0 1 .447.283l.096.083.006.007.206-.184-.232.147.026.037.206-.184-.232.147 7.992 12.572a1.568 1.568 0 0 0 2.645-1.682L59.397 2.395c-.325-.495-.69-.78-1.076-1.05A8.515 8.515 0 0 0 56.422.41C55.748.178 55.1.009 54.389 0H13.53c-.475.003-.91.084-1.358.199a9.104 9.104 0 0 0-1.966.775c-.312.169-.61.355-.891.575a3.434 3.434 0 0 0-.793.846L.529 14.965a1.569 1.569 0 0 0 2.646 1.683"/>
        <path d="M37.129 1.82l2.285 13.995v7.988H28.505v-7.988L30.789 1.82a1.567 1.567 0 0 0-3.093-.505l-2.305 14.12c-.015.092-.02.16-.02.253v9.683c0 .412.167.816.459 1.108.292.292.695.459 1.108.459h14.043c.413 0 .816-.167 1.108-.46.292-.291.459-.695.459-1.107v-9.683c0-.093-.006-.161-.02-.253l-2.305-14.12a1.568 1.568 0 0 0-3.093.505M48.058 57.069l7.611 8.816a1.566 1.566 0 0 0 2.497-.166l10.76-16.446a1.568 1.568 0 1 0-2.623-1.716l-9.621 14.705-6.251-7.241a1.568 1.568 0 0 0-2.373 2.049"/>
    </g>
</svg>
