<?xml version="1.0" encoding="UTF-8" standalone="no"?>
<svg
   xmlns:dc="http://purl.org/dc/elements/1.1/"
   xmlns:cc="http://creativecommons.org/ns#"
   xmlns:rdf="http://www.w3.org/1999/02/22-rdf-syntax-ns#"
   xmlns:svg="http://www.w3.org/2000/svg"
   xmlns="http://www.w3.org/2000/svg"
   xmlns:sodipodi="http://sodipodi.sourceforge.net/DTD/sodipodi-0.dtd"
   xmlns:inkscape="http://www.inkscape.org/namespaces/inkscape"
   viewBox="11433 755 28.429 28.429"
   version="1.1"
   id="svg3850"
   sodipodi:docname="1.svg"
   inkscape:version="0.92.4 (5da689c313, 2019-01-14)">
  <metadata
     id="metadata3854">
    <rdf:RDF>
      <cc:Work
         rdf:about="">
        <dc:format>image/svg+xml</dc:format>
        <dc:type
           rdf:resource="http://purl.org/dc/dcmitype/StillImage" />
        <dc:title></dc:title>
      </cc:Work>
    </rdf:RDF>
  </metadata>
  <sodipodi:namedview
     pagecolor="#ffffff"
     bordercolor="#666666"
     borderopacity="1"
     objecttolerance="10"
     gridtolerance="10"
     guidetolerance="10"
     inkscape:pageopacity="0"
     inkscape:pageshadow="2"
     inkscape:window-width="2304"
     inkscape:window-height="1202"
     id="namedview3852"
     showgrid="false"
     inkscape:zoom="26.117335"
     inkscape:cx="15.704032"
     inkscape:cy="14.496029"
     inkscape:window-x="-11"
     inkscape:window-y="-11"
     inkscape:window-maximized="1"
     inkscape:current-layer="svg3850" />
  <defs
     id="defs3838">
    <style
       id="style3836">.a{fill:#00a1e1;}</style>
  </defs>
  <g
     transform="translate(11433 755)"
     id="g3848">
    <path
       class="a"
       d="M14.214,0A14.214,14.214,0,1,0,28.429,14.214,14.228,14.228,0,0,0,14.214,0Zm0,26.892A12.679,12.679,0,1,1,26.892,14.214,12.635,12.635,0,0,1,14.214,26.892Zm0,0"
       id="path3840" />
    <path
       class="a"
       d="M69.973,80.737A1.537,1.537,0,1,1,68.437,79.2a1.532,1.532,0,0,1,1.537,1.537Zm0,0"
       transform="translate(-58.868 -69.692)"
       id="path3842" />
    <path
       class="a"
       d="M149.173,80.737a1.537,1.537,0,1,1-1.537-1.537,1.532,1.532,0,0,1,1.537,1.537Zm0,0"
       transform="translate(-128.56 -69.692)"
       id="path3844" />
    <path
       class="a"
       d="M63.955,143.4a8.93,8.93,0,0,0-7.455,4.046l1.3.828a7.317,7.317,0,0,1,12.281,0l1.3-.828a8.929,8.929,0,0,0-6.4-3.986,7.492,7.492,0,0,0-1.02-.06Zm0,0"
       transform="translate(-49.717 -126.184)"
       id="path3846" />
  </g>
  <rect
     style="fill:#00a1e1;fill-opacity:1"
     id="rect3856"
     width="4.5775509"
     height="1.3250805"
     x="10538.916"
     y="-4518.6758"
     transform="rotate(27.018104)" />
  <rect
     style="fill:#00a1e1;fill-opacity:1"
     id="rect3856-3"
     width="4.5775509"
     height="1.3250805"
     x="-9857.1689"
     y="5881.6724"
     transform="matrix(-0.89086303,0.45427201,0.45427201,0.89086303,0,0)" />
</svg>
