<?xml version="1.0" encoding="UTF-8" standalone="no"?>
<svg
   xmlns:dc="http://purl.org/dc/elements/1.1/"
   xmlns:cc="http://creativecommons.org/ns#"
   xmlns:rdf="http://www.w3.org/1999/02/22-rdf-syntax-ns#"
   xmlns:svg="http://www.w3.org/2000/svg"
   xmlns="http://www.w3.org/2000/svg"
   xmlns:sodipodi="http://sodipodi.sourceforge.net/DTD/sodipodi-0.dtd"
   xmlns:inkscape="http://www.inkscape.org/namespaces/inkscape"
   viewBox="11505.356 755 28.429 28.429"
   version="1.1"
   id="svg3799"
   sodipodi:docname="5.svg"
   inkscape:version="0.92.4 (5da689c313, 2019-01-14)">
  <metadata
     id="metadata3803">
    <rdf:RDF>
      <cc:Work
         rdf:about="">
        <dc:format>image/svg+xml</dc:format>
        <dc:type
           rdf:resource="http://purl.org/dc/dcmitype/StillImage" />
        <dc:title></dc:title>
      </cc:Work>
    </rdf:RDF>
  </metadata>
  <sodipodi:namedview
     pagecolor="#ffffff"
     bordercolor="#666666"
     borderopacity="1"
     objecttolerance="10"
     gridtolerance="10"
     guidetolerance="10"
     inkscape:pageopacity="0"
     inkscape:pageshadow="2"
     inkscape:window-width="2304"
     inkscape:window-height="1202"
     id="namedview3801"
     showgrid="false"
     inkscape:zoom="32.487667"
     inkscape:cx="14.300677"
     inkscape:cy="14.45873"
     inkscape:window-x="-11"
     inkscape:window-y="-11"
     inkscape:window-maximized="1"
     inkscape:current-layer="g3797" />
  <defs
     id="defs3787">
    <style
       id="style3785">.a{fill:#00a1e1;}</style>
  </defs>
  <g
     transform="translate(11505.356,755)"
     id="g3797">
    <path
       class="a"
       d="M 616.914,0 A 14.214,14.214 0 1 0 631.128,14.214 14.228,14.228 0 0 0 616.914,0 Z m 0,26.892 a 12.679,12.679 0 1 1 12.678,-12.678 12.635,12.635 0 0 1 -12.678,12.678 z m 0,0"
       transform="translate(-602.7)"
       id="path3789"
       inkscape:connector-curvature="0"
       style="fill:#00a1e1" />
    <path
       class="a"
       d="m 672.673,80.737 a 1.537,1.537 0 1 1 -1.537,-1.537 1.532,1.532 0 0 1 1.537,1.537 z m 0,0"
       transform="translate(-661.568,-69.692)"
       id="path3791"
       inkscape:connector-curvature="0"
       style="fill:#00a1e1" />
    <path
       class="a"
       d="m 751.873,80.737 a 1.537,1.537 0 1 1 -1.537,-1.537 1.532,1.532 0 0 1 1.537,1.537 z m 0,0"
       transform="translate(-731.26,-69.692)"
       id="path3793"
       inkscape:connector-curvature="0"
       style="fill:#00a1e1" />
    <path
       class="a"
       d="m 666.519,148.274 a 8.929,8.929 0 0 0 7.455,-4.046 l -1.3,-0.828 a 7.317,7.317 0 0 1 -12.281,0 l -1.3,0.828 a 8.929,8.929 0 0 0 6.4,3.986 10.087,10.087 0 0 0 1.02,0.06 z m 0,0"
       transform="translate(-652.329,-126.184)"
       id="path3795"
       inkscape:connector-curvature="0"
       style="fill:#00a1e1" />
    <rect
       style="fill:#00a1e1;fill-opacity:1;stroke-width:1.00146449"
       id="rect3805"
       width="14.894432"
       height="1.2620252"
       x="6.7505674"
       y="16.781975" />
  </g>
</svg>
