<svg xmlns="http://www.w3.org/2000/svg" width="105" height="105" viewBox="0 0 105 105">
    <g fill="none" fill-rule="evenodd">
        <path fill="#D4764D" d="M104.944 52.412c.032 28.977-23.433 52.496-52.413 52.532C23.551 104.98.03 81.508 0 52.53-.032 23.548 23.432.03 52.409 0c28.983-.032 52.502 23.429 52.535 52.412"/>
        <path fill="#FFFFFE" d="M38.806 39.37a6.732 6.732 0 0 1-6.721 6.735 6.732 6.732 0 0 1-6.736-6.721 6.73 6.73 0 0 1 6.718-6.743 6.736 6.736 0 0 1 6.739 6.728M76.94 39.327a6.725 6.725 0 0 1-6.721 6.736 6.725 6.725 0 0 1-6.736-6.721 6.735 6.735 0 0 1 6.718-6.743c3.719-.007 6.735 3.01 6.739 6.728M52.844 63.191a31.008 31.008 0 0 0-21.276 8.417 1.963 1.963 0 0 0-.094 2.776c.745.795 1.99.831 2.78.1a27.206 27.206 0 0 1 18.59-7.369 27.16 27.16 0 0 1 18.612 7.326 1.982 1.982 0 0 0 2.783-.097 1.98 1.98 0 0 0-.101-2.786 31.05 31.05 0 0 0-21.294-8.367"/>
    </g>
</svg>
