<svg xmlns="http://www.w3.org/2000/svg" width="105" height="105" viewBox="0 0 105 105">
    <g fill="none" fill-rule="evenodd">
        <path fill="#CE575E" d="M104.944 52.42c.032 28.976-23.433 52.488-52.413 52.524C23.551 104.972.032 81.514 0 52.53-.032 23.548 23.429.036 52.412 0c28.977-.025 52.5 23.429 52.532 52.42"/>
        <path fill="#FFFFFE" d="M38.806 39.37a6.727 6.727 0 0 1-6.721 6.735c-3.716 0-6.736-3.01-6.74-6.721a6.736 6.736 0 0 1 6.725-6.743c3.715-.007 6.732 3.01 6.736 6.729M76.943 39.328a6.734 6.734 0 0 1-6.721 6.735c-3.715.007-6.732-3.01-6.74-6.721a6.734 6.734 0 0 1 6.726-6.743c3.715-.007 6.732 3.003 6.735 6.729M52.694 58.516c-11.451.014-21.528 6.926-25.657 17.615a1.963 1.963 0 0 0 1.12 2.545 1.965 1.965 0 0 0 2.545-1.12c3.546-9.169 12.179-15.095 21.996-15.102 9.82-.014 18.468 5.89 22.036 15.052a1.976 1.976 0 0 0 2.545 1.12 1.977 1.977 0 0 0 1.123-2.553C74.24 65.4 64.153 58.501 52.694 58.516"/>
    </g>
</svg>
