<svg xmlns="http://www.w3.org/2000/svg" width="105" height="105" viewBox="0 0 105 105">
    <g fill="none" fill-rule="evenodd">
        <path fill="#67B979" d="M104.933 52.412c.032 28.984-23.429 52.496-52.413 52.524C23.54 104.972.025 81.508 0 52.524-.04 23.548 23.425.029 52.398 0c28.987-.032 52.506 23.429 52.535 52.412"/>
        <path fill="#FFFFFE" d="M38.8 39.37a6.717 6.717 0 0 1-6.717 6.735 6.731 6.731 0 0 1-6.75-6.714 6.743 6.743 0 0 1 6.728-6.75c3.715-.007 6.729 3.003 6.74 6.729M76.935 39.328c0 3.711-3.01 6.735-6.722 6.735-3.718.007-6.735-3.01-6.742-6.728a6.734 6.734 0 0 1 6.72-6.736 6.742 6.742 0 0 1 6.744 6.729M52.712 80.095c-11.452.014-21.542-6.884-25.7-17.565-.4-1.004.104-2.145 1.123-2.545a1.96 1.96 0 0 1 2.541 1.127c3.56 9.147 12.215 15.051 22.036 15.044 9.814-.007 18.45-5.933 21.989-15.095a1.984 1.984 0 0 1 2.549-1.134 1.972 1.972 0 0 1 1.126 2.546C74.236 73.16 64.167 80.08 52.712 80.095"/>
    </g>
</svg>
