<svg xmlns="http://www.w3.org/2000/svg" width="105" height="105" viewBox="0 0 105 105">
    <g fill="none" fill-rule="evenodd">
        <path fill="#E5BE47" d="M104.947 52.412c.029 28.984-23.443 52.496-52.412 52.532C23.555 104.98.032 81.514 0 52.53-.029 23.555 23.432.036 52.416 0c28.973-.025 52.495 23.436 52.531 52.412"/>
        <path fill="#FFFFFE" d="M38.804 39.37c.004 3.718-3.002 6.735-6.718 6.735a6.729 6.729 0 0 1-6.739-6.714c-.003-3.726 3.006-6.743 6.721-6.743a6.725 6.725 0 0 1 6.736 6.721M76.938 39.327a6.729 6.729 0 0 1-6.71 6.743c-3.72 0-6.74-3.01-6.743-6.721a6.725 6.725 0 0 1 6.725-6.743 6.716 6.716 0 0 1 6.728 6.721M69.436 71.038l-33.448.036a1.968 1.968 0 0 1-1.973-1.97c0-1.083.879-1.961 1.966-1.961l33.451-.043c1.087 0 1.97.878 1.97 1.969 0 1.084-.875 1.97-1.966 1.97"/>
    </g>
</svg>
