<svg xmlns="http://www.w3.org/2000/svg" width="105" height="105" viewBox="0 0 105 105">
    <g fill="none" fill-rule="evenodd">
        <path fill="#80C06C" d="M104.947 52.412c.029 28.984-23.44 52.496-52.416 52.532C23.558 104.98.03 81.514 0 52.53-.029 23.548 23.436.036 52.409 0c28.987-.025 52.502 23.436 52.538 52.412"/>
        <path fill="#FFFFFE" d="M38.811 39.376a6.739 6.739 0 0 1-6.72 6.736c-3.72 0-6.737-3.01-6.744-6.721a6.742 6.742 0 0 1 6.729-6.743 6.74 6.74 0 0 1 6.735 6.728M76.942 39.328a6.734 6.734 0 0 1-6.714 6.742 6.742 6.742 0 0 1-6.743-6.728c0-3.719 3.006-6.736 6.718-6.736a6.721 6.721 0 0 1 6.739 6.722M52.86 75.426c-7.924.014-15.488-2.967-21.294-8.367a1.978 1.978 0 0 1-.094-2.793 1.97 1.97 0 0 1 2.78-.09 27.155 27.155 0 0 0 18.608 7.319 27.138 27.138 0 0 0 18.586-7.37 1.972 1.972 0 0 1 2.783.101 1.96 1.96 0 0 1-.093 2.776 31.048 31.048 0 0 1-21.276 8.424"/>
    </g>
</svg>
