<svg xmlns="http://www.w3.org/2000/svg" width="34" height="34" viewBox="0 0 34 34">
    <g fill="#00609C" fill-rule="evenodd">
        <path d="M19.498 16.979a2.422 2.422 0 1 1-2.422-2.422 2.423 2.423 0 0 1 2.422 2.422M11.649 16.979a2.422 2.422 0 1 1-2.421-2.422 2.423 2.423 0 0 1 2.421 2.422M27.224 16.979a2.422 2.422 0 1 1-2.422-2.422 2.423 2.423 0 0 1 2.422 2.422"/>
        <path d="M17.076 32.458c-8.451 0-15.327-6.944-15.327-15.48 0-8.536 6.876-15.481 15.327-15.481 8.452 0 15.326 6.945 15.326 15.481s-6.874 15.48-15.326 15.48m0-32.125C7.983.333.584 7.799.584 16.978c0 9.178 7.399 16.646 16.492 16.646 9.095 0 16.491-7.468 16.491-16.646 0-9.179-7.396-16.645-16.491-16.645"/>
    </g>
</svg>
