<svg xmlns="http://www.w3.org/2000/svg" width="51" height="23" viewBox="0 0 51 23">
    <g fill="#006089" fill-rule="evenodd">
        <path d="M31.86 19.279h7.56c.15 0 .3-.062.41-.17.1-.108.17-.258.17-.411V2.431A1.759 1.759 0 0 0 38.25.688H24.31c-.96.003-1.74.78-1.74 1.743v16.267c0 .153.06.303.17.411.1.108.25.17.41.17h2.9a.58.58 0 0 0 0-1.162h-2.32V2.431c0-.315.26-.58.58-.581h13.94c.32.001.58.266.58.581v15.686h-6.97a.58.58 0 0 0 0 1.162"/>
        <path d="M48.13 19.279h1.74a.577.577 0 0 0 .58-.581v-3.416c0-.53-.24-1.031-.66-1.362l-.1-.066-2.77-1.353-.48-3.309-.58.083.58-.057a1.73 1.73 0 0 0-1.73-1.559h-5.29c-.16 0-.31.062-.42.17a.622.622 0 0 0-.17.411v10.458c0 .153.07.303.17.411.11.108.26.17.42.17h2.9a.58.58 0 0 0 0-1.162H40V8.821h4.71c.3.002.55.218.58.511v.027l.52 3.613c.03.19.15.354.32.439l3.05 1.487.25-.522-.36.456c.14.111.22.279.22.45v2.835h-1.16a.58.58 0 0 0 0 1.162"/>
        <path d="M42.32 18.698h-.58a3.485 3.485 0 1 0 6.97 0 3.485 3.485 0 0 0-6.97 0h1.16a2.325 2.325 0 0 1 4.65 0 2.326 2.326 0 0 1-4.65 0h-.58M26.05 18.698h-.58a3.485 3.485 0 1 0 6.97 0 3.485 3.485 0 0 0-6.97 0h1.16a2.34 2.34 0 0 1 2.33-2.324 2.324 2.324 0 0 1 0 4.647 2.332 2.332 0 0 1-2.33-2.323h-.58M17 6H1c-.28 0-.5.224-.5.5s.22.5.5.5h16c.28 0 .5-.224.5-.5S17.28 6 17 6M23 11H7c-.28 0-.5.224-.5.5s.22.5.5.5h16c.28 0 .5-.224.5-.5s-.22-.5-.5-.5"/>
    </g>
</svg>
