<svg xmlns="http://www.w3.org/2000/svg" width="22" height="28" viewBox="0 0 22 28">
    <g fill="#006089" fill-rule="evenodd">
        <path d="M1.61 19.306v6.591c0 .117.09.211.21.211l18.17-.001c.12 0 .21-.093.21-.21v-6.591H1.61zm18.38 7.709H1.82c-.62 0-1.12-.501-1.12-1.118v-7.499h20.41v7.499c0 .617-.5 1.118-1.12 1.118z"/>
        <path d="M1.61 26.019l.21.089 18.17-.001.21-.088V7.051c0-.111 0-.17-.01-.199l-5.23-5.233H1.82c-.19 0-.21.321-.21.42v23.98zm18.38.996H1.82c-.56 0-1.12-.45-1.12-.907V2.039c0-.912.58-1.327 1.12-1.327h13.16c.23 0 .45.091.6.25l5.28 5.276c.21.208.25.465.25.813v19.056c0 .458-.55.908-1.12.908z"/>
        <path d="M15.67 6.154h3.82l-3.82-3.826v3.826zm4.36.906h-5.27V1.796c0-.279.17-.528.43-.634a.672.672 0 0 1 .74.148l4.58 4.579c.2.197.26.491.15.748a.691.691 0 0 1-.63.423zM6.09 21.195v1.811h.68c.1 0 .19-.016.27-.046l.25-.152a.864.864 0 0 0 .18-.295c.04-.126.07-.282.07-.468 0-.074-.01-.16-.03-.257a.796.796 0 0 0-.13-.279.694.694 0 0 0-.27-.224c-.12-.06-.27-.09-.46-.09h-.56zm0 4.006h-.74v-4.569h1.31c.2 0 .39.03.58.093.19.061.36.155.51.278.15.124.27.274.37.45.09.176.14.373.14.592a1.6 1.6 0 0 1-.12.63 1.352 1.352 0 0 1-.84.771c-.2.07-.42.106-.66.106h-.55v1.649zM10.61 24.655c.51 0 .87-.161 1.09-.483.23-.322.34-.79.34-1.402 0-.19-.02-.378-.07-.564a1.244 1.244 0 0 0-.26-.505 1.414 1.414 0 0 0-.53-.366c-.23-.093-.52-.14-.87-.14h-.43v3.46h.73zm2.21-1.866c0 .376-.04.697-.12.964-.08.266-.18.49-.31.67a1.48 1.48 0 0 1-.42.425c-.15.102-.3.18-.45.232-.14.052-.27.085-.39.099-.12.014-.21.022-.27.022H9.13v-4.569h1.38c.38 0 .72.06 1.01.182.29.122.53.285.73.487.19.202.33.433.43.691.09.259.14.524.14.797zM14.66 21.195v1.439h1.9v.508h-1.9v2.059h-.76v-4.569h2.86v.563h-2.1M10.79 5.116c-.05.015-.61.797.04 1.458.43-.959-.02-1.465-.04-1.458zm.27 3.838a31.446 31.446 0 0 1-1.21 3.43c.95-.368 1.98-.689 2.95-.916-.62-.711-1.23-1.6-1.74-2.514zm3.39 2.984c.37.285.46.429.7.429.11 0 .41-.005.55-.2a.585.585 0 0 0 .1-.188c-.05-.03-.13-.089-.53-.089-.23 0-.52.009-.82.048zm-6.18 2.015c-.97.545-1.37.992-1.4 1.245 0 .041-.01.151.2.314.07-.022.46-.202 1.2-1.559zm-1.21 2.325a.733.733 0 0 1-.44-.148c-.47-.355-.54-.749-.51-1.018.09-.737 1-1.511 2.72-2.298a30.97 30.97 0 0 0 1.72-4.875c-.46-.985-.9-2.262-.58-3.012.12-.263.26-.465.52-.552.1-.034.36-.077.46-.077.23 0 .43.294.57.475.14.171.44.533-.17 3.085.61 1.262 1.48 2.548 2.31 3.429a8.859 8.859 0 0 1 1.52-.162c.71 0 1.14.165 1.32.507.14.281.08.611-.18.979-.25.353-.6.54-1.01.54-.55 0-1.19-.349-1.91-1.036a22 22 0 0 0-4 1.279c-.38.805-.74 1.453-1.08 1.928-.46.652-.86.956-1.26.956z"/>
    </g>
</svg>
