<svg xmlns="http://www.w3.org/2000/svg" width="22" height="22" viewBox="0 0 22 22">
    <g fill="#006089" fill-rule="evenodd">
        <path d="M19.846 19.927H1.834a.222.222 0 0 1-.219-.219V7.627h18.45v12.081c0 .119-.1.219-.219.219zM1.834 3.234h1.758v1.098a.659.659 0 1 0 1.318 0V3.234h3.075v1.098a.659.659 0 1 0 1.318 0V3.234h3.075v1.098a.659.659 0 1 0 1.318 0V3.234h3.075v1.098a.659.659 0 1 0 1.318 0V3.234h1.757c.119 0 .219.1.219.22v3.295H1.615V3.454c0-.12.1-.22.219-.22zm18.012-1.318h-1.757V.818a.66.66 0 0 0-1.318 0v1.098h-3.075V.818a.66.66 0 0 0-1.318 0v1.098H9.303V.818a.659.659 0 1 0-1.318 0v1.098H4.91V.818a.659.659 0 1 0-1.318 0v1.098H1.834A1.54 1.54 0 0 0 .297 3.454v16.254c0 .847.69 1.537 1.537 1.537h18.012a1.54 1.54 0 0 0 1.537-1.537V3.454a1.54 1.54 0 0 0-1.537-1.538z"/>
        <path d="M9.742 12.24h2.196v-2.197H9.742v2.197zm2.636-3.075H9.303a.44.44 0 0 0-.44.439v3.075a.44.44 0 0 0 .44.439h3.075a.438.438 0 0 0 .439-.439V9.604a.438.438 0 0 0-.439-.439zM9.742 17.511h2.196v-2.197H9.742v2.197zm2.636-3.075H9.303a.44.44 0 0 0-.44.44v3.074c0 .243.197.44.44.44h3.075a.44.44 0 0 0 .439-.44v-3.074a.439.439 0 0 0-.439-.44zM4.471 12.24h2.196v-2.197H4.471v2.197zm2.635-3.075H4.031a.438.438 0 0 0-.439.439v3.075c0 .243.196.439.439.439h3.075a.438.438 0 0 0 .439-.439V9.604a.438.438 0 0 0-.439-.439zM4.471 17.511h2.196v-2.197H4.471v2.197zm2.635-3.075H4.031a.439.439 0 0 0-.439.44v3.074c0 .243.196.44.439.44h3.075a.44.44 0 0 0 .439-.44v-3.074a.439.439 0 0 0-.439-.44zM15.014 12.24h2.196v-2.197h-2.196v2.197zm2.635-3.075h-3.075a.439.439 0 0 0-.439.439v3.075c0 .243.197.439.439.439h3.075a.44.44 0 0 0 .44-.439V9.604a.44.44 0 0 0-.44-.439zM15.014 17.511h2.196v-2.197h-2.196v2.197zm2.635-3.075h-3.075a.44.44 0 0 0-.439.44v3.074c0 .243.197.44.439.44h3.075a.44.44 0 0 0 .44-.44v-3.074a.44.44 0 0 0-.44-.44z"/>
    </g>
</svg>
