<svg xmlns="http://www.w3.org/2000/svg" width="41" height="41" viewBox="0 0 41 41">
    <g fill="#00609C" fill-rule="evenodd">
        <path d="M20.238 40.481C9.081 40.481 0 31.401 0 20.241 0 9.081 9.081 0 20.238 0c11.161 0 20.243 9.081 20.243 20.241s-9.082 20.24-20.243 20.24m0-39.017c-10.352 0-18.776 8.424-18.776 18.777 0 10.352 8.424 18.776 18.776 18.776 10.354 0 18.778-8.424 18.778-18.776 0-10.353-8.424-18.777-18.778-18.777"/>
        <path d="M25.87 5c.262.047.53.083.787.151a4.168 4.168 0 0 1 3.081 4.255 4.175 4.175 0 0 1-3.596 3.924c-2.274.334-4.439-1.308-4.72-3.584-.03-.25-.034-.505-.03-.757.001-.112-.034-.154-.13-.19-.54-.192-1.082-.156-1.624-.015-.276.071-.276.072-.276.358 0 2.048-1.364 3.727-3.37 4.148-2.268.476-4.557-1.095-4.933-3.384-.374-2.284 1.062-4.365 3.333-4.828.158-.031.316-.054.472-.078h.644c.033.008.064.023.096.026 1.432.169 2.503.884 3.23 2.122.056.1.1.12.213.085.636-.189 1.286-.275 1.948-.183.288.042.57.118.862.18l.053-.085c.596-1.033 1.466-1.706 2.615-2.012.24-.062.488-.09.73-.133h.615zm-.304 6.718c1.416-.005 2.534-1.146 2.531-2.578-.005-1.364-1.16-2.486-2.552-2.483-1.409.004-2.522 1.148-2.514 2.591.005 1.343 1.171 2.477 2.535 2.47zm-10.38 0c1.475-.008 2.566-1.247 2.528-2.626-.036-1.335-1.192-2.448-2.583-2.435-1.378.013-2.495 1.167-2.483 2.564.01 1.374 1.165 2.507 2.538 2.497zM7 15.655l.056-.146c.122-.306.341-.478.673-.501.048-.005.097-.004.145-.004 8.458 0 16.914.005 25.373-.004.788-.002 1.015.754.763 1.246a.707.707 0 0 1-.601.405 2.724 2.724 0 0 1-.204.007l-25.299.001c-.28 0-.543-.04-.717-.279-.083-.11-.129-.247-.189-.373v-.352M24.186 30.28c-.337-.264-.674-.555-1.037-.806a43.681 43.681 0 0 0-1.646-1.086c-.347-.222-.749-.273-1.144-.328a274.145 274.145 0 0 0-4.433-.59 195.382 195.382 0 0 0-3.983-.429c-.557-.057-1.119-.076-1.658-.246-.764-.238-1.43-.619-1.882-1.306-.668-1.018-.589-2.865.868-3.611a3.472 3.472 0 0 1 1.974-.358c1.614.166 3.225.357 4.836.55 1.017.12 2.03.263 3.045.397l.14.013c-.035-.049-.05-.078-.072-.106-.359-.476-.64-.987-.767-1.578-.286-1.343.624-2.392 1.656-2.685.71-.199 1.396-.116 2.076.134 1.155.426 2.255.972 3.328 1.572 1.49.836 2.966 1.702 4.444 2.562.488.282.742.746.898 1.269.18.594.224 1.207.204 1.823-.018.529-.067 1.061-.113 1.588-.008.105.02.141.12.166.5.131.872.431 1.1.894.38.768.752 1.54 1.124 2.311a1.682 1.682 0 0 1-.772 2.256c-1.683.824-3.37 1.643-5.059 2.457a1.68 1.68 0 0 1-2.274-.776 111.84 111.84 0 0 1-1.124-2.313c-.263-.556-.225-1.107.09-1.635l.06-.101.001-.038m-13.1-7.119c-.51 0-.8.06-1.04.179a.671.671 0 0 0-.365.464c-.1.44.042.829.41 1.092.385.274.827.391 1.285.439 1.47.156 2.941.281 4.407.453 1.605.19 3.207.423 4.808.634.82.105 1.565.38 2.26.826a23.878 23.878 0 0 1 2.651 1.994c.084.073.147.092.253.041 1.107-.538 2.22-1.068 3.328-1.608a.223.223 0 0 0 .107-.136c.127-.819.232-1.643.184-2.474a6.722 6.722 0 0 0-.155-1.007.505.505 0 0 0-.208-.296c-1.568-.911-3.133-1.823-4.715-2.705-.9-.504-1.83-.961-2.813-1.289-.217-.072-.455-.09-.685-.109a.776.776 0 0 0-.338.074c-.375.168-.547.47-.352.938.333.802.931 1.344 1.683 1.74.175.093.351.196.498.328.623.558.448 1.486-.327 1.729a1.425 1.425 0 0 1-.562.052c-.347-.038-.688-.125-1.035-.18-.962-.15-1.924-.301-2.89-.431-.922-.125-1.847-.227-2.77-.336a396.06 396.06 0 0 0-2.442-.282c-.434-.05-.87-.096-1.178-.13m19.352 5.744c-1.608.782-3.219 1.565-4.828 2.343-.092.043-.09.09-.05.169.35.717.704 1.433 1.05 2.153.041.087.076.102.163.06 1.632-.797 3.266-1.587 4.9-2.38.096-.045.115-.088.066-.186-.26-.523-.512-1.051-.769-1.575-.085-.176-.17-.355-.26-.533-.075-.142-.222-.074-.272-.051"/>
    </g>
</svg>
