<svg xmlns="http://www.w3.org/2000/svg" width="42" height="42" viewBox="0 0 42 42">
    <g fill="#00609C" fill-rule="evenodd">
        <path d="M19.67 7.626v8.45l-4.794-2.549c1.153-2.088 2.842-4.165 4.794-5.901zm0 9.651v7.289l-6.633-4.646c.012-1.759.474-3.601 1.37-5.476l4.732 2.516c.064.036.14.082.22.135.099.059.202.123.31.182zm0 8.545v6.92c-3.78-3.35-6.152-7.515-6.568-11.518l6.568 4.598zm7.626-4.621c-.305 3.857-2.744 8.124-6.598 11.541v-6.92l6.598-4.621zm-6.598 3.365v-7.22c.52-.178 1.108-.563 1.63-.906.264-.174.509-.337.7-.437l2.89-1.539c.86 1.837 1.332 3.673 1.402 5.463l-6.622 4.639zm0-8.49v-8.45c1.97 1.749 3.608 3.786 4.759 5.918l-4.76 2.532zm-.151-9.935l-.04-.033a.369.369 0 0 0-.084-.047.492.492 0 0 0-.471-.002.387.387 0 0 0-.094.049l-.027.021C16.117 9.121 12.105 14.383 12 20.18c-.104 5.628 4.128 11.069 7.829 14.056l-.002.001c.095.084.22.13.355.13a.53.53 0 0 0 .35-.126c3.719-2.992 7.727-8.252 7.833-14.052.102-5.643-4.156-11.1-7.82-14.048z"/>
        <path d="M20.553 40.032c-10.53 0-19.099-8.653-19.099-19.29 0-10.637 8.569-19.291 19.099-19.291 10.534 0 19.1 8.654 19.1 19.291s-8.566 19.29-19.1 19.29m0-40.032C9.222 0 0 9.305 0 20.742c0 11.435 9.222 20.742 20.553 20.742 11.331 0 20.551-9.307 20.551-20.742C41.104 9.305 31.884 0 20.553 0"/>
    </g>
</svg>
