<svg xmlns="http://www.w3.org/2000/svg" width="94" height="95" viewBox="0 0 94 95">
    <g fill="#FFFFFE" fill-rule="evenodd">
        <path d="M65.835 46.589c-.173-5.898-2.826-11.209-7.24-14.701 6.89 2.816 13.822 8.044 19.41 14.707-5.389 6.425-11.99 11.433-18.819 14.305 3.994-3.576 6.488-8.861 6.65-14.311m-2.536 0c-.259 9.064-7.29 16.095-16.359 16.355-.145.004-.298.008-.439.008-8.508 0-15.636-7.341-15.899-16.363-.249-8.596 7.246-16.083 16.361-16.343.146-.003.291-.008.441-.008 8.507 0 15.637 7.344 15.895 16.351m-35.23 0c-.165 5.698 2.545 11.107 7.221 14.701-6.888-2.814-13.807-8.036-19.39-14.695 5.391-6.424 11.991-11.43 18.816-14.304-3.99 3.575-6.487 8.859-6.647 14.298m52.778-.127a1.269 1.269 0 0 0-.274-.73C73.422 36.853 60.84 27.268 46.96 27.005 46.79 27 46.618 27 46.447 27c-8.716 0-21.994 4.917-33.114 18.732-.444.546-.444 1.179 0 1.729 7.147 8.878 19.733 18.457 33.614 18.724.172.007.34.007.51.007h.003c8.714 0 21.99-4.925 33.114-18.731.164-.203.252-.447.272-.701.004-.048.004-.088.011-.199l-.009-.099"/>
        <path d="M53.009 46.505c0 3.039-2.467 5.5-5.503 5.5a5.501 5.501 0 1 1 0-11.005 5.508 5.508 0 0 1 5.503 5.505"/>
        <path d="M46.692 90.954c-23.925 0-43.393-19.659-43.393-43.828 0-24.168 19.468-43.829 43.393-43.829 23.93 0 43.393 19.661 43.393 43.829 0 24.169-19.463 43.828-43.393 43.828m0-90.954C20.948 0 0 21.138 0 47.126c0 25.986 20.948 47.129 46.692 47.129 25.748 0 46.693-21.143 46.693-47.129C93.385 21.138 72.44 0 46.692 0"/>
    </g>
</svg>
