<svg xmlns="http://www.w3.org/2000/svg" width="41" height="41" viewBox="0 0 41 41">
    <g fill="#00609C" fill-rule="evenodd">
        <path d="M20.241 40.48C9.08 40.48 0 31.4 0 20.238 0 9.079 9.08 0 20.241 0c11.16 0 20.238 9.079 20.238 20.238 0 11.162-9.078 20.242-20.238 20.242m0-39.017c-10.352 0-18.776 8.425-18.776 18.775 0 10.354 8.424 18.779 18.776 18.779 10.351 0 18.776-8.425 18.776-18.779 0-10.35-8.425-18.775-18.776-18.775"/>
        <path d="M37.46 16.274C36.473 14.743 35.27 14 33.78 14c-2.155 0-4.45 1.575-6.471 2.965a629.281 629.281 0 0 0-6.691 4.671s-1.178.832-1.802-.361c-.625-1.193-3.05-2.669-5.74-2.669h-.171c-2.81.068-5.317 1.769-5.876 3.06 0 0-.556 1.29-1.153 1.087-.596-.205-1.66-.326-2.504-.142-.292.064-.403.474-.364.849.06.572.427.92.95.868a4.04 4.04 0 0 1 1.636.177s.385.137.349.352a6.769 6.769 0 0 0-.055 1.107c.09 3.869 3.31 7.021 7.186 7.021.057 0 .112 0 .17-.002a7.124 7.124 0 0 0 5.029-2.228 7.138 7.138 0 0 0 1.992-5.13 6.823 6.823 0 0 0-.134-1.208s-.054-.243.78-.832c.835-.591 2.5-1.771 4.175-2.942.429-.298.945-.701 1.49-1.127 2.013-1.571 4.773-3.721 6.965-3.721 1.023 0 1.818.456 2.427 1.405a.826.826 0 0 0 .707.403.97.97 0 0 0 .829-.494.792.792 0 0 0-.044-.835M13.074 31.23c-2.926 0-5.363-2.378-5.43-5.307a5.44 5.44 0 0 1 5.304-5.562h.128a5.438 5.438 0 0 1 4.917 3.129l-.956.681a.875.875 0 0 0-.33 1.006c.12.377.445.64.792.64a.817.817 0 0 0 .478-.164l.439-.307.067-.049a5.385 5.385 0 0 1-1.478 4.247 5.394 5.394 0 0 1-3.804 1.684l-.127.002M3.838 17.528a.798.798 0 0 0 .475-.163c1.168-.828 1.481-1.098 1.78-1.361.305-.268.597-.519 1.8-1.36.432-.301.946-.702 1.493-1.128 2.014-1.572 4.77-3.72 6.962-3.72 1.024 0 1.818.457 2.427 1.404a.825.825 0 0 0 .71.401c.337 0 .67-.197.828-.491.145-.262.128-.565-.047-.836C19.297 8.765 18.058 8 16.587 8c-2.155 0-4.446 1.576-6.47 2.964-1.894 1.299-2.697 1.915-3.628 2.626a102.54 102.54 0 0 1-3.113 2.293.876.876 0 0 0-.33 1.007c.12.377.446.638.792.638"/>
    </g>
</svg>
