<svg xmlns="http://www.w3.org/2000/svg" width="92" height="92" viewBox="0 0 92 92">
    <g fill="#FFFFFE" fill-rule="evenodd">
        <path d="M45.98 91.975C20.63 91.975 0 71.348 0 45.987 0 20.631 20.63 0 45.98 0c25.36 0 45.99 20.631 45.99 45.987 0 25.361-20.63 45.988-45.99 45.988m0-88.648c-23.52 0-42.66 19.137-42.66 42.66 0 23.526 19.14 42.663 42.66 42.663 23.52 0 42.67-19.137 42.67-42.663 0-23.523-19.15-42.66-42.67-42.66"/>
        <path d="M56.87 12.62v30.153c0 .28.07.46.3.64 7.91 6.051 15.86 12.055 23.72 18.171.37.29.22.84-.08.923-.44.13-.88.254-1.32.38-6.43 1.835-12.87 3.667-19.3 5.504-7.2 2.053-13.64 3.891-20.84 5.954-.83.275-1.25.153-1.88-.319-7.81-6.243-15.09-12.063-22.91-18.304-.06-.049-.56-.464-.56-1.503V23.321c0-.793.67-.903.8-.93 13.24-3.313 26.48-6.625 39.73-9.936.56-.142 1.13-.3 1.69-.448.18-.054.65.196.65.613m-3.59 3.648c-11.58 2.894-24.04 5.925-35.63 8.808-.28.07-.32.202-.32.457 0 8.136-.03 17.004-.03 25.14 0 .363.25.335.35.313 4.4-1.006 9.25-2.084 13.65-3.089 7.14-1.627 14.71-3.328 21.86-4.943.28-.065.38-.164.38-.473-.01-8.379.02-17.494.02-25.869 0-.125.02-.424-.28-.344m-13.5 41.055c1.45 1.081 2.83 2.263 4.26 3.38.11.081.31.103.45.07 2.46-.614 4.91-1.24 7.37-1.866.42-.103.85-.173 1.28-.32.41-.142.06-.444-.03-.516-1.32-1.053-2.65-2.104-3.97-3.168-.2-.164-.38-.193-.63-.13-2.26.581-4.52 1.15-6.78 1.723-.64.162-1.29.331-1.93.493-.08.023-.24.176-.02.334m-13.46 3.514c1.43 1.073 2.79 2.238 4.2 3.346.09.073.29.09.41.057 2.55-.635 5.57-1.435 8.11-2.078.62-.116.79-.358.58-.562-1.36-1.083-2.72-2.16-4.07-3.254a.653.653 0 0 0-.64-.13c-1.29.34-2.59.664-3.88.996-1.41.353-3.29.865-4.72 1.228-.1.03-.26.201.01.397m40.23-6.044c-1.42-1.087-2.84-2.166-4.24-3.26-.24-.185-.44-.22-.72-.147-2.25.578-4.96 1.333-7.21 1.904-.27.068-.54.136-.82.214-.16.043-.46.16-.19.372 1.4 1.093 2.79 2.21 4.17 3.327a.6.6 0 0 0 .6.121c2.08-.53 4.16-1.053 6.24-1.58.52-.13 1.49-.455 2.04-.596.3-.078.21-.29.13-.355M47.54 67.898c-1.33-1.056-2.65-2.115-3.99-3.159-.1-.08-.31-.088-.45-.056-2.34.583-5.13 1.337-7.46 1.932-.39.096-.78.198-1.17.302-.12.025-.32.171-.1.33 1.44 1.014 2.75 2.204 4.13 3.288.1.075.29.081.42.046 2.33-.654 5.11-1.48 7.44-2.142.33-.095.65-.19 1.02-.302.12-.033.35-.1.16-.239m.56-3.952c1.22.827 2.31 1.83 3.45 2.754.18.138.32.17.54.1 2.51-.72 5.02-1.43 7.53-2.146.28-.082.56-.16.85-.248.35-.108.23-.298.15-.357-1.12-.897-2.25-1.787-3.37-2.695a.582.582 0 0 0-.57-.118c-1.89.487-3.78.955-5.67 1.434-1.01.258-1.55.485-2.88.744a.294.294 0 0 0-.03.532m-16.52-8.74c-1.15-.919-2.31-1.829-3.45-2.758-.2-.159-.38-.209-.63-.15-2.62.603-8.49 1.965-8.58 1.977-.39.055-.38.284-.32.332 1.24.996 2.49 1.986 3.73 2.992.19.147.35.188.57.132 1.76-.457 3.97-1.008 5.72-1.46.92-.23 1.84-.464 2.8-.709.15-.038.42-.168.16-.356m.85-3.729c1.18.914 2.32 1.856 3.5 2.773.1.075.29.087.42.056 2.17-.539 4.33-1.087 6.5-1.635.74-.186 1.47-.377 2.24-.575.12-.029.35-.132.14-.297-1.07-.847-2.14-1.693-3.2-2.549-.19-.16-.37-.18-.6-.127-1.91.44-3.82.872-5.72 1.31-1.06.24-2.12.483-3.21.738-.1.021-.29.136-.07.306m29.18 8.952c1.04.832 2.08 1.655 3.12 2.49.18.152.34.186.57.117 2.34-.675 5.08-1.497 7.42-2.166.22-.062.44-.106.67-.189.38-.14.31-.335.23-.4-1.03-.788-2.06-1.573-3.08-2.368a.554.554 0 0 0-.54-.107c-1.65.422-3.71.993-5.36 1.413-.99.25-1.97.501-3 .763-.14.035-.26.265-.03.447m-3.49-12.035c-.94-.734-1.9-1.468-2.86-2.18-.11-.089-.33-.105-.48-.073-2.2.492-4.92 1.062-7.11 1.558-.39.09-.78.18-1.19.278-.13.031-.34.182-.08.35 1.01.81 2.03 1.61 3.03 2.425.18.142.34.167.55.112 1.92-.496 3.84-.976 5.76-1.465.62-.158 1.81-.336 2.44-.55.3-.103.03-.394-.06-.455"/>
        <path d="M32.88 38.87c-1.96-3.303-3.9-6.55-5.88-9.87 3.84.329 7.61.642 11.45.974-.61.973-1.19 1.898-1.78 2.858 2.31 1.44 4.6 2.879 6.91 4.327-.67 1.067-1.32 2.109-1.99 3.184-2.31-1.448-4.6-2.881-6.92-4.33l-1.79 2.857"/>
    </g>
</svg>
