<svg xmlns="http://www.w3.org/2000/svg" width="41" height="41" viewBox="0 0 41 41">
    <g fill="#00609C" fill-rule="evenodd">
        <path d="M20.239 40.48C9.08 40.48 0 31.401 0 20.238 0 9.079 9.08 0 20.239 0 31.399 0 40.48 9.079 40.48 20.238c0 11.163-9.081 20.242-20.241 20.242m0-39.016c-10.352 0-18.774 8.422-18.774 18.774 0 10.355 8.422 18.779 18.774 18.779s18.779-8.424 18.779-18.779c0-10.352-8.427-18.774-18.779-18.774"/>
        <path d="M25.868 6.272v13.272c0 .123.029.203.133.281 3.482 2.664 6.979 5.306 10.441 7.997.159.128.096.371-.036.408l-.581.166c-2.829.81-5.662 1.614-8.495 2.423-3.168.903-6.004 1.712-9.173 2.621-.365.12-.548.066-.827-.14a14229.4 14229.4 0 0 0-10.083-8.058c-.028-.02-.247-.204-.247-.66v-13.6c0-.348.298-.398.351-.409L24.837 6.2c.248-.063.499-.13.746-.197.077-.025.285.086.285.27m-1.577 1.606c-5.098 1.273-10.584 2.608-15.683 3.877-.122.03-.142.088-.142.2.001 3.581-.01 7.485-.01 11.066 0 .157.109.146.15.137 1.936-.443 4.072-.918 6.007-1.359 3.143-.717 6.475-1.466 9.623-2.176.121-.03.167-.072.167-.208-.005-3.688.01-7.699.01-11.386 0-.055.009-.187-.122-.15m-5.946 18.068c.643.476 1.247.995 1.878 1.488.046.035.136.045.197.03 1.082-.27 2.162-.546 3.242-.82.186-.047.374-.077.563-.142.182-.063.028-.195-.011-.226-.581-.465-1.165-.927-1.745-1.395-.091-.073-.168-.085-.277-.058-.996.256-1.992.506-2.988.76-.281.071-.566.145-.846.215-.037.01-.109.078-.013.148m-5.922 1.546c.629.473 1.229.985 1.848 1.473.042.031.127.04.183.025 1.119-.28 2.449-.63 3.566-.916.274-.049.35-.156.257-.246-.596-.476-1.198-.952-1.793-1.433a.282.282 0 0 0-.278-.056c-.57.15-1.14.291-1.711.438-.618.154-1.445.38-2.075.54-.048.014-.115.088.003.175m17.704-2.659c-.62-.479-1.247-.955-1.864-1.436a.33.33 0 0 0-.319-.065c-.988.256-2.18.587-3.174.84l-.359.092c-.069.02-.202.07-.082.165.616.48 1.225.972 1.835 1.462.087.07.161.083.264.055.914-.233 1.83-.462 2.746-.695.229-.057.655-.2.896-.264.133-.033.096-.126.057-.154m-8.367 5.767c-.583-.466-1.166-.93-1.752-1.389-.046-.037-.138-.04-.2-.027-1.031.257-2.257.588-3.286.851l-.512.133c-.05.011-.139.075-.042.145.632.447 1.207.97 1.817 1.447.041.034.128.037.183.02 1.028-.288 2.249-.65 3.275-.94.144-.045.285-.086.447-.135.053-.015.157-.045.07-.105m.248-1.74c.536.364 1.016.805 1.521 1.211.076.062.14.075.237.045 1.103-.316 2.209-.629 3.312-.945.126-.035.247-.07.376-.108.154-.048.102-.132.067-.157-.495-.396-.992-.787-1.487-1.186a.247.247 0 0 0-.25-.05c-.831.213-1.663.418-2.494.63-.444.112-.682.212-1.268.325-.057.013-.145.147-.014.235m-7.267-3.846c-.508-.404-1.018-.805-1.521-1.214a.294.294 0 0 0-.276-.066c-1.153.266-3.736.864-3.779.871-.169.023-.167.125-.14.145.548.44 1.099.875 1.644 1.318a.262.262 0 0 0 .251.056c.773-.2 1.744-.443 2.517-.64.405-.102.807-.207 1.23-.313.067-.017.183-.074.074-.157m.371-1.642c.517.402 1.023.817 1.543 1.221.042.034.126.04.184.025.953-.237 1.906-.479 2.859-.72.326-.08.648-.165.985-.253.053-.012.157-.057.061-.13-.469-.372-.938-.745-1.405-1.122-.087-.07-.163-.08-.265-.056-.84.194-1.681.384-2.519.576-.466.107-.932.213-1.41.325-.048.01-.127.061-.033.134m12.844 3.94c.457.366.917.73 1.37 1.097a.246.246 0 0 0 .252.052c1.029-.298 2.237-.66 3.266-.954.096-.028.194-.046.295-.085.167-.06.138-.146.101-.175-.452-.347-.904-.692-1.355-1.04-.078-.063-.148-.07-.239-.05-.726.187-1.63.438-2.357.623l-1.321.336c-.062.015-.115.117-.012.196m-1.534-5.296a77.633 77.633 0 0 0-1.262-.96c-.048-.038-.144-.046-.212-.032-.966.216-2.165.468-3.128.686l-.523.123c-.055.012-.153.078-.037.153.445.356.894.71 1.336 1.068a.242.242 0 0 0 .239.05c.846-.219 1.69-.43 2.536-.647.275-.068.795-.147 1.075-.24.133-.046.012-.173-.024-.2"/>
        <path d="M14.586 17.343L12 13c1.69.144 3.348.282 5.037.428l-.785 1.258c1.018.633 2.025 1.267 3.044 1.904-.295.47-.578.929-.876 1.402-1.015-.638-2.026-1.268-3.043-1.906l-.791 1.257"/>
    </g>
</svg>
