<svg xmlns="http://www.w3.org/2000/svg" width="17" height="17" viewBox="0 0 17 17">
    <g fill="#00609C" fill-rule="nonzero">
        <path d="M10.814 1.922h5.225L15.08.96v5.225a1 1 0 0 0 .28.68c.167.168.44.293.68.281.248-.012.506-.092.68-.28a.997.997 0 0 0 .281-.68V4.423v-2.82-.643C17 .442 16.56 0 16.04 0h-5.226a1 1 0 0 0-.68.28c-.168.168-.293.44-.281.68.012.249.092.506.28.681.189.171.42.28.68.28z"/>
        <path d="M8.02 10.343l.866-.865L10.963 7.4l2.513-2.512 2.171-2.172c.353-.352.707-.7 1.056-1.055l.016-.016A.99.99 0 0 0 17 .964a.982.982 0 0 0-.281-.682c-.183-.168-.424-.293-.682-.281a1.012 1.012 0 0 0-.683.281l-.865.865-2.077 2.077-2.513 2.512-2.171 2.172c-.353.352-.707.7-1.056 1.055l-.016.016a.99.99 0 0 0-.281.682c0 .237.104.518.281.682.183.168.424.293.682.281.257-.011.498-.098.683-.281z"/>
        <path d="M15.08 10.063V14.203c0 .227.017.462-.014.688l.035-.257a1.467 1.467 0 0 1-.088.324l.096-.23c-.046.11-.106.21-.177.307l.15-.195a1.516 1.516 0 0 1-.249.249l.195-.15a1.425 1.425 0 0 1-.306.177c.077-.033.154-.066.229-.096a1.437 1.437 0 0 1-.324.088l.257-.034c-.158.02-.322.013-.482.013H3.782c-.49 0-.979.004-1.466 0-.065 0-.13-.004-.196-.013l.256.034a1.466 1.466 0 0 1-.324-.088l.23.096a1.473 1.473 0 0 1-.307-.177l.195.15a1.516 1.516 0 0 1-.249-.249l.15.195a1.426 1.426 0 0 1-.177-.306l.097.229a1.438 1.438 0 0 1-.089-.324l.035.257c-.021-.158-.014-.322-.014-.482v-.894-2.982-3.626-3.12c0-.49-.004-.98 0-1.467 0-.065.004-.13.014-.196l-.035.256c.017-.112.046-.218.089-.324l-.097.23c.047-.11.106-.21.178-.307l-.15.195c.072-.093.155-.175.248-.249l-.195.15c.095-.07.197-.13.306-.177l-.229.097c.104-.043.212-.072.324-.089l-.256.035c.19-.025.389-.014.58-.014H6.945c.247 0 .507-.108.682-.28.168-.169.293-.442.281-.683-.011-.248-.092-.507-.28-.682a.999.999 0 0 0-.683-.281h-4.1c-.18 0-.358-.002-.538 0-.41.004-.826.112-1.178.324A2.17 2.17 0 0 0 .61.75C.46.922.325 1.1.234 1.31c-.058.135-.121.27-.158.412a3.017 3.017 0 0 0-.071.476C0 2.236 0 2.272 0 2.311v11.746c0 .38-.013.755.056 1.132.077.426.33.854.637 1.152.16.154.345.299.545.395.135.066.276.127.42.172.149.044.307.061.459.079.113.013.227.013.34.013h12.233a2.454 2.454 0 0 0 1.069-.264c.389-.187.741-.541.946-.919.188-.349.288-.73.292-1.127.004-.578 0-1.156 0-1.734v-2.46-.44c0-.248-.108-.508-.28-.683-.168-.167-.442-.293-.683-.281-.248.011-.506.092-.682.281a1.064 1.064 0 0 0-.273.69z"/>
    </g>
</svg>
