<svg xmlns="http://www.w3.org/2000/svg" width="41" height="41" viewBox="0 0 41 41">
    <g fill="#00609C" fill-rule="evenodd">
        <path d="M20.238 40.48C9.079 40.48 0 31.399 0 20.239S9.079 0 20.238 0C31.398 0 40.48 9.079 40.48 20.239S31.398 40.48 20.238 40.48m0-39.017c-10.351 0-18.777 8.423-18.777 18.776 0 10.354 8.426 18.776 18.777 18.776 10.353 0 18.779-8.422 18.779-18.776 0-10.353-8.426-18.776-18.779-18.776"/>
        <path d="M33.113 27.056H19.499c-.428 0-.499-.121-.499-.47V8.597c0-.396.101-.597.56-.597h13.475c.382 0 .542.171.542.446v18.14c0 .304-.1.47-.464.47m-.993-1.81V9.871c0-.26-.104-.405-.424-.405H20.839c-.259 0-.345.152-.345.421v15.297c0 .216.086.351.331.351h10.977c.185 0 .318-.091.318-.289M5.127 17.444c1.166-1.417 2.353-2.883 3.513-4.297A.345.345 0 0 1 8.944 13c2.936.006 5.875.005 8.81.005.048 0 .329.066.329.341V26.7c0 .137 0 .409-.344.409H5.346c-.112 0-.332-.121-.332-.409 0-2.792-.025-7.525-.008-8.796a.99.99 0 0 1 .12-.46m11.495 7.853V14.748c0-.213-.071-.307-.285-.307h-1.25c-.23 0-.29.077-.29.292v6.845c0 .193-.137.366-.35.366H6.808c-.2 0-.3.075-.3.304v3.003c0 .245.07.366.316.366h9.48c.23 0 .317-.091.317-.32m-9.875-4.849h6.236c.246 0 .344-.091.344-.287v-5.49c0-.167-.07-.221-.253-.221-1.146 0-2.281-.012-3.43-.009-.053 0-.12.042-.154.084-.967 1.174-1.964 2.442-2.928 3.621a.365.365 0 0 0-.072.207c-.006.577.009 1.277.009 1.851 0 .185.08.244.248.244M29.907 30.222c-.037-.012-.072-.026-.108-.035-.477-.109-.792-.526-.799-1.056-.009-.542.296-.97.771-1.093.613-.155 1.185.171 1.328.761.151.624-.163 1.293-.82 1.398-.018.003-.035.016-.052.025h-.32M8.933 30.223c-.056-.015-.111-.031-.17-.045-.477-.13-.781-.57-.762-1.113.015-.46.273-.846.668-.993.412-.156.906-.053 1.183.26.3.34.353.743.224 1.163a.96.96 0 0 1-.801.703c-.017.003-.034.016-.05.025h-.292"/>
    </g>
</svg>
