<svg xmlns="http://www.w3.org/2000/svg" width="92" height="92" viewBox="0 0 92 92">
    <g fill="#FFFFFE" fill-rule="evenodd">
        <path d="M45.98 91.973C20.62 91.973 0 71.342 0 45.985 0 20.629 20.62 0 45.98 0c25.36 0 45.99 20.629 45.99 45.985 0 25.357-20.63 45.988-45.99 45.988m0-88.648c-23.52 0-42.66 19.137-42.66 42.66 0 23.526 19.14 42.662 42.66 42.662 23.52 0 42.66-19.136 42.66-42.662 0-23.523-19.14-42.66-42.66-42.66"/>
        <path d="M75.07 61.296H44.14c-.98 0-1.14-.273-1.14-1.068V19.356c0-.901.23-1.356 1.27-1.356h30.62c.87 0 1.23.386 1.23 1.012v41.216c0 .693-.22 1.068-1.05 1.068m-2.26-4.111V22.25c0-.59-.23-.92-.96-.92H47.18c-.59 0-.78.345-.78.956v34.759c0 .487.19.794.75.794h24.94c.42 0 .72-.206.72-.654M11.29 40.096c2.65-3.218 5.35-6.548 7.98-9.761.19-.239.38-.335.69-.335 6.67.015 13.35.009 20.02.009.11 0 .75.153.75.775v30.344c0 .31 0 .929-.78.929H11.79c-.26 0-.76-.273-.76-.929 0-6.345-.05-17.098-.02-19.987.01-.458.2-.939.28-1.045M37.41 57.94V33.971c0-.484-.17-.694-.65-.694h-2.84c-.52 0-.66.173-.66.659V49.49c0 .44-.31.832-.79.832H15.11c-.45 0-.68.171-.68.69v6.825c0 .553.16.83.72.83h21.54c.52 0 .72-.207.72-.727M14.97 46.923h14.17c.55 0 .78-.208.78-.654V33.798c0-.381-.16-.504-.57-.504-2.61 0-5.19-.026-7.8-.017-.12 0-.27.093-.35.189-2.2 2.667-4.46 5.548-6.65 8.227a.887.887 0 0 0-.17.47c-.01 1.308.03 2.902.03 4.208 0 .416.18.552.56.552M66.06 69.05l-.25-.08c-1.08-.246-1.79-1.194-1.81-2.399-.02-1.23.67-2.204 1.75-2.484 1.39-.352 2.69.39 3.02 1.73.34 1.417-.37 2.94-1.87 3.175l-.11.057h-.73M20.113 69.049c-.12-.032-.25-.07-.38-.1-1.08-.296-1.78-1.296-1.73-2.53.03-1.047.62-1.922 1.51-2.255.94-.355 2.06-.121 2.69.589.69.774.8 1.688.51 2.644-.27.888-.88 1.433-1.82 1.596l-.11.056h-.67"/>
    </g>
</svg>
