<svg xmlns="http://www.w3.org/2000/svg" width="94" height="94" viewBox="0 0 94 94">
    <g fill="#FFFFFE" fill-rule="evenodd">
        <path d="M46.569 3.294c-23.868 0-43.281 19.608-43.281 43.709 0 24.098 19.413 43.707 43.281 43.706 23.858 0 43.274-19.608 43.274-43.706 0-24.101-19.416-43.709-43.274-43.709m0 90.702C20.891 93.996 0 72.916 0 47.003 0 21.087 20.891 0 46.569 0c25.675 0 46.559 21.087 46.559 47.003 0 25.913-20.884 46.993-46.559 46.993"/>
        <path d="M46.388 55.158l1.363-.845-4.54-7.301.002.008c-4.127-6.624-3.987-14.57.366-21.044l3.424-5.069 3.23 5.193c4.118 6.622 3.966 14.568-.378 21.033l-4.803 7.13 1.336.895 1.363-.845-1.363.845 1.332.902 4.802-7.126c5.047-7.461 5.232-16.891.44-24.536L47.11 15l-6.198 9.173c-5.058 7.478-5.222 16.913-.421 24.558l.009.014 5.829 9.375 1.392-2.06-1.332-.902"/>
        <path d="M46.284 76.884v1.61c5.358-.014 10.811-2.458 15.288-5.997 4.464-3.559 7.988-8.235 9.252-13.11.952-3.747 1.566-8.845 1.572-14.121 0-.361-.006-.724-.009-1.08L72.349 42l-2.072.685c-.034.007-3.219 1.053-6.985 2.736-3.772 1.707-8.103 3.941-10.627 6.763-6.664 7.604-7.751 18.024-7.907 23.443l1.607.041h1.61c-.009-2.918-.884-7.183-2.328-11.539-1.448-4.346-3.436-8.703-5.919-11.647-2.617-3.053-6.972-5.261-10.723-6.87-3.749-1.591-6.886-2.487-6.926-2.496l-1.97-.565-.081 2.047c0 .022-.028.841-.028 2.146.009 3.042.148 8.597 1.334 12.817 1.323 4.661 4.433 9.332 8.761 12.907 4.329 3.56 9.928 6.026 16.189 6.026v-3.22c-5.407.003-10.291-2.125-14.143-5.292-3.849-3.159-6.611-7.375-7.712-11.298-1.028-3.586-1.222-9.043-1.215-11.94 0-1.253.031-2.022.031-2.022l-1.607-.06-.439 1.548s.17.045.502.154a64.38 64.38 0 0 1 7.397 2.799c3.185 1.441 6.517 3.405 8.178 5.398 2.025 2.371 3.967 6.484 5.323 10.583 1.366 4.088 2.165 8.241 2.159 10.524l3.217.041c.108-5.092 1.285-14.855 7.106-21.398 1.801-2.081 5.924-4.366 9.519-5.953a82.672 82.672 0 0 1 6.155-2.443c.339-.12.525-.177.525-.177l-.506-1.532-1.606.03c.004.342.009.684.009 1.03.004 5.02-.602 9.929-1.469 13.321-.988 3.926-4.098 8.198-8.138 11.39-4.03 3.206-8.942 5.314-13.286 5.297v1.61"/>
    </g>
</svg>
