<svg xmlns="http://www.w3.org/2000/svg" width="92" height="92" viewBox="0 0 92 92">
    <g fill="#FFFFFE" fill-rule="evenodd">
        <path d="M45.985 91.975C20.633 91.975 0 71.343 0 45.988 0 20.631 20.633 0 45.985 0c25.357 0 45.988 20.631 45.988 45.988 0 25.355-20.631 45.987-45.988 45.987m0-88.65c-23.522 0-42.662 19.139-42.662 42.663 0 23.521 19.14 42.662 42.662 42.662 23.524 0 42.663-19.141 42.663-42.662 0-23.524-19.139-42.663-42.663-42.663"/>
        <path d="M58.786 11c.593.11 1.202.189 1.783.345 4.32 1.143 7.255 5.205 7.002 9.668-.258 4.579-3.619 8.248-8.168 8.917-5.168.757-10.086-2.973-10.725-8.145a13.167 13.167 0 0 1-.07-1.72c.003-.254-.074-.35-.293-.431-1.229-.435-2.459-.356-3.692-.036-.625.161-.625.165-.625.814 0 4.655-3.099 8.469-7.66 9.425-5.15 1.082-10.35-2.486-11.203-7.688-.853-5.191 2.411-9.918 7.571-10.969.356-.072.716-.122 1.074-.18h1.46l.218.061c3.254.383 5.687 2.009 7.337 4.822.131.224.23.271.486.194 1.448-.43 2.923-.626 4.427-.416.653.094 1.294.267 1.96.407l.12-.194c1.352-2.345 3.331-3.876 5.942-4.569.543-.142 1.107-.204 1.66-.305h1.396zm-.692 15.266c3.22-.012 5.76-2.604 5.75-5.858-.013-3.099-2.638-5.647-5.797-5.641-3.203.009-5.73 2.609-5.712 5.886.012 3.053 2.66 5.627 5.76 5.613zm-23.585 0c3.353-.02 5.83-2.836 5.745-5.967-.086-3.034-2.709-5.561-5.87-5.532-3.13.029-5.67 2.651-5.644 5.825.027 3.122 2.65 5.697 5.77 5.674zM15 35.491l.131-.335c.273-.693.772-1.085 1.527-1.138.107-.008.22-.005.329-.005 19.217 0 38.434.008 57.651-.013 1.788-.002 2.304 1.714 1.737 2.832-.283.555-.745.866-1.369.92a5.455 5.455 0 0 1-.465.016c-19.159 0-38.321 0-57.48.006-.636 0-1.233-.094-1.631-.638-.188-.25-.293-.561-.43-.846v-.799M53.78 69.9c-.766-.6-1.532-1.258-2.357-1.829-1.225-.86-2.482-1.668-3.738-2.468-.79-.506-1.708-.62-2.602-.744a615.629 615.629 0 0 0-10.072-1.343c-3.011-.366-6.03-.67-9.051-.975-1.265-.128-2.54-.174-3.767-.558-1.736-.54-3.246-1.407-4.274-2.969-1.52-2.312-1.344-6.51 1.973-8.202 1.41-.728 2.93-.974 4.48-.813 3.67.376 7.334.81 10.992 1.248 2.307.273 4.61.6 6.915.902.087.01.174.014.317.03-.073-.11-.11-.178-.16-.242-.817-1.08-1.458-2.243-1.744-3.585-.653-3.052 1.42-5.436 3.764-6.099 1.61-.453 3.168-.266 4.718.304 2.624.967 5.124 2.207 7.562 3.571 3.384 1.898 6.738 3.866 10.095 5.82 1.108.643 1.686 1.695 2.04 2.885.408 1.35.51 2.742.464 4.14-.04 1.204-.153 2.41-.256 3.61-.02.24.043.317.273.377 1.138.297 1.979.978 2.496 2.03.866 1.746 1.709 3.5 2.556 5.252.923 1.923.157 4.19-1.753 5.125a1930.383 1930.383 0 0 1-11.494 5.582c-1.971.952-4.197.186-5.168-1.763a288.62 288.62 0 0 1-2.555-5.254c-.596-1.264-.51-2.515.206-3.715l.135-.23.005-.087M24.009 53.726c-1.153 0-1.816.137-2.36.405-.444.223-.711.573-.827 1.055-.232 1.003.093 1.884.932 2.482.872.621 1.878.89 2.919.998 3.338.352 6.68.637 10.014 1.03 3.648.431 7.283.962 10.926 1.44 1.858.237 3.554.861 5.13 1.877a53.419 53.419 0 0 1 6.023 4.53c.194.165.338.208.576.091 2.518-1.222 5.045-2.425 7.562-3.652a.493.493 0 0 0 .243-.308c.29-1.863.529-3.733.417-5.622-.041-.763-.187-1.53-.348-2.287-.057-.249-.256-.545-.475-.674-3.561-2.067-7.12-4.142-10.712-6.145-2.047-1.145-4.156-2.184-6.392-2.929-.493-.164-1.033-.207-1.557-.247-.251-.016-.534.065-.77.168-.85.382-1.241 1.067-.8 2.131.76 1.823 2.117 3.052 3.826 3.951.397.213.798.446 1.132.747 1.415 1.27 1.019 3.377-.744 3.93a3.247 3.247 0 0 1-1.275.117c-.788-.086-1.565-.285-2.35-.408-2.19-.34-4.375-.685-6.57-.983-2.094-.282-4.196-.513-6.295-.76a862.91 862.91 0 0 0-5.545-.64c-.987-.115-1.98-.219-2.68-.297m43.974 13.051A8456.385 8456.385 0 0 1 57.012 72.1c-.208.1-.204.204-.114.384.798 1.63 1.599 3.258 2.383 4.891.095.198.175.233.373.137 3.71-1.81 7.42-3.606 11.133-5.406.218-.103.262-.202.152-.426-.594-1.186-1.168-2.386-1.748-3.576-.195-.403-.39-.808-.595-1.212-.165-.322-.501-.169-.613-.115"/>
    </g>
</svg>
