<svg xmlns="http://www.w3.org/2000/svg" width="92" height="92" viewBox="0 0 92 92">
    <g fill="#FFFFFE" fill-rule="evenodd">
        <path d="M45.986 91.973C20.634 91.973 0 71.344 0 45.988 0 20.629 20.634 0 45.986 0c25.356 0 45.988 20.629 45.988 45.988 0 25.356-20.632 45.985-45.988 45.985m0-88.648c-23.522 0-42.662 19.136-42.662 42.663 0 23.521 19.14 42.661 42.662 42.661 23.523 0 42.662-19.14 42.662-42.661 0-23.527-19.139-42.663-42.662-42.663"/>
        <path d="M14.222 37.975c1.861-.717 3.804-1.208 5.699-1.814 9.725-3.103 19.45-6.209 29.173-9.316.651-.209 1.28-.514 1.943-.664 2.297-.514 4.359.093 6.227 1.453 1.817 1.332 3.11 3.1 4.16 5.068 1.307 2.455 2.133 5.072 2.654 7.791a35.19 35.19 0 0 1 .622 6.371c.035 4.296-.577 8.473-2.358 12.422-.891 1.976-2.064 3.745-3.77 5.118-1.44 1.154-3.126 1.627-4.987 1.605-1.023-.013-4.498-.982-5.32-1.184-5.61-1.372-11.22-2.732-16.831-4.095-4.593-1.123-13.079-3.213-16.112-3.93-.877-.214-1.123-.527-1.209-1.599-.169-2.087-.558-7.526-.754-10.252C13.271 43.77 13 41.68 13 40.173c0-1.33.382-1.874 1.222-2.198M45.113 60.38c-2.291-4.248-3.248-9.264-3.438-13.982-.189-4.674.422-9.726 2.344-14.068.071-.162.15-.467-.317-.33-1.466.438-2.918.934-4.375 1.402-7.345 2.34-15.299 4.726-22.645 7.07-.455.147-.455.147-.418.644.104 1.378.208 3.272.311 4.652.171 2.362.321 5.22.495 7.583.057.72.067.718.772.892 8.242 2.005 17.098 3.973 25.341 5.983.557.138 1.123.24 1.709.41.39.116.286-.138.221-.256m-.17-15.543c0 .648-.024 1.3.005 1.94.138 2.804.616 5.55 1.504 8.21.76 2.287 1.769 4.446 3.383 6.268 2.59 2.86 5.04 2.147 5.661 1.785.417-.239.83-.503 1.191-.82 1.28-1.13 2.116-2.579 2.779-4.132 1.287-3.005 1.828-6.173 1.963-9.42a33.276 33.276 0 0 0-.834-8.98c-.619-2.642-1.534-5.168-3.065-7.439-.82-1.224-1.784-2.316-3.105-3.029-.653-.355-1.365-.623-2.1-.484-1.18.226-2.256.681-3.1 1.617-1.18 1.31-2.013 2.813-2.635 4.44-1.235 3.238-1.68 6.605-1.647 10.044M71.232 21c.5.16.963.38 1.3.806.6.756.54 1.683-.177 2.32a324.302 324.302 0 0 1-4.105 3.578c-1.074.917-2.795.374-3.181-.994-.2-.695.046-1.258.572-1.72 1.188-1.033 2.369-2.056 3.55-3.098.418-.367.835-.723 1.377-.892h.664M73.421 44.028c.883 0 1.773-.008 2.658.002 1.43.01 2.287 1.278 1.79 2.628-.255.703-.839 1.14-1.594 1.14a348.72 348.72 0 0 1-5.51-.048c-.97-.013-1.655-.653-1.749-1.58-.115-1.066.38-1.916 1.286-2.105.427-.09.882-.053 1.322-.06.598-.01 1.2-.001 1.797-.001v.024M67.13 64c.172.07.516.153.775.346a235.274 235.274 0 0 1 4.119 3.094c.672.515 1.078 1.169.885 2.071-.263 1.224-1.931 1.906-2.952 1.075-1.26-1.026-2.594-1.968-3.887-2.953a3.383 3.383 0 0 1-.59-.536c-.483-.597-.641-1.263-.29-1.98.355-.722.979-1.052 1.94-1.117"/>
    </g>
</svg>
