<svg xmlns="http://www.w3.org/2000/svg" width="41" height="41" viewBox="0 0 41 41">
    <g fill="#00609C" fill-rule="evenodd">
        <path d="M20.239 40.48C9.081 40.48 0 31.401 0 20.241 0 9.08 9.081 0 20.239 0c11.16 0 20.24 9.08 20.24 20.241 0 11.16-9.08 20.239-20.24 20.239m0-39.015c-10.354 0-18.776 8.422-18.776 18.776 0 10.353 8.422 18.776 18.776 18.776s18.777-8.423 18.777-18.776c0-10.354-8.423-18.776-18.777-18.776"/>
        <path d="M6.537 16.272c.82-.315 1.674-.532 2.509-.799 4.28-1.365 8.561-2.732 12.838-4.1.289-.093.565-.227.857-.293 1.011-.227 1.918.041 2.741.64.799.586 1.368 1.364 1.831 2.23.574 1.081.938 2.233 1.168 3.43.176.927.265 1.86.273 2.804.016 1.891-.253 3.728-1.037 5.467-.393.871-.908 1.648-1.661 2.253-.632.508-1.374.716-2.194.706-.45-.006-1.979-.433-2.342-.52-2.469-.605-4.938-1.204-7.408-1.805-2.02-.494-5.756-1.413-7.091-1.729-.386-.093-.494-.23-.532-.7a934.46 934.46 0 0 1-.331-4.515C6.118 18.822 6 17.902 6 17.238c0-.584.168-.824.537-.966m13.596 9.86c-1.007-1.869-1.428-4.077-1.513-6.153-.083-2.057.186-4.28 1.032-6.192.031-.072.066-.205-.14-.145-.644.193-1.283.411-1.925.616-3.232 1.03-6.733 2.08-9.967 3.113-.2.065-.2.065-.184.283.046.606.092 1.441.137 2.048.075 1.038.141 2.296.218 3.337.026.316.029.316.341.392 3.627.883 7.524 1.75 11.152 2.635.245.06.495.104.752.18.172.051.126-.062.097-.114m-.075-6.84c0 .284-.009.57.003.853.061 1.234.271 2.443.662 3.614.334 1.007.779 1.957 1.488 2.76 1.141 1.256 2.219.943 2.493.785a3.41 3.41 0 0 0 .524-.36c.563-.499.932-1.138 1.223-1.82.566-1.323.805-2.718.864-4.147a14.666 14.666 0 0 0-.367-3.95c-.273-1.166-.675-2.277-1.349-3.277-.362-.537-.786-1.018-1.366-1.332-.288-.156-.601-.273-.925-.214-.519.102-.994.3-1.365.712-.519.578-.886 1.238-1.16 1.955-.544 1.425-.739 2.906-.725 4.42M31.743 9c.22.07.423.167.572.355.264.332.237.74-.078 1.022-.6.527-1.198 1.056-1.806 1.574-.473.404-1.23.164-1.401-.438-.086-.304.02-.553.253-.758.523-.454 1.042-.905 1.562-1.363.184-.161.367-.318.607-.392h.29M32.946 19.012c.39 0 .781-.003 1.171 0 .628.007 1.006.564.788 1.158a.725.725 0 0 1-.702.501c-.808 0-1.619-.007-2.426-.02-.427-.006-.728-.288-.77-.696-.05-.47.168-.843.566-.927.188-.04.39-.022.582-.026.264-.005.528 0 .791 0v.01M29.937 28c.077.033.227.069.341.154.611.446 1.213.903 1.813 1.361.296.228.475.515.39.912-.116.539-.85.839-1.3.474-.554-.452-1.14-.866-1.71-1.299a1.77 1.77 0 0 1-.26-.236c-.213-.264-.282-.558-.128-.872.158-.319.431-.463.854-.494"/>
    </g>
</svg>
