<svg xmlns="http://www.w3.org/2000/svg" width="41" height="42" viewBox="0 0 41 42">
    <g fill="#00609C" fill-rule="evenodd">
        <path d="M20.497 1.45c-10.507 0-19.05 8.63-19.05 19.237 0 10.606 8.543 19.237 19.05 19.237 10.501 0 19.044-8.631 19.044-19.237 0-10.607-8.543-19.237-19.044-19.237m0 39.919C9.195 41.369 0 32.092 0 20.687 0 9.281 9.195 0 20.497 0c11.299 0 20.49 9.281 20.49 20.687 0 11.405-9.191 20.682-20.49 20.682"/>
        <path d="M20.132 23.673l.6-.371-1.997-3.213v.003c-1.817-2.915-1.754-6.413.162-9.261l1.507-2.232 1.42 2.286c1.813 2.914 1.747 6.412-.165 9.257l-2.114 3.139.587.392.6-.371-.6.371.587.398 2.113-3.135c2.222-3.285 2.303-7.435.194-10.8L20.45 6l-2.728 4.037c-2.226 3.292-2.3 7.445-.186 10.809l.004.005 2.566 4.127.613-.907-.587-.398"/>
        <path d="M20.568 34.352v.708c2.358-.007 4.757-1.08 6.728-2.638 1.966-1.567 3.516-3.626 4.072-5.771.42-1.648.691-3.894.692-6.215 0-.158-.001-.317-.004-.475L32.039 19l-.912.299c-.014.004-1.416.465-3.073 1.205-1.661.75-3.566 1.736-4.678 2.977-2.932 3.347-3.411 7.933-3.48 10.317l.708.019h.709c-.005-1.285-.39-3.16-1.024-5.079-.638-1.912-1.514-3.83-2.606-5.127-1.153-1.343-3.068-2.313-4.721-3.022a28.412 28.412 0 0 0-3.047-1.098l-.868-.249-.036.901c0 .009-.011.369-.011.944.003 1.339.065 3.784.587 5.641.583 2.05 1.951 4.107 3.855 5.68 1.907 1.568 4.371 2.652 7.126 2.652v-1.415c-2.379 0-4.529-.936-6.224-2.331-1.695-1.39-2.91-3.245-3.395-4.973-.452-1.577-.537-3.979-.535-5.254 0-.551.014-.89.014-.89l-.707-.027-.194.68s.076.022.22.071c.517.154 1.853.593 3.257 1.231 1.402.634 2.868 1.499 3.601 2.376.89 1.044 1.746 2.853 2.341 4.658.601 1.799.953 3.626.95 4.631l1.417.019c.047-2.243.564-6.539 3.126-9.419.793-.915 2.607-1.92 4.191-2.62a37.352 37.352 0 0 1 2.708-1.075c.149-.052.232-.078.232-.078l-.223-.674-.707.014c.002.149.003.301.003.452.001 2.21-.265 4.37-.646 5.864-.435 1.726-1.804 3.608-3.583 5.012-1.772 1.411-3.935 2.338-5.846 2.333v.707"/>
    </g>
</svg>
