<svg xmlns="http://www.w3.org/2000/svg" width="94" height="95" viewBox="0 0 94 95">
    <g fill="#FFFFFE" fill-rule="evenodd">
        <path d="M45.424 16.692v19.2l-10.89-5.793c2.62-4.742 6.45-9.464 10.89-13.407zm0 21.93v16.561L30.354 44.63c.03-3.999 1.07-8.183 3.11-12.444l10.75 5.717c.15.08.32.184.5.303.23.134.46.284.71.416zm0 19.414V73.76c-8.59-7.612-13.98-17.074-14.92-26.172l14.92 10.448zm17.33-10.499c-.69 8.76-6.24 18.463-15 26.223V58.036l15-10.499zm-15 7.646V38.781c1.19-.402 2.52-1.28 3.71-2.063.6-.39 1.16-.763 1.59-.992l6.57-3.492c1.95 4.172 3.02 8.34 3.18 12.409l-15.05 10.54zm0-19.291v-19.2c4.48 3.974 8.2 8.604 10.82 13.449l-10.82 5.751zm-.34-22.575l-.09-.072-.19-.109a1.139 1.139 0 0 0-1.07-.005l-.21.114-.06.046c-8.45 6.797-17.56 18.756-17.79 31.928-.24 12.784 9.37 25.15 17.78 31.934v.003c.21.19.5.295.81.295.3 0 .59-.105.79-.285 8.45-6.797 17.56-18.752 17.8-31.93.23-12.821-9.44-25.219-17.77-31.919z"/>
        <path d="M46.7 90.958c-23.93 0-43.4-19.661-43.4-43.827 0-24.17 19.47-43.833 43.4-43.833s43.39 19.663 43.39 43.833c0 24.166-19.46 43.827-43.39 43.827M46.7 0C20.95 0 0 21.142 0 47.131c0 25.982 20.95 47.124 46.7 47.124 25.74 0 46.69-21.142 46.69-47.124C93.39 21.142 72.44 0 46.7 0"/>
    </g>
</svg>
