<svg xmlns="http://www.w3.org/2000/svg" width="92" height="92" viewBox="0 0 92 92">
    <g fill="#FFFFFE" fill-rule="evenodd">
        <path d="M45.99 91.975C20.63 91.975 0 71.344 0 45.986 0 20.632 20.63 0 45.99 0c25.36 0 45.99 20.632 45.99 45.986 0 25.358-20.63 45.989-45.99 45.989m0-88.649c-23.52 0-42.66 19.141-42.66 42.66 0 23.522 19.14 42.663 42.66 42.663 23.52 0 42.66-19.141 42.66-42.663 0-23.52-19.14-42.66-42.66-42.66"/>
        <path d="M85.288 38.166c-2.24-3.477-4.97-5.166-8.36-5.166-4.89 0-10.11 3.578-14.7 6.738-6.26 4.302-12.53 8.718-15.21 10.611 0 0-2.67 1.893-4.09-.821-1.42-2.711-6.92-6.064-13.04-6.064h-.39c-6.38.156-12.08 4.02-13.35 6.954 0 0-1.26 2.93-2.62 2.467-1.35-.463-3.77-.737-5.69-.319-.66.142-.91 1.075-.82 1.926.13 1.303.97 2.09 2.16 1.972 1.32-.152 2.84.095 3.71.405 0 0 .88.308.8.8-.08.494-.16 1.504-.13 2.514.21 8.791 7.52 15.95 16.33 15.95.13 0 .25 0 .38-.004 4.36-.101 8.42-1.9 11.43-5.059a16.217 16.217 0 0 0 4.52-11.656c-.02-1.089-.17-2.195-.3-2.745 0 0-.12-.552 1.77-1.892 1.9-1.341 5.69-4.021 9.49-6.684.97-.68 2.15-1.594 3.39-2.563 4.57-3.568 10.84-8.454 15.82-8.454 2.32 0 4.13 1.04 5.51 3.194.38.586.95.91 1.61.91.77 0 1.52-.447 1.89-1.112.32-.597.29-1.29-.11-1.902m-55.4 33.978c-6.65 0-12.19-5.406-12.34-12.056-.16-6.806 5.25-12.471 12.05-12.633l.29-.002c4.79 0 9.15 2.782 11.17 7.11l-2.17 1.541c-.74.531-1.03 1.407-.75 2.292.27.856 1.01 1.453 1.8 1.453.38 0 .74-.129 1.09-.374.33-.235.66-.467 1-.7l.15-.109c.03.296.05.575.05.847a12.235 12.235 0 0 1-3.41 8.803c-2.29 2.387-5.35 3.752-8.64 3.825l-.29.003M8.905 40.653c.37 0 .74-.125 1.08-.37 2.65-1.884 3.36-2.499 4.05-3.096.69-.607 1.35-1.179 4.08-3.088.98-.686 2.15-1.598 3.4-2.568 4.57-3.568 10.83-8.454 15.81-8.454 2.33 0 4.13 1.044 5.52 3.195.37.585.95.911 1.61.911.76 0 1.52-.443 1.88-1.112.33-.599.29-1.293-.1-1.905-2.2-3.428-5.02-5.166-8.36-5.166-4.9 0-10.11 3.584-14.7 6.736-4.31 2.953-6.13 4.35-8.25 5.964a216.222 216.222 0 0 1-7.07 5.21c-.74.532-1.03 1.41-.75 2.291.27.853 1.01 1.452 1.8 1.452"/>
    </g>
</svg>
