<svg xmlns="http://www.w3.org/2000/svg" width="18" height="19" viewBox="0 0 18 19">
    <g fill="#FFFFFE" fill-rule="evenodd">
        <path d="M12.321 9.286h-.51c.001 2.215-.379 4.219-.967 5.625-.292.703-.638 1.253-.984 1.603-.351.353-.672.495-.974.495-.302 0-.624-.142-.975-.495-.523-.524-1.031-1.502-1.384-2.763-.356-1.262-.567-2.803-.567-4.465-.001-2.215.378-4.219.966-5.624.293-.703.638-1.253.985-1.603.351-.353.673-.495.975-.495.302 0 .623.142.974.495.522.524 1.031 1.502 1.383 2.763.356 1.261.568 2.803.568 4.464h1.02c-.001-2.331-.39-4.443-1.045-6.017-.33-.787-.725-1.443-1.2-1.926-.471-.481-1.053-.8-1.7-.799-.647-.001-1.23.318-1.701.798-.711.726-1.252 1.837-1.64 3.203-.385 1.367-.605 2.993-.605 4.741.001 2.331.39 4.444 1.045 6.018.329.787.724 1.443 1.2 1.927.471.48 1.054.799 1.701.799s1.229-.319 1.7-.799c.711-.727 1.251-1.837 1.639-3.204.385-1.367.606-2.993.606-4.741h-.51"/>
        <path d="M17.077 9.286h-.511a7.698 7.698 0 0 1-2.261 5.461 7.695 7.695 0 0 1-5.46 2.262 7.695 7.695 0 0 1-5.46-2.262 7.695 7.695 0 0 1-2.262-5.461 7.69 7.69 0 0 1 2.262-5.46 7.695 7.695 0 0 1 5.46-2.262c2.134 0 4.061.864 5.46 2.262a7.694 7.694 0 0 1 2.261 5.46h1.021a8.742 8.742 0 0 0-17.484 0 8.744 8.744 0 0 0 8.742 8.744 8.744 8.744 0 0 0 8.742-8.744h-.51"/>
        <path d="M8.845 5.764v-.51c-2.802.003-5.282-.419-6.648-1.007l-.39-.167-.235.353A8.744 8.744 0 0 0 8.845 18.03a8.744 8.744 0 0 0 7.27-13.598l-.235-.352-.39.167c-1.364.588-3.843 1.01-6.645 1.007v1.02c2.908-.004 5.458-.414 7.047-1.089l-.201-.469-.424.283a7.687 7.687 0 0 1 1.299 4.287 7.698 7.698 0 0 1-2.261 5.461 7.695 7.695 0 0 1-5.46 2.262 7.695 7.695 0 0 1-5.46-2.262 7.695 7.695 0 0 1-2.262-5.461c0-1.588.48-3.059 1.298-4.287l-.424-.283-.201.469c1.589.675 4.141 1.085 7.049 1.089v-.51"/>
        <path d="M15.691 4.716l.424-.284A8.733 8.733 0 0 0 8.845.544a8.735 8.735 0 0 0-7.272 3.888l-.342.511.565.242c1.589.675 4.141 1.085 7.049 1.089 2.908-.004 5.458-.414 7.047-1.089l.565-.242-.342-.511-.424.284-.201-.469c-1.364.588-3.843 1.01-6.645 1.007-2.802.003-5.282-.419-6.648-1.007l-.2.469.424.284a7.714 7.714 0 0 1 6.424-3.436 7.712 7.712 0 0 1 6.422 3.435l.424-.283-.201-.469.201.469M1.997 13.856l-.424.284a8.737 8.737 0 0 0 7.272 3.89 8.732 8.732 0 0 0 7.27-3.89l.342-.511-.566-.242c-1.588-.674-4.138-1.084-7.046-1.088-2.908.004-5.46.414-7.049 1.088l-.566.242.343.511.424-.284.2.47c1.366-.588 3.846-1.01 6.648-1.006 2.802-.004 5.281.418 6.645 1.006l.201-.47-.424-.283a7.714 7.714 0 0 1-6.422 3.436 7.716 7.716 0 0 1-6.424-3.436l-.424.283.2.47-.2-.47"/>
    </g>
</svg>
