<svg xmlns="http://www.w3.org/2000/svg" width="178" height="68" viewBox="0 0 178 68">
    <g fill="#FFFFFE" fill-rule="evenodd">
        <path d="M33.4 67.418C14.99 67.418 0 52.295 0 33.709 0 15.121 14.99 0 33.4 0c18.42 0 33.4 15.121 33.4 33.709 0 18.586-14.98 33.709-33.4 33.709m0-65.059c-17.11 0-31.04 14.063-31.04 31.35 0 17.286 13.93 31.35 31.04 31.35 17.12 0 31.04-14.064 31.04-31.35 0-17.287-13.92-31.35-31.04-31.35"/>
        <path d="M18.25 44.66C12.6 44.66 8 40.027 8 34.33 8 28.634 12.6 24 18.25 24c5.64 0 10.24 4.634 10.24 10.33 0 5.697-4.6 10.33-10.24 10.33m0-18.301c-4.35 0-7.89 3.576-7.89 7.971s3.54 7.971 7.89 7.971c4.34 0 7.88-3.576 7.88-7.971s-3.54-7.971-7.88-7.971M47.24 44.66C41.59 44.66 37 40.027 37 34.33 37 28.634 41.59 24 47.24 24s10.25 4.634 10.25 10.33c0 5.697-4.6 10.33-10.25 10.33m0-18.301c-4.35 0-7.88 3.576-7.88 7.971s3.53 7.971 7.88 7.971 7.89-3.576 7.89-7.971-3.54-7.971-7.89-7.971"/>
        <path d="M38.23 29.597c-.03-.03-2.54-3.237-6.28-3.237s-6.07 2.91-6.09 2.939L24 27.855c.12-.157 3.02-3.855 7.95-3.855s8.02 3.999 8.16 4.17l-1.88 1.427"/>
        <g>
            <path d="M78 14.358v-.179C78 9.316 81.4 6 85.95 6c3.86 0 6.72 1.882 7.11 5.825h-3.73c-.26-1.926-1.34-2.957-3.35-2.957-2.54 0-4.15 1.972-4.15 5.288v.18c0 3.316 1.52 5.242 4.17 5.242 1.99 0 3.38-1.008 3.67-3.068h3.56c-.4 3.968-3.24 6.005-7.19 6.005-5.24 0-8.04-3.228-8.04-8.157M95 6.771C95 5.763 95.8 5 96.83 5c1.06 0 1.86.763 1.86 1.771 0 1.009-.8 1.77-1.86 1.77-1.03 0-1.83-.761-1.83-1.77zm.24 15.082h3.23V10.132h-3.23v11.721zM100 16.252v-.179c0-3.675 2.66-6.073 6.18-6.073 3.52 0 6.16 2.353 6.16 6.005v.18c0 3.698-2.66 6.05-6.18 6.05-3.5 0-6.16-2.33-6.16-5.983m9.05-.045v-.157c0-2.241-1.05-3.584-2.87-3.584-1.79 0-2.87 1.298-2.87 3.539v.18c0 2.24 1.03 3.585 2.87 3.585 1.82 0 2.87-1.345 2.87-3.563M114 10.269h3.25v1.86c.59-1.166 1.86-2.129 3.81-2.129 2.31 0 3.95 1.39 3.95 4.527v7.462h-3.25v-6.993c0-1.589-.63-2.352-2.06-2.352-1.39 0-2.45.852-2.45 2.577v6.768H114v-11.72M127 16.275v-.18c0-3.697 2.63-6.095 6.03-6.095 3.03 0 5.72 1.771 5.72 5.96v.897h-8.45c.09 1.95 1.14 3.071 2.91 3.071 1.5 0 2.24-.649 2.44-1.636h3.07c-.38 2.532-2.4 3.943-5.6 3.943-3.54 0-6.12-2.218-6.12-5.96m8.59-1.412c-.11-1.771-1.01-2.622-2.56-2.622-1.46 0-2.44.964-2.69 2.622h5.25M78 33.359v-.18C78 28.495 81.16 25 85.76 25c3.18 0 6.03 1.48 6.52 5.089h-1.95c-.45-2.557-2.2-3.543-4.53-3.543-3.67 0-5.78 2.688-5.78 6.611v.18c0 3.966 1.97 6.564 5.74 6.564 3.47 0 4.97-2.262 5.04-5.108h-4.68v-1.614h6.58v1.189c0 4.637-2.84 7.103-6.94 7.103-4.93 0-7.76-3.429-7.76-8.112M96 29.202h1.85v2.106c.75-1.322 1.75-2.242 3.86-2.308v1.749c-2.35.111-3.86.85-3.86 3.741v6.432H96v-11.72M104 36.416V29h1.86v7.326c0 2.063.88 2.981 2.71 2.981 1.66 0 3.23-1.097 3.23-3.204V29h1.86v11.719h-1.86v-1.861c-.54 1.099-1.84 2.063-3.72 2.063-2.33 0-4.08-1.278-4.08-4.505M117 29.202h1.86v1.972c.67-1.143 2.26-2.174 3.97-2.174 3.07 0 5.33 2.241 5.33 5.893v.18c0 3.584-2.1 6.05-5.33 6.05-1.93 0-3.3-.964-3.97-2.129v6.005H117V29.202zm9.23 5.959v-.178c0-2.957-1.63-4.437-3.6-4.437-2.18 0-3.84 1.433-3.84 4.437v.178c0 3.004 1.57 4.416 3.86 4.416 2.33 0 3.58-1.569 3.58-4.416zM129 35.163v-.18c0-3.518 2.44-5.983 5.76-5.983s5.76 2.443 5.76 5.96v.179c0 3.541-2.44 5.984-5.78 5.984-3.34 0-5.74-2.532-5.74-5.96m9.59 0v-.158c0-2.711-1.5-4.459-3.83-4.459-2.35 0-3.83 1.748-3.83 4.437v.18c0 2.665 1.46 4.414 3.83 4.414 2.35 0 3.83-1.771 3.83-4.414M78 54.697v-.179c0-3.586 2.24-6.118 5.47-6.118 1.95 0 3.16.941 3.83 2.084V43h1.86v17.322H87.3v-2.018c-.67 1.143-2.31 2.22-4.01 2.22-3.07 0-5.29-2.175-5.29-5.827m9.37-.157v-.18c0-3.001-1.44-4.414-3.72-4.414-2.34 0-3.72 1.636-3.72 4.482v.179c0 2.958 1.59 4.37 3.56 4.37 2.17 0 3.88-1.435 3.88-4.437M91 54.184v-.179C91 50.466 93.26 48 96.49 48c2.71 0 5.26 1.637 5.26 5.826v.606h-8.83c.09 2.666 1.37 4.145 3.77 4.145 1.81 0 2.87-.673 3.11-2.039h1.86c-.4 2.353-2.35 3.585-4.99 3.585-3.32 0-5.67-2.33-5.67-5.939m8.85-1.253c-.18-2.42-1.44-3.385-3.36-3.385-1.91 0-3.19 1.3-3.5 3.385h6.86M106 54.272v-.18c0-3.517 2.45-5.983 5.76-5.983 3.32 0 5.76 2.442 5.76 5.96v.18c0 3.541-2.44 5.983-5.78 5.983-3.34 0-5.74-2.532-5.74-5.96m9.59 0v-.158c0-2.71-1.5-4.459-3.83-4.459-2.35 0-3.83 1.749-3.83 4.437v.18c0 2.665 1.46 4.414 3.83 4.414 2.35 0 3.83-1.77 3.83-4.414M112.32 43h2.33l-2.33 3.293h-1.39L112.32 43M120 48.202h1.86v1.972c.67-1.143 2.26-2.174 3.96-2.174 3.07 0 5.34 2.24 5.34 5.893v.18c0 3.585-2.11 6.051-5.34 6.051-1.92 0-3.29-.964-3.96-2.13v6.005H120V48.202zm9.23 5.961v-.18c0-2.958-1.64-4.436-3.61-4.436-2.17 0-3.83 1.433-3.83 4.436v.18c0 3.002 1.57 4.414 3.85 4.414 2.33 0 3.59-1.569 3.59-4.414zM133.68 57.451v-7.215H132v-1.569h1.68V46h1.86v2.667h2.74v1.569h-2.74v7.036c0 1.142.52 1.703 1.46 1.703.58 0 1.03-.089 1.43-.247v1.569c-.38.135-.83.246-1.59.246-2.13 0-3.16-1.254-3.16-3.092M141 44.232c0-.673.56-1.232 1.23-1.232.67 0 1.23.559 1.23 1.232 0 .672-.56 1.233-1.23 1.233-.67 0-1.23-.561-1.23-1.233zm.33 15.395h1.86v-11.72h-1.86v11.72zM145 54.185v-.179c0-3.585 2.56-6.006 5.69-6.006 2.45 0 4.73 1.121 5.09 4.101h-1.84c-.29-1.86-1.63-2.554-3.25-2.554-2.12 0-3.76 1.703-3.76 4.459v.179c0 2.868 1.57 4.392 3.83 4.392 1.66 0 3.16-.964 3.37-2.868h1.72c-.25 2.533-2.29 4.414-5.11 4.414-3.27 0-5.74-2.309-5.74-5.938M158 56.672c0-2.711 2.87-3.63 5.87-3.63h1.68v-.851c0-1.86-.71-2.644-2.5-2.644-1.62 0-2.52.672-2.7 2.106h-1.85c.24-2.667 2.37-3.653 4.63-3.653 2.25 0 4.28.92 4.28 4.191v7.731h-1.86v-1.48c-.87 1.098-1.92 1.681-3.65 1.681-2.17 0-3.9-1.053-3.9-3.451m7.55-.852v-1.455h-1.61c-2.35 0-4.08.581-4.08 2.307 0 1.211.58 1.972 2.22 1.972 1.97 0 3.47-1.008 3.47-2.824M169 56.313h1.81c.14 1.39.88 2.264 2.76 2.264 1.77 0 2.55-.604 2.55-1.86 0-1.233-.92-1.636-2.73-1.972-3.05-.56-4.08-1.411-4.08-3.45 0-2.174 2.13-3.295 3.97-3.295 2.1 0 3.92.851 4.23 3.384h-1.79c-.27-1.277-.99-1.837-2.47-1.837-1.34 0-2.21.672-2.21 1.681 0 1.051.58 1.478 2.73 1.859 2.42.449 4.12.986 4.12 3.473 0 2.129-1.45 3.564-4.3 3.564-2.8 0-4.48-1.412-4.59-3.811"/>
        </g>
    </g>
</svg>
