<svg xmlns="http://www.w3.org/2000/svg" width="53" height="54" viewBox="0 0 53 54">
    <g fill="#FFFFFE" fill-rule="evenodd">
        <path d="M26.292 53.074C11.796 53.074 0 41.169 0 26.537 0 11.904 11.796 0 26.292 0c14.496 0 26.29 11.904 26.29 26.537 0 14.632-11.794 26.537-26.29 26.537m0-51.217c-13.474 0-24.436 11.071-24.436 24.68s10.962 24.68 24.436 24.68 24.435-11.071 24.435-24.68-10.961-24.68-24.435-24.68"/>
        <path d="M15.065 34.265C10.618 34.265 7 30.618 7 26.133 7 21.65 10.618 18 15.065 18c4.446 0 8.063 3.65 8.063 8.133 0 4.485-3.617 8.132-8.063 8.132m0-14.407c-3.422 0-6.208 2.815-6.208 6.275 0 3.459 2.786 6.276 6.208 6.276 3.423 0 6.207-2.817 6.207-6.276 0-3.46-2.784-6.275-6.207-6.275M38.064 34.265c-4.446 0-8.064-3.647-8.064-8.132C30 21.65 33.618 18 38.064 18c4.445 0 8.064 3.65 8.064 8.133 0 4.485-3.619 8.132-8.064 8.132m0-14.407c-3.424 0-6.208 2.815-6.208 6.275 0 3.459 2.784 6.276 6.208 6.276 3.423 0 6.207-2.817 6.207-6.276 0-3.46-2.784-6.275-6.207-6.275"/>
        <path d="M31.202 22.407c-.017-.024-1.993-2.549-4.938-2.549-2.946 0-4.778 2.291-4.795 2.313L20 21.035c.096-.124 2.385-3.035 6.264-3.035 3.881 0 6.315 3.149 6.419 3.283l-1.481 1.124"/>
    </g>
</svg>
