<svg xmlns="http://www.w3.org/2000/svg" width="42" height="42" viewBox="0 0 42 42">
    <g fill="#006089" fill-rule="evenodd">
        <path d="M40.22 12.942a20.518 20.518 0 0 0-4.43-6.561 20.485 20.485 0 0 0-6.56-4.424A20.486 20.486 0 0 0 21.2.334c-2.79 0-5.49.546-8.04 1.623A20.595 20.595 0 0 0 6.6 6.381 20.518 20.518 0 0 0 .55 20.977 20.53 20.53 0 0 0 6.6 35.574c1.9 1.896 4.1 3.384 6.56 4.424a20.551 20.551 0 0 0 8.04 1.622c2.78 0 5.49-.546 8.03-1.622a20.485 20.485 0 0 0 6.56-4.424 20.53 20.53 0 0 0 6.05-14.597c0-2.787-.55-5.49-1.62-8.035M21.2 40.231c-10.62 0-19.26-8.637-19.26-19.254 0-10.616 8.64-19.254 19.26-19.254 10.61 0 19.25 8.638 19.25 19.254 0 10.617-8.64 19.254-19.25 19.254"/>
        <path d="M18.95 9.99c0-.539.19-1.005.59-1.399.39-.394.86-.591 1.4-.591.54 0 1 .196 1.4.591.39.394.59.859.59 1.399v9.951c0 .538-.2 1.005-.59 1.399-.4.393-.86.591-1.4.591a1.91 1.91 0 0 1-1.4-.591 1.89 1.89 0 0 1-.59-1.399V9.99zm12.98 16.574c-.63 1.471-1.48 2.741-2.55 3.809-1.07 1.067-2.34 1.917-3.81 2.549-1.47.633-3.02.949-4.63.949-1.62 0-3.17-.316-4.64-.949-1.47-.632-2.74-1.482-3.81-2.549-1.06-1.068-1.91-2.338-2.55-3.809A11.65 11.65 0 0 1 9 21.93c0-1.886.41-3.664 1.25-5.333a11.694 11.694 0 0 1 3.52-4.197 1.95 1.95 0 0 1 1.48-.389c.55.073.98.332 1.3.777.33.435.46.926.38 1.47-.07.544-.33.982-.77 1.314a7.933 7.933 0 0 0-2.35 2.813 7.755 7.755 0 0 0-.83 3.545c0 1.079.21 2.107.63 3.087.41.979.98 1.826 1.7 2.542a7.954 7.954 0 0 0 2.54 1.702c.98.42 2.01.63 3.09.63 1.07 0 2.1-.21 3.08-.63.98-.42 1.83-.987 2.54-1.702a7.98 7.98 0 0 0 1.71-2.542c.42-.98.63-2.008.63-3.087 0-1.253-.28-2.436-.84-3.545a7.933 7.933 0 0 0-2.35-2.813c-.44-.332-.69-.77-.77-1.314a1.89 1.89 0 0 1 .38-1.47 1.85 1.85 0 0 1 1.31-.777c.55-.073 1.04.057 1.47.389a11.594 11.594 0 0 1 3.52 4.197 11.702 11.702 0 0 1 1.26 5.333c0 1.618-.32 3.162-.95 4.634z"/>
    </g>
</svg>
