<svg xmlns="http://www.w3.org/2000/svg" width="20" height="15" viewBox="0 0 20 15">
    <g fill="#FFFFFE" fill-rule="evenodd">
        <path d="M18.457 13.951v-.51H2.033a.386.386 0 0 1-.384-.385V1.516c0-.213.171-.383.384-.384h16.424a.385.385 0 0 1 .383.384v11.54a.385.385 0 0 1-.383.385v1.02a1.405 1.405 0 0 0 1.403-1.405V1.516c0-.774-.627-1.403-1.403-1.404H2.033C1.257.112.63.741.629 1.516v11.54c0 .774.626 1.404 1.404 1.405h16.424v-.51"/>
        <path d="M1.564 1.12l-.364.357 9.047 9.217 9.042-9.217-.001.002a.766.766 0 0 0 .015-1.06.756.756 0 0 0-.556-.242H1.745a.762.762 0 0 0-.766.767.762.762 0 0 0 .224.537L1.2 1.477l.364-.357.361-.36-.184.184H2L1.925.76l-.184.184H2h-.251l.183.171L2 .944h-.251l.183.171-.187-.176v.258l.187-.082-.187-.176v.258h17.002V.936l-.191.177.191.084V.936l-.191.177.184-.17h-.251l.067.17.184-.17h-.251.257l-.183-.182-.074.182h.257l-.183-.182-.005.005-8.312 8.471L1.928.763 1.925.76l-.361.36"/>
        <path d="M10.247 9.965l.364-.357-2.994-3.051L1.2 13.096l.002-.003a.764.764 0 0 0 .543 1.302h17.002a.76.76 0 0 0 .763-.765.76.76 0 0 0-.222-.535l.001.001-6.416-6.539-2.991 3.051.365.357.364-.357-.364.357.364.357 2.263-2.308 5.687 5.796.001.002.184-.182h-.257l.073.182.184-.182h-.257.252l-.184-.172-.068.172h.252l-.184-.172.19.177v-.26l-.19.083.19.177v-.26H1.745v.257l.186-.176-.186-.081v.257l.186-.176-.184.174H2l-.069-.174-.184.174H2h-.259l.185.183L2 13.63h-.259l.185.183.002-.003 5.689-5.796 2.63 2.68.364-.372-.364-.357"/>
    </g>
</svg>
