<svg xmlns="http://www.w3.org/2000/svg" width="42" height="42" viewBox="0 0 42 42">
    <g fill="#00609C" fill-rule="evenodd">
        <path d="M29.254 20.621c-.076-2.596-1.244-4.933-3.186-6.47 3.032 1.239 6.083 3.539 8.541 6.472-2.37 2.829-5.276 5.033-8.28 6.297a8.912 8.912 0 0 0 2.925-6.299m-1.116 0c-.114 3.989-3.208 7.084-7.199 7.198-.065.001-.132.004-.194.004-3.744 0-6.88-3.231-6.997-7.202-.109-3.783 3.19-7.079 7.201-7.192a6.15 6.15 0 0 1 .194-.004c3.743 0 6.881 3.232 6.995 7.196m-15.505 0c-.073 2.508 1.121 4.888 3.177 6.471-3.03-1.239-6.077-3.538-8.533-6.469 2.372-2.827 5.28-5.03 8.28-6.295a8.916 8.916 0 0 0-2.924 6.293m23.23-.056a.557.557 0 0 0-.122-.321c-3.147-3.907-8.685-8.126-14.793-8.243L20.722 12c-3.837 0-9.68 2.163-14.576 8.244-.195.24-.195.519 0 .761 3.146 3.907 8.686 8.122 14.795 8.241.076.002.15.002.224.002h.002c3.836 0 9.678-2.167 14.574-8.243a.562.562 0 0 0 .12-.308l.005-.089-.004-.043"/>
        <path d="M23.846 20.422a2.422 2.422 0 0 1-2.423 2.421 2.422 2.422 0 1 1 0-4.843 2.423 2.423 0 0 1 2.423 2.422"/>
        <path d="M20.55 40.032c-10.529 0-19.098-8.653-19.098-19.291 0-10.636 8.569-19.29 19.098-19.29 10.532 0 19.099 8.654 19.099 19.29 0 10.638-8.567 19.291-19.099 19.291M20.55 0C9.22 0 0 9.303 0 20.741c0 11.438 9.22 20.743 20.55 20.743 11.333 0 20.551-9.305 20.551-20.743C41.101 9.303 31.883 0 20.55 0"/>
    </g>
</svg>
