<svg xmlns="http://www.w3.org/2000/svg" width="14" height="16" viewBox="0 0 14 16">
    <path fill="#FFFFFE" fill-rule="evenodd" d="M5.807 1.161c0-.314.116-.586.345-.816C6.383.115 6.654 0 6.97 0c.312 0 .585.115.815.345.23.23.347.502.347.816v5.807c0 .315-.117.587-.347.816-.23.23-.503.346-.815.346a1.12 1.12 0 0 1-.818-.346 1.116 1.116 0 0 1-.345-.816V1.161zm7.577 9.673a6.995 6.995 0 0 1-1.489 2.222 7.038 7.038 0 0 1-2.221 1.488 6.796 6.796 0 0 1-2.704.553 6.78 6.78 0 0 1-2.705-.553 6.975 6.975 0 0 1-2.222-1.488 7.025 7.025 0 0 1-1.488-2.222A6.753 6.753 0 0 1 0 8.13a6.87 6.87 0 0 1 .732-3.113 6.817 6.817 0 0 1 2.054-2.449c.259-.193.549-.27.865-.227.32.042.573.193.758.453.196.254.269.54.224.858a1.133 1.133 0 0 1-.449.767 4.597 4.597 0 0 0-1.86 3.711 4.702 4.702 0 0 0 1.359 3.283c.42.419.913.748 1.485.994a4.527 4.527 0 0 0 1.802.367c.627 0 1.227-.122 1.799-.367a4.666 4.666 0 0 0 1.484-.994c.417-.416.749-.911.993-1.482a4.53 4.53 0 0 0 .369-1.801c0-.731-.163-1.421-.486-2.07a4.655 4.655 0 0 0-1.374-1.641 1.134 1.134 0 0 1-.45-.767c-.043-.318.03-.604.22-.858.191-.26.444-.411.764-.453.321-.043.609.034.861.227a6.817 6.817 0 0 1 2.057 2.449c.487.974.73 2.012.73 3.113a6.82 6.82 0 0 1-.553 2.704z"/>
</svg>
