<svg xmlns="http://www.w3.org/2000/svg" width="17" height="21" viewBox="0 0 17 21">
    <g fill="#FFFFFE" fill-rule="evenodd">
        <path d="M6.149 6.631s.824.092.514-.919c-.103-1.014-.925-4.528-.925-4.528S5.637.329 4.6.369l1.314 6.347c.143-.05.235-.085.235-.085M16.154 16.269c-.875-.781-3.706-2.392-3.706-2.392s-1.062-.866-2.006-.215l5.922 3.849c.187-.268.355-.736-.21-1.242"/>
        <path d="M10.257 13.94l-.157.125-.651.643s-3.571-2.207-5.423-7.451c.375-.066 1.131-.328 1.514-.466L4.229.444l-.1.007c-1.715.153-2.78.828-2.78.828s-.551.183-.515 1.195C.888 3.956.73 13.146 12.877 19.951c0 .093.774.414 1.236 0 .465-.413 1.853-1.931 1.853-1.931s.111-.085.212-.231l-5.921-3.849"/>
    </g>
</svg>
