<svg xmlns="http://www.w3.org/2000/svg" width="349" height="59" viewBox="0 0 349 59">
    <g fill="none" fill-rule="evenodd">
        <g fill-rule="nonzero">
            <g>
                <g fill="#4A4A4A">
                    <path d="M.114.36L2.962.36 11.93 22.523 20.931.36 23.707.36 23.707 26.167 21.747 26.167 21.747 2.883 12.178 26.167 11.536 26.167 1.966 2.883 1.966 26.167.114 26.167zM35.376 24.545L28.013 7.293 30.039 7.293 36.406 22.347 42.351 7.293 44.27 7.293 33.951 32.74 31.992 32.74z" transform="translate(-121 -22) translate(121 22) translate(0 23.125)"/>
                </g>
                <g fill="#00609C">
                    <path d="M0 24.783h6.97c.088 2.764 1.764 5.305 6.287 5.305 3.529.047 5.476-1.68 5.476-4.445 0-2.087-1.264-3.13-5.429-4.173-7.24-1.68-10.269-4.038-10.269-9.295 0-5.624 4.57-10.109 12.216-10.109 7.146 0 11.58 3.171 11.58 9.702H20.14c-.223-3.13-2.17-4.309-5.205-4.309-3.306 0-4.84 1.633-4.84 3.943 0 1.857 1.176 2.764 5.475 3.855 6.97 1.721 10.364 4.038 10.364 9.343 0 6.3-4.658 10.792-12.892 10.84C4.475 35.44-.047 31.043 0 24.783zM34.424.481h6.517l-2.265 14.688c1.541-2.493 4.03-4.485 7.876-4.485 4.617 0 7.87 2.86 6.74 10.02l-2.265 14.234H44.51l2.218-14.193c.54-3.17-.588-4.715-3.164-4.715-3.029 0-5.381 1.95-5.929 5.575l-2.13 13.333H28.99L34.424.481zM56.956 24.695c0-8.029 5.564-13.963 13.257-13.963 6.47 0 11.54 3.807 11.54 10.745 0 8.163-5.476 13.963-13.304 13.963-6.47 0-11.445-3.896-11.493-10.745zm18.145-3.401c0-3.266-1.63-5.624-5.023-5.624-4.117 0-6.557 3.903-6.557 9.065 0 3.218 1.446 5.712 5.11 5.712 4.205.006 6.47-3.937 6.47-9.153zM110.566 20.975c0 8.57-4.658 14.465-11.58 14.465-4.165 0-6.74-2.134-7.782-4.533l-1.9 12.107h-6.516l3.799-24.26c.54-3.355.723-5.441.811-7.528h6.287c0 1.179-.047 2.629-.182 4.038 1.717-2.9 4.57-4.58 8.187-4.58 5.077 0 8.876 3.72 8.876 10.291zm-6.787.454c0-3.72-1.718-5.806-4.753-5.806-3.935 0-6.923 3.625-6.923 9.065 0 3.625 1.988 5.711 5.341 5.711 3.935.007 6.335-3.712 6.335-8.97zM113.547 31.45c0-2.175 1.765-3.944 4.03-3.944 2.264 0 4.07 1.721 4.07 3.903 0 2.174-1.853 3.943-4.118 3.943-2.265 0-3.982-1.728-3.982-3.903zm4.84-28.923h7.329l-4.57 22.31h-5.34l2.582-22.31z" transform="translate(-121 -22) translate(121 22) translate(46.25 14.453)"/>
                </g>
                <path fill="#00609C" d="M199.324 28.947c2.502-.02 4.353-2.155 4.286-4.53-.06-2.302-2.025-4.224-4.386-4.197-2.334.02-4.232 2.015-4.212 4.424.027 2.362 1.985 4.317 4.312 4.303m17.613 0c2.401-.006 4.3-1.975 4.293-4.45-.007-2.349-1.966-4.284-4.326-4.277-2.395.006-4.28 1.981-4.266 4.47.007 2.309 1.985 4.27 4.3 4.257m.516-11.59c.442.087.898.147 1.334.26 3.226.868 5.42 3.95 5.225 7.34-.195 3.477-2.703 6.266-6.097 6.766-3.856.574-7.532-2.255-8.008-6.179-.054-.427-.06-.867-.054-1.307 0-.194-.053-.267-.22-.327-.92-.334-1.839-.267-2.757-.027-.463.12-.463.127-.463.614 0 3.536-2.314 6.432-5.721 7.153-3.844.82-7.727-1.889-8.364-5.839-.637-3.943 1.797-7.526 5.654-8.327.268-.053.537-.093.798-.14h1.093c.054.02.108.04.161.047 2.428.286 4.246 1.52 5.48 3.656.094.167.174.207.362.147 1.08-.327 2.18-.474 3.307-.314.49.074.966.2 1.462.307l.094-.147c1.006-1.774 2.488-2.942 4.433-3.463.403-.106.825-.153 1.24-.233h1.04v.013z" transform="translate(-121 -22) translate(121 22)"/>
                <path fill="#00609C" d="M171.422 3.118l9.62 5.22 7.992 30.686h33.315c.925 0 1.676-.743 1.676-1.659 0-.915-.75-1.658-1.676-1.658h-30.713l-7.71-29.591-10.902-5.91c-.248-.133-.523-.206-.804-.206-.61 0-1.18.332-1.475.862-.43.803-.135 1.811.677 2.256M216.798 41.914c-2.389 0-4.336 1.947-4.336 4.336 0 2.39 1.947 4.336 4.336 4.336 2.39 0 4.336-1.946 4.336-4.336 0-2.396-1.946-4.336-4.336-4.336M196.564 41.914c-2.39 0-4.336 1.947-4.336 4.336 0 2.39 1.947 4.336 4.336 4.336 2.39 0 4.336-1.946 4.336-4.336 0-2.396-1.947-4.336-4.336-4.336" transform="translate(-121 -22) translate(121 22)"/>
                <path fill="#4A4A4A" d="M342.485 35.72c3.305 0 4.676 2.013 4.306 5.346h-10.063c.685-3.367 2.848-5.346 5.757-5.346m-5.986 7.786c0-.4 0-.807.06-1.207h11.576l.054-.46c.712-4.574-1.451-7.42-5.643-7.42-4.535 0-7.612 4.025-7.612 9.026 0 3.882 2.224 6.47 6.302 6.47 2.996 0 5.441-1.463 6.382-4.424h-1.512c-.772 2.066-2.452 3.13-4.817 3.13-3.224.007-4.79-1.863-4.79-5.115m-17.963 6.186h1.511l1.397-8.917c.511-3.218 3.024-5.034 5.644-5.034 2.478 0 3.789 1.524 3.278 4.688l-1.458 9.256h1.512l1.424-8.971c.685-4.37-1.283-6.294-4.474-6.294-2.627 0-4.535 1.578-5.563 3.475.168-1.206.256-2.446.256-3.245h-1.425c-.027 1.064-.087 2.188-.396 4.2l-1.706 10.842zm-9.977-1.064c-3.224 0-5.045-2.358-5.045-5.461 0-4.113 2.365-7.447 6.214-7.447 3.252 0 5.019 2.385 5.019 5.462 0 4.227-2.338 7.446-6.188 7.446m-.053 1.294c4.702 0 7.813-3.794 7.813-8.768 0-3.74-2.452-6.7-6.53-6.7-4.65 0-7.813 3.936-7.813 8.713 0 3.794 2.532 6.755 6.53 6.755m-12.718-.23h1.512l2.365-15.035h-1.512l-2.365 15.035zm3.736-18.26c.598 0 1.081-.515 1.081-1.091 0-.603-.483-1.064-1.054-1.064-.598 0-1.082.488-1.082 1.09 0 .577.457 1.065 1.055 1.065m-14.995 18.49c4.192 0 7.638-2.527 8.807-6.843h-1.511c-1.115 3.448-3.735 5.522-7.296 5.522-4.703 0-7.33-2.907-7.33-7.792 0-5.834 3.393-10.638 9.063-10.638 3.366 0 5.563 1.843 6.127 5.15h1.485c-.397-4.201-3.648-6.437-7.558-6.437-6.47 0-10.776 5.434-10.776 11.932.007 5.596 3.46 9.106 8.99 9.106m-30.165 5h1.6L267.25 34.65h-1.625l-6.497 11.993-3.137-11.993h-1.538l3.647 13.66-3.735 6.612zm-9.66-6.267c-3.023 0-5.133-2.1-5.106-5.55 0-4.051 2.54-7.418 6.302-7.418 2.653 0 4.622 2.039 4.622 5.522-.007 4.167-2.03 7.446-5.818 7.446m.054 1.267c4.763 0 7.356-3.998 7.356-8.801 0-4.086-2.593-6.701-5.986-6.701-2.593 0-4.703 1.578-5.73 3.563l1.625-10.522h-1.511l-3.48 22.224h1.511l.625-3.855c.517 1.85 2.197 4.092 5.59 4.092" transform="translate(-121 -22) translate(121 22)"/>
            </g>
        </g>
    </g>
</svg>
