<svg xmlns="http://www.w3.org/2000/svg" width="32" height="32" viewBox="0 0 32 32">
    <g fill="none" fill-rule="evenodd">
        <g fill-rule="nonzero">
            <g>
                <g fill="#3A3A3A">
                    <path d="M19.222 9.667V7.044c0-2.223-1.186-4.277-3.11-5.388-1.926-1.112-4.298-1.112-6.223 0C7.964 2.767 6.778 4.82 6.778 7.044v6.223c0 .49.398.889.889.889.49 0 .889-.398.889-.89v-1.822h7.11V9.667h-7.11V7.044C8.556 4.59 10.546 2.6 13 2.6c2.455 0 4.444 1.99 4.444 4.444v6.178c0 .491.398.89.89.89.49 0 .888-.399.888-.89v-1.778h4.445v16H2.333v-16H5V9.667H.556v17.857c0 .938.76 1.698 1.697 1.698h21.494c.937 0 1.697-.76 1.697-1.698V9.667h-6.222z" transform="translate(-1353 -50) translate(1353 50) translate(3 1)"/>
                </g>
                <path d="M0 0H32V32H0z" transform="translate(-1353 -50) translate(1353 50)"/>
            </g>
        </g>
    </g>
</svg>
