<svg xmlns="http://www.w3.org/2000/svg" width="32" height="32" viewBox="0 0 32 32">
    <g fill="none" fill-rule="evenodd">
        <g fill-rule="nonzero">
            <g>
                <g>
                    <g fill="#3A3A3A">
                        <path d="M8 6.418c0-2.455 1.99-4.445 4.444-4.445 2.455 0 4.445 1.99 4.445 4.445v2.47h1.778v-2.47c0-2.223-1.186-4.277-3.111-5.389-1.926-1.111-4.298-1.111-6.223 0-1.925 1.112-3.11 3.166-3.11 5.389v2.47H8v-2.47zM18.667 8.889v2.755c0 .491-.398.89-.89.89-.49 0-.888-.399-.888-.89V8.89H8v2.755c0 .491-.398.89-.889.89-.49 0-.889-.399-.889-.89V8.89H0v17.778c0 .982.796 1.777 1.778 1.777H23.11c.982 0 1.778-.795 1.778-1.777V8.889h-6.222z" transform="translate(-1353 -50) translate(1353 43) translate(0 7) translate(3.556 1.778)"/>
                    </g>
                    <path d="M0 0H32V32H0z" transform="translate(-1353 -50) translate(1353 43) translate(0 7)"/>
                </g>
            </g>
        </g>
    </g>
</svg>
