<svg width="19" height="19" xmlns="http://www.w3.org/2000/svg">
    <g fill-rule="nonzero" fill="none">
        <path d="M.148 5.103c0-.174.062-.322.186-.446a.607.607 0 0 1 .445-.185c.173 0 .322.062.446.185l8.386 8.387 8.257-8.257a.607.607 0 0 1 .445-.185c.174 0 .322.061.446.185a.607.607 0 0 1 .185.445.607.607 0 0 1-.185.446l-8.702 8.702a.607.607 0 0 1-.446.185.607.607 0 0 1-.445-.185L.334 5.566a.431.431 0 0 1-.065-.083.65.65 0 0 1-.046-.093l-.037-.093-.028-.092-.01-.102z" fill="#222"/>
        <path d="M0 0h19v19H0z"/>
    </g>
</svg>
