<?xml version="1.0" encoding="UTF-8"?>
<svg width="349px" height="58px" viewBox="0 0 349 58" version="1.1" xmlns="http://www.w3.org/2000/svg" xmlns:xlink="http://www.w3.org/1999/xlink">
    <title>3C37131D-7E1F-457E-87D6-C97CF8085068</title>
    <g id="B2B-Audiología-Configurador" stroke="none" stroke-width="1" fill="none" fill-rule="evenodd">
        <g id="Impresión-configurador-Gráficas" transform="translate(-67.000000, -13.000000)" fill-rule="nonzero">
            <g id="logo-my-shop-copy" transform="translate(67.000000, 13.000000)">
                <g id="Group" transform="translate(0.000000, 23.125159)" fill="#4A4A4A">
                    <polygon id="Path" points="0.113684315 0.359560819 2.96247949 0.359560819 11.9301657 22.5234324 20.9312885 0.359560819 23.7065233 0.359560819 23.7065233 26.1665298 21.7471407 26.1665298 21.7471407 2.88327072 12.1775963 26.1665298 11.5356143 26.1665298 1.96606991 2.88327072 1.96606991 26.1665298 0.113684315 26.1665298"></polygon>
                    <polygon id="Path" points="35.3758838 24.545114 28.0131526 7.29297888 30.0394083 7.29297888 36.4057299 22.3470441 42.3507509 7.29297888 44.2700096 7.29297888 33.9514862 32.740387 31.9921036 32.740387"></polygon>
                </g>
                <g id="Group" transform="translate(46.249949, 14.934245)" fill="#00609C">
                    <path d="M0.000367593823,24.3017413 L6.97031834,24.3017413 C7.05820327,27.0659204 8.73477726,29.6065262 13.2574708,29.6065262 C16.7863886,29.6539508 18.7333778,27.9263389 18.7333778,25.1621598 C18.7333778,23.0754755 17.4691869,22.0321334 13.3047935,20.9887913 C6.06442756,19.308604 3.03577776,16.9509219 3.03577776,11.6935616 C3.03577776,6.07035411 7.60579397,1.58533801 15.2517826,1.58533801 C22.3975032,1.58533801 26.8323118,4.75601404 26.8323118,11.2870647 L20.1395366,11.2870647 C19.9164441,8.15703833 17.969455,6.97819724 14.9340448,6.97819724 C11.6282195,6.97819724 10.0936134,8.6109599 10.0936134,10.9212174 C10.0936134,12.7775534 11.2699194,13.6853965 15.5695204,14.7761633 C22.5394712,16.4970003 25.9331814,18.8140328 25.9331814,24.1188177 C25.9331814,30.41952 21.2752803,34.9113111 13.0411387,34.9587357 C4.47573849,34.9587357 -0.0469550592,30.561794 0.000367593823,24.3017413 Z" id="Path"></path>
                    <path d="M34.4242175,0 L40.9412228,0 L38.6764958,14.688089 C40.2178623,12.1949078 42.7056817,10.2030729 46.5523374,10.2030729 C51.1696762,10.2030729 54.4214185,13.0621012 53.2924352,20.2232221 L51.0277083,34.4573895 L44.5107029,34.4573895 L46.7281072,20.2638718 C47.2689376,17.0931958 46.1399543,15.5485075 43.5642499,15.5485075 C40.5356001,15.5485075 38.1829882,17.4996927 37.6353975,21.1242903 L35.5058781,34.4573895 L28.9888727,34.4573895 L34.4242175,0 Z" id="Path"></path>
                    <path d="M56.9565607,24.2136669 C56.9565607,16.1853526 62.5203526,10.2504975 70.2136639,10.2504975 C76.6833466,10.2504975 81.7536308,14.0580187 81.7536308,20.9955663 C81.7536308,29.1593796 76.2777238,34.9587357 68.449205,34.9587357 C61.9795223,34.9587357 57.0038833,31.0631402 56.9565607,24.2136669 Z M75.1014179,20.8126427 C75.1014179,17.5471173 73.4721666,15.1894352 70.0784563,15.1894352 C65.9613855,15.1894352 63.5208887,19.0918057 63.5208887,24.2543166 C63.5208887,27.4724173 64.9676098,29.9656072 68.6317352,29.9656072 C72.8366909,29.9723734 75.1014179,26.0293532 75.1014179,20.8126427 Z" id="Shape"></path>
                    <path d="M110.566366,20.4942201 C110.566366,29.0645303 105.908465,34.9587357 98.9858369,34.9587357 C94.8214434,34.9587357 92.245739,32.8246268 91.2046407,30.426295 L89.3049742,42.5331284 L82.7879688,42.5331284 L86.5873018,18.2720369 C87.1281321,14.9184372 87.3106624,12.831753 87.3985473,10.7450688 L93.6856998,10.7450688 C93.6856998,11.9239099 93.6383771,13.3737489 93.5031695,14.7829382 C95.2203058,11.8832602 98.0731857,10.2030729 101.689988,10.2030729 C106.767033,10.2030729 110.566366,13.9225197 110.566366,20.4942201 Z M103.778946,20.9481416 C103.778946,17.2286948 102.061809,15.1420105 99.0263992,15.1420105 C95.0918586,15.1420105 92.1037711,18.7666081 92.1037711,24.206892 C92.1037711,27.8314896 94.0913225,29.9181831 97.4444705,29.9181831 C101.379011,29.9249488 103.778946,26.2055019 103.778946,20.9481416 Z" id="Shape"></path>
                    <path d="M113.547693,30.9682909 C113.547693,28.7935323 115.312152,27.0252707 117.576879,27.0252707 C119.841606,27.0252707 121.646627,28.7461077 121.646627,30.9276412 C121.646627,33.1023997 119.794283,34.8706614 117.529556,34.8706614 C115.26483,34.8706614 113.547693,33.1430494 113.547693,30.9682909 Z M118.388125,2.04603453 L125.716375,2.04603453 L121.146359,24.3559409 L115.80566,24.3559409 L118.388125,2.04603453 Z" id="Shape"></path>
                </g>
                <path d="M199.324371,28.9473874 C201.826098,28.9273021 203.677242,26.792107 203.610171,24.4167025 C203.549808,22.1146953 201.584644,20.1930198 199.223765,20.2197097 C196.889714,20.2397272 194.991621,22.2348001 195.011742,24.643567 C195.03857,27.0056265 196.997027,28.9606645 199.324371,28.9473874 M216.937066,28.9473872 C219.338188,28.940647 221.236281,26.9722641 221.229591,24.4967723 C221.222867,22.1480578 219.26441,20.2130372 216.903531,20.2196925 C214.509116,20.2263822 212.624437,22.2014376 212.63778,24.6902744 C212.644559,26.998954 214.623136,28.9606645 216.937066,28.9473872 M217.453508,17.3572138 C217.896173,17.4439561 218.352252,17.5040085 218.78821,17.6174407 C222.014298,18.4848637 224.207501,21.5675516 224.012997,24.9571738 C223.818492,28.4335382 221.310058,31.2226368 217.916294,31.7230731 C214.059745,32.2969068 210.384285,29.4677733 209.908085,25.5443524 C209.854429,25.1173134 209.847722,24.6769294 209.854429,24.2365454 C209.854429,24.0430434 209.800772,23.969646 209.633096,23.9095937 C208.714231,23.5759695 207.795366,23.6426943 206.876501,23.8829037 C206.413716,24.0030085 206.413716,24.009681 206.413716,24.4967723 C206.413716,28.0331891 204.099786,30.9290474 200.692608,31.6496758 C196.849472,32.4703914 192.966094,29.7613626 192.328925,25.8112518 C191.691756,21.8678134 194.126413,18.2846892 197.982962,17.4839911 C198.251244,17.4306112 198.519526,17.3905763 198.7811,17.3438689 L199.874349,17.3438689 C199.928005,17.3638863 199.981661,17.3839038 200.035318,17.3905763 C202.463267,17.6774931 204.280876,18.9119028 205.514972,21.0470978 C205.60887,21.2139099 205.689355,21.2539448 205.877152,21.1938925 C206.956986,20.8669407 208.056941,20.7201461 209.183724,20.8802857 C209.673338,20.953683 210.149538,21.0804602 210.64586,21.18722 C210.665981,21.1538576 210.706223,21.0938052 210.739758,21.0404253 C211.745815,19.2655444 213.228071,18.0978596 215.173114,17.5774058 C215.575536,17.4706461 215.99808,17.4239387 216.413917,17.3438689 L217.453508,17.3438689 L217.453508,17.3572138 Z" id="Shape" fill="#00609C"></path>
                <path d="M171.421684,3.11765109 L181.042602,8.33805833 L189.034333,39.023705 L222.348855,39.023705 C223.274072,39.023705 224.024973,38.2807754 224.024973,37.3653799 C224.024973,36.4499845 223.274072,35.7070549 222.348855,35.7070549 L191.635668,35.7070549 L183.925525,6.11590277 L173.024053,0.205632306 C172.775988,0.072966302 172.501104,3.55271368e-15 172.219517,3.55271368e-15 C171.60941,3.55271368e-15 171.03953,0.331665009 170.744533,0.862329024 C170.315447,1.66495835 170.610443,2.67321997 171.421684,3.11765109" id="Path" fill="#00609C"></path>
                <path d="M216.798361,41.9143498 C214.409022,41.9143498 212.462394,43.8609777 212.462394,46.250317 C212.462394,48.6396563 214.409022,50.5862842 216.798361,50.5862842 C219.1877,50.5862842 221.134328,48.6396563 221.134328,46.250317 C221.134328,43.8544673 219.1877,41.9143498 216.798361,41.9143498" id="Path" fill="#00609C"></path>
                <path d="M196.563847,41.9143498 C194.174508,41.9143498 192.22788,43.8609777 192.22788,46.250317 C192.22788,48.6396563 194.174508,50.5862842 196.563847,50.5862842 C198.953187,50.5862842 200.899815,48.6396563 200.899815,46.250317 C200.899815,43.8544673 198.953187,41.9143498 196.563847,41.9143498" id="Path" fill="#00609C"></path>
                <path d="M342.485199,35.7204675 C345.790452,35.7204675 347.160922,37.7327928 346.791432,41.0663417 L336.72788,41.0663417 C337.413115,37.6989153 339.576309,35.7204675 342.485199,35.7204675 M336.499468,43.5055239 C336.499468,43.105769 336.499468,42.6992387 336.55993,42.2994838 L348.135031,42.2994838 L348.188775,41.8387494 C348.900882,37.2652829 346.737688,34.4195704 342.545661,34.4195704 C338.011017,34.4195704 334.934176,38.4442209 334.934176,43.4445443 C334.934176,47.3269093 337.157831,49.9151525 341.235653,49.9151525 C344.231877,49.9151525 346.677227,48.4516432 347.617745,45.4907471 L346.106197,45.4907471 C345.333628,47.5572765 343.65413,48.6210309 341.289397,48.6210309 C338.06476,48.6278064 336.499468,46.7577667 336.499468,43.5055239 M318.535557,49.6915608 L320.047105,49.6915608 L321.444448,40.774995 C321.955015,37.5566296 324.467544,35.740794 327.087561,35.740794 C329.5665,35.740794 330.876509,37.2652829 330.365941,40.4294442 L328.908137,49.6847853 L330.419685,49.6847853 L331.8439,40.7140154 C332.529135,36.3438141 330.560763,34.4195704 327.369717,34.4195704 C324.742982,34.4195704 322.835072,35.9982633 321.807219,37.8954049 C321.975169,36.6893649 322.062503,35.4494473 322.062503,34.6499376 L320.638288,34.6499376 C320.611417,35.713692 320.550955,36.838426 320.241927,38.8507513 L318.535557,49.6915608 Z M308.559338,48.6278064 C305.334702,48.6278064 303.514126,46.2699303 303.514126,43.1667486 C303.514126,39.0540165 305.878859,35.7204675 309.728269,35.7204675 C312.979777,35.7204675 314.746609,38.1054456 314.746609,41.1815253 C314.746609,45.4094411 312.408748,48.6278064 308.559338,48.6278064 M308.505594,49.921928 C313.208189,49.921928 316.318619,46.1276447 316.318619,41.1544233 C316.318619,37.414344 313.866552,34.4534479 309.788731,34.4534479 C305.13988,34.4534479 301.975706,38.3900169 301.975706,43.1667486 C301.975706,46.9610319 304.508389,49.921928 308.505594,49.921928 M295.788435,49.6915608 L297.299983,49.6915608 L299.664717,34.6567131 L298.153168,34.6567131 L295.788435,49.6915608 Z M299.523639,31.4315722 C300.12154,31.4315722 300.605236,30.9166338 300.605236,30.3407158 C300.605236,29.7376957 300.12154,29.2769613 299.550511,29.2769613 C298.952609,29.2769613 298.468914,29.7647978 298.468914,30.3678178 C298.468914,30.9437358 298.925737,31.4315722 299.523639,31.4315722 M284.52908,49.921928 C288.721107,49.921928 292.167437,47.3946643 293.336368,43.078667 L291.82482,43.078667 C290.709633,46.5273995 288.089616,48.6007044 284.52908,48.6007044 C279.826485,48.6007044 277.19975,45.6940123 277.19975,40.8088725 C277.19975,34.9751619 280.592337,30.1713281 286.262322,30.1713281 C289.628036,30.1713281 291.82482,32.0142657 292.389131,35.3207127 L293.873807,35.3207127 C293.477446,31.119899 290.225937,28.883982 286.316066,28.883982 C279.846639,28.883982 275.540406,34.3179378 275.540406,40.815648 C275.547124,46.4122159 279.000172,49.921928 284.52908,49.921928 M254.365295,54.9222515 L255.964177,54.9222515 L267.250404,34.6499376 L265.62465,34.6499376 L259.128351,46.6425831 L255.991049,34.6499376 L254.452629,34.6499376 L258.100498,48.3093576 L254.365295,54.9222515 Z M244.704822,48.6549084 C241.681725,48.6549084 239.572276,46.5545016 239.599148,43.105769 C239.599148,39.0540165 242.138549,35.68659 245.900624,35.68659 C248.554231,35.68659 250.522603,37.7260173 250.522603,41.2086274 C250.515885,45.3755635 248.49377,48.6549084 244.704822,48.6549084 M244.758566,49.921928 C249.521622,49.921928 252.114767,45.9243795 252.114767,41.1205458 C252.114767,37.0349157 249.521622,34.4195704 246.129036,34.4195704 C243.535891,34.4195704 241.426442,35.9982633 240.398589,37.9834865 L242.024343,27.4611257 L240.512795,27.4611257 L237.032875,49.6847853 L238.544423,49.6847853 L239.169196,45.8295224 C239.686482,47.6792356 241.36598,49.921928 244.758566,49.921928" id="Shape" fill="#4A4A4A"></path>
            </g>
        </g>
    </g>
</svg>