<?xml version="1.0" encoding="UTF-8"?>
<svg width="15px" height="15px" viewBox="0 0 15 15" version="1.1" xmlns="http://www.w3.org/2000/svg" xmlns:xlink="http://www.w3.org/1999/xlink">
    <title>Path</title>
    <g id="B2B-Audiología-Configurador" stroke="none" stroke-width="1" fill="none" fill-rule="evenodd">
        <g id="Venting" transform="translate(-681.000000, -1655.000000)" fill="#9B0000" fill-rule="nonzero">
            <path d="M689.724629,1662.4587 L695.799617,1656.38371 C696.082764,1656.05308 696.063727,1655.56022 695.75592,1655.25241 C695.448113,1654.94461 694.955252,1654.92557 694.624619,1655.20872 L688.549631,1661.2837 L682.474643,1655.20038 C682.14401,1654.91724 681.65115,1654.93627 681.343343,1655.24408 C681.035536,1655.55189 681.016499,1656.04475 681.299646,1656.37538 L687.374634,1662.4587 L681.291312,1668.53369 C681.053499,1668.73735 680.949911,1669.05712 681.023138,1669.36154 C681.096364,1669.66595 681.334046,1669.90364 681.638462,1669.97686 C681.942879,1670.05009 682.262652,1669.9465 682.46631,1669.70869 L688.549631,1663.6337 L694.624619,1669.70869 C694.955252,1669.99183 695.448113,1669.9728 695.75592,1669.66499 C696.063727,1669.35718 696.082764,1668.86432 695.799617,1668.53369 L689.724629,1662.4587 Z" id="Path"></path>
        </g>
    </g>
</svg>